<?xml version="1.0" encoding="utf-8"?>
<!-- Generator: Adobe Illustrator 25.2.1, SVG Export Plug-In . SVG Version: 6.00 Build 0)  -->
<svg version="1.1" id="Layer_1" xmlns="http://www.w3.org/2000/svg" xmlns:xlink="http://www.w3.org/1999/xlink" x="0px" y="0px"
	 viewBox="0 0 288.5 288.5" style="enable-background:new 0 0 288.5 288.5;" xml:space="preserve">
<style type="text/css">
	.st0{clip-path:url(#SVGID_2_);}
	.st1{opacity:0.3;}
	.st2{fill:#6C757D;}
	.st3{fill:#434343;}
</style>
<g>
	<g>
		<g>
			<g>
				<defs>
					<circle id="SVGID_1_" cx="-484.8" cy="105.7" r="144.2"/>
				</defs>
				<clipPath id="SVGID_2_">
					<use xlink:href="#SVGID_1_"  style="overflow:visible;"/>
				</clipPath>
				<g class="st0">
					<g class="st1">
						<g>
							<rect x="-711.8" y="56.9" class="st2" width="4.1" height="4"/>
							<rect x="-693.9" y="56.9" class="st2" width="4.1" height="4"/>
							<rect x="-676" y="56.9" class="st2" width="4.1" height="4"/>
							<rect x="-657.9" y="56.9" class="st2" width="4.1" height="4"/>
							<rect x="-638.8" y="57" class="st2" width="4.1" height="4"/>
							<rect x="-621" y="57" class="st2" width="4.1" height="4"/>
							<rect x="-602.8" y="57" class="st2" width="4.1" height="4"/>
							<rect x="-584.9" y="57" class="st2" width="4.1" height="4"/>
							<rect x="-566.9" y="57" class="st2" width="4.1" height="4"/>
							<rect x="-548.9" y="57" class="st2" width="4.1" height="4"/>
							<rect x="-530.8" y="57" class="st2" width="4.1" height="4"/>
							<rect x="-512.9" y="57.1" class="st2" width="4.1" height="4"/>
							<rect x="-496.9" y="57.1" class="st2" width="4.1" height="4"/>
						</g>
						<g>
							<rect x="-711.8" y="75.4" class="st2" width="4.1" height="4"/>
							<rect x="-693.9" y="75.4" class="st2" width="4.1" height="4"/>
							<rect x="-676" y="75.4" class="st2" width="4.1" height="4"/>
							<rect x="-657.9" y="75.4" class="st2" width="4.1" height="4"/>
							<rect x="-638.8" y="75.5" class="st2" width="4.1" height="4"/>
							<rect x="-621" y="75.5" class="st2" width="4.1" height="4"/>
							<rect x="-602.8" y="75.5" class="st2" width="4.1" height="4"/>
							<rect x="-584.9" y="75.5" class="st2" width="4.1" height="4"/>
							<rect x="-566.9" y="75.5" class="st2" width="4.1" height="4"/>
							<rect x="-548.9" y="75.5" class="st2" width="4.1" height="4"/>
							<rect x="-530.8" y="75.5" class="st2" width="4.1" height="4"/>
							<rect x="-512.9" y="75.6" class="st2" width="4.1" height="4"/>
							<rect x="-496.9" y="75.6" class="st2" width="4.1" height="4"/>
						</g>
						<g>
							<rect x="-711.8" y="91.9" class="st2" width="4.1" height="4"/>
							<rect x="-693.9" y="91.9" class="st2" width="4.1" height="4"/>
							<rect x="-676" y="91.9" class="st2" width="4.1" height="4"/>
							<rect x="-657.9" y="91.9" class="st2" width="4.1" height="4"/>
							<rect x="-638.8" y="92" class="st2" width="4.1" height="4"/>
							<rect x="-621" y="92" class="st2" width="4.1" height="4"/>
							<rect x="-602.8" y="92" class="st2" width="4.1" height="4"/>
							<rect x="-584.9" y="92" class="st2" width="4.1" height="4"/>
							<rect x="-566.9" y="92" class="st2" width="4.1" height="4"/>
							<rect x="-548.9" y="92" class="st2" width="4.1" height="4"/>
							<rect x="-530.8" y="92" class="st2" width="4.1" height="4"/>
							<rect x="-512.9" y="92.1" class="st2" width="4.1" height="4"/>
							<rect x="-496.9" y="92.1" class="st2" width="4.1" height="4"/>
						</g>
						<g>
							<rect x="-711.8" y="19.9" class="st2" width="4.1" height="4"/>
							<rect x="-693.9" y="19.9" class="st2" width="4.1" height="4"/>
							<rect x="-676" y="19.9" class="st2" width="4.1" height="4"/>
							<rect x="-657.9" y="19.9" class="st2" width="4.1" height="4"/>
							<rect x="-638.8" y="20" class="st2" width="4.1" height="4"/>
							<rect x="-621" y="20" class="st2" width="4.1" height="4"/>
							<rect x="-602.8" y="20" class="st2" width="4.1" height="4"/>
							<rect x="-584.9" y="20" class="st2" width="4.1" height="4"/>
							<rect x="-566.9" y="20" class="st2" width="4.1" height="4"/>
							<rect x="-548.9" y="20" class="st2" width="4.1" height="4"/>
							<rect x="-530.8" y="20" class="st2" width="4.1" height="4"/>
							<rect x="-512.9" y="20.1" class="st2" width="4.1" height="4"/>
							<rect x="-496.9" y="20.1" class="st2" width="4.1" height="4"/>
						</g>
						<g>
							<rect x="-711.8" y="38.4" class="st2" width="4.1" height="4"/>
							<rect x="-693.9" y="38.4" class="st2" width="4.1" height="4"/>
							<rect x="-676" y="38.4" class="st2" width="4.1" height="4"/>
							<rect x="-657.9" y="38.4" class="st2" width="4.1" height="4"/>
							<rect x="-638.8" y="38.5" class="st2" width="4.1" height="4"/>
							<rect x="-621" y="38.5" class="st2" width="4.1" height="4"/>
							<rect x="-602.8" y="38.5" class="st2" width="4.1" height="4"/>
							<rect x="-584.9" y="38.5" class="st2" width="4.1" height="4"/>
							<rect x="-566.9" y="38.5" class="st2" width="4.1" height="4"/>
							<rect x="-548.9" y="38.5" class="st2" width="4.1" height="4"/>
							<rect x="-530.8" y="38.5" class="st2" width="4.1" height="4"/>
							<rect x="-512.9" y="38.6" class="st2" width="4.1" height="4"/>
							<rect x="-496.9" y="38.6" class="st2" width="4.1" height="4"/>
						</g>
						<g>
							<rect x="-711.8" y="-17.1" class="st2" width="4.1" height="4"/>
							<rect x="-693.9" y="-17.1" class="st2" width="4.1" height="4"/>
							<rect x="-676" y="-17.1" class="st2" width="4.1" height="4"/>
							<rect x="-657.9" y="-17.1" class="st2" width="4.1" height="4"/>
							<rect x="-638.8" y="-17" class="st2" width="4.1" height="4"/>
							<rect x="-621" y="-17" class="st2" width="4.1" height="4"/>
							<rect x="-602.8" y="-17" class="st2" width="4.1" height="4"/>
							<rect x="-584.9" y="-17" class="st2" width="4.1" height="4"/>
							<rect x="-566.9" y="-17" class="st2" width="4.1" height="4"/>
							<rect x="-548.9" y="-17" class="st2" width="4.1" height="4"/>
							<rect x="-530.8" y="-17" class="st2" width="4.1" height="4"/>
							<rect x="-512.9" y="-16.9" class="st2" width="4.1" height="4"/>
							<rect x="-496.9" y="-16.9" class="st2" width="4.1" height="4"/>
						</g>
						<g>
							<rect x="-711.8" y="1.4" class="st2" width="4.1" height="4"/>
							<rect x="-693.9" y="1.4" class="st2" width="4.1" height="4"/>
							<rect x="-676" y="1.4" class="st2" width="4.1" height="4"/>
							<rect x="-657.9" y="1.4" class="st2" width="4.1" height="4"/>
							<rect x="-638.8" y="1.5" class="st2" width="4.1" height="4"/>
							<rect x="-621" y="1.5" class="st2" width="4.1" height="4"/>
							<rect x="-602.8" y="1.5" class="st2" width="4.1" height="4"/>
							<rect x="-584.9" y="1.5" class="st2" width="4.1" height="4"/>
							<rect x="-566.9" y="1.5" class="st2" width="4.1" height="4"/>
							<rect x="-548.9" y="1.5" class="st2" width="4.1" height="4"/>
							<rect x="-530.8" y="1.5" class="st2" width="4.1" height="4"/>
							<rect x="-512.9" y="1.6" class="st2" width="4.1" height="4"/>
							<rect x="-496.9" y="1.6" class="st2" width="4.1" height="4"/>
						</g>
						<g>
							<rect x="-711.8" y="-54.1" class="st2" width="4.1" height="4"/>
							<rect x="-693.9" y="-54.1" class="st2" width="4.1" height="4"/>
							<rect x="-676" y="-54.1" class="st2" width="4.1" height="4"/>
							<rect x="-657.9" y="-54.1" class="st2" width="4.1" height="4"/>
							<rect x="-638.8" y="-54" class="st2" width="4.1" height="4"/>
							<rect x="-621" y="-54" class="st2" width="4.1" height="4"/>
							<rect x="-602.8" y="-54" class="st2" width="4.1" height="4"/>
							<rect x="-584.9" y="-54" class="st2" width="4.1" height="4"/>
							<rect x="-566.9" y="-54" class="st2" width="4.1" height="4"/>
							<rect x="-548.9" y="-54" class="st2" width="4.1" height="4"/>
							<rect x="-530.8" y="-54" class="st2" width="4.1" height="4"/>
							<rect x="-512.9" y="-53.9" class="st2" width="4.1" height="4"/>
							<rect x="-496.9" y="-53.9" class="st2" width="4.1" height="4"/>
						</g>
						<g>
							<rect x="-711.8" y="-35.6" class="st2" width="4.1" height="4"/>
							<rect x="-693.9" y="-35.6" class="st2" width="4.1" height="4"/>
							<rect x="-676" y="-35.6" class="st2" width="4.1" height="4"/>
							<rect x="-657.9" y="-35.6" class="st2" width="4.1" height="4"/>
							<rect x="-638.8" y="-35.5" class="st2" width="4.1" height="4"/>
							<rect x="-621" y="-35.5" class="st2" width="4.1" height="4"/>
							<rect x="-602.8" y="-35.5" class="st2" width="4.1" height="4"/>
							<rect x="-584.9" y="-35.5" class="st2" width="4.1" height="4"/>
							<rect x="-566.9" y="-35.5" class="st2" width="4.1" height="4"/>
							<rect x="-548.9" y="-35.5" class="st2" width="4.1" height="4"/>
							<rect x="-530.8" y="-35.5" class="st2" width="4.1" height="4"/>
							<rect x="-512.9" y="-35.4" class="st2" width="4.1" height="4"/>
							<rect x="-496.9" y="-35.4" class="st2" width="4.1" height="4"/>
						</g>
						<g>
							<rect x="-711.8" y="-91.1" class="st2" width="4.1" height="4"/>
							<rect x="-693.9" y="-91.1" class="st2" width="4.1" height="4"/>
							<rect x="-676" y="-91.1" class="st2" width="4.1" height="4"/>
							<rect x="-657.9" y="-91.1" class="st2" width="4.1" height="4"/>
							<rect x="-638.8" y="-91" class="st2" width="4.1" height="4"/>
							<rect x="-621" y="-91" class="st2" width="4.1" height="4"/>
							<rect x="-602.8" y="-91" class="st2" width="4.1" height="4"/>
							<rect x="-584.9" y="-91" class="st2" width="4.1" height="4"/>
							<rect x="-566.9" y="-91" class="st2" width="4.1" height="4"/>
							<rect x="-548.9" y="-91" class="st2" width="4.1" height="4"/>
							<rect x="-530.8" y="-91" class="st2" width="4.1" height="4"/>
							<rect x="-512.9" y="-90.9" class="st2" width="4.1" height="4"/>
							<rect x="-496.9" y="-90.9" class="st2" width="4.1" height="4"/>
						</g>
						<g>
							<rect x="-711.8" y="-72.6" class="st2" width="4.1" height="4"/>
							<rect x="-693.9" y="-72.6" class="st2" width="4.1" height="4"/>
							<rect x="-676" y="-72.6" class="st2" width="4.1" height="4"/>
							<rect x="-657.9" y="-72.6" class="st2" width="4.1" height="4"/>
							<rect x="-638.8" y="-72.5" class="st2" width="4.1" height="4"/>
							<rect x="-621" y="-72.5" class="st2" width="4.1" height="4"/>
							<rect x="-602.8" y="-72.5" class="st2" width="4.1" height="4"/>
							<rect x="-584.9" y="-72.5" class="st2" width="4.1" height="4"/>
							<rect x="-566.9" y="-72.5" class="st2" width="4.1" height="4"/>
							<rect x="-548.9" y="-72.5" class="st2" width="4.1" height="4"/>
							<rect x="-530.8" y="-72.5" class="st2" width="4.1" height="4"/>
							<rect x="-512.9" y="-72.4" class="st2" width="4.1" height="4"/>
							<rect x="-496.9" y="-72.4" class="st2" width="4.1" height="4"/>
						</g>
						<g>
							<rect x="-711.8" y="-128.1" class="st2" width="4.1" height="4"/>
							<rect x="-693.9" y="-128.1" class="st2" width="4.1" height="4"/>
							<rect x="-676" y="-128.1" class="st2" width="4.1" height="4"/>
							<rect x="-657.9" y="-128.1" class="st2" width="4.1" height="4"/>
							<rect x="-638.8" y="-128" class="st2" width="4.1" height="4"/>
							<rect x="-621" y="-128" class="st2" width="4.1" height="4"/>
							<rect x="-602.8" y="-128" class="st2" width="4.1" height="4"/>
							<rect x="-584.9" y="-128" class="st2" width="4.1" height="4"/>
							<rect x="-566.9" y="-128" class="st2" width="4.1" height="4"/>
							<rect x="-548.9" y="-128" class="st2" width="4.1" height="4"/>
							<rect x="-530.8" y="-128" class="st2" width="4.1" height="4"/>
							<rect x="-512.9" y="-127.9" class="st2" width="4.1" height="4"/>
							<rect x="-496.9" y="-127.9" class="st2" width="4.1" height="4"/>
						</g>
						<g>
							<rect x="-711.8" y="-109.6" class="st2" width="4.1" height="4"/>
							<rect x="-693.9" y="-109.6" class="st2" width="4.1" height="4"/>
							<rect x="-676" y="-109.6" class="st2" width="4.1" height="4"/>
							<rect x="-657.9" y="-109.6" class="st2" width="4.1" height="4"/>
							<rect x="-638.8" y="-109.5" class="st2" width="4.1" height="4"/>
							<rect x="-621" y="-109.5" class="st2" width="4.1" height="4"/>
							<rect x="-602.8" y="-109.5" class="st2" width="4.1" height="4"/>
							<rect x="-584.9" y="-109.5" class="st2" width="4.1" height="4"/>
							<rect x="-566.9" y="-109.5" class="st2" width="4.1" height="4"/>
							<rect x="-548.9" y="-109.5" class="st2" width="4.1" height="4"/>
							<rect x="-530.8" y="-109.5" class="st2" width="4.1" height="4"/>
							<rect x="-512.9" y="-109.4" class="st2" width="4.1" height="4"/>
							<rect x="-496.9" y="-109.4" class="st2" width="4.1" height="4"/>
						</g>
					</g>
					<g class="st1">
						<g>
							<rect x="-478.9" y="56.9" class="st2" width="4.1" height="4"/>
							<rect x="-461" y="56.9" class="st2" width="4.1" height="4"/>
							<rect x="-443.1" y="56.9" class="st2" width="4.1" height="4"/>
							<rect x="-425" y="56.9" class="st2" width="4.1" height="4"/>
							<rect x="-405.9" y="57" class="st2" width="4.1" height="4"/>
							<rect x="-388.1" y="57" class="st2" width="4.1" height="4"/>
							<rect x="-369.9" y="57" class="st2" width="4.1" height="4"/>
							<rect x="-352" y="57" class="st2" width="4.1" height="4"/>
							<rect x="-334" y="57" class="st2" width="4.1" height="4"/>
							<rect x="-316" y="57" class="st2" width="4.1" height="4"/>
							<rect x="-297.9" y="57" class="st2" width="4.1" height="4"/>
							<rect x="-280" y="57.1" class="st2" width="4.1" height="4"/>
							<rect x="-264" y="57.1" class="st2" width="4.1" height="4"/>
						</g>
						<g>
							<rect x="-478.9" y="75.4" class="st2" width="4.1" height="4"/>
							<rect x="-461" y="75.4" class="st2" width="4.1" height="4"/>
							<rect x="-443.1" y="75.4" class="st2" width="4.1" height="4"/>
							<rect x="-425" y="75.4" class="st2" width="4.1" height="4"/>
							<rect x="-405.9" y="75.5" class="st2" width="4.1" height="4"/>
							<rect x="-388.1" y="75.5" class="st2" width="4.1" height="4"/>
							<rect x="-369.9" y="75.5" class="st2" width="4.1" height="4"/>
							<rect x="-352" y="75.5" class="st2" width="4.1" height="4"/>
							<rect x="-334" y="75.5" class="st2" width="4.1" height="4"/>
							<rect x="-316" y="75.5" class="st2" width="4.1" height="4"/>
							<rect x="-297.9" y="75.5" class="st2" width="4.1" height="4"/>
							<rect x="-280" y="75.6" class="st2" width="4.1" height="4"/>
							<rect x="-264" y="75.6" class="st2" width="4.1" height="4"/>
						</g>
						<g>
							<rect x="-478.9" y="91.9" class="st2" width="4.1" height="4"/>
							<rect x="-461" y="91.9" class="st2" width="4.1" height="4"/>
							<rect x="-443.1" y="91.9" class="st2" width="4.1" height="4"/>
							<rect x="-425" y="91.9" class="st2" width="4.1" height="4"/>
							<rect x="-405.9" y="92" class="st2" width="4.1" height="4"/>
							<rect x="-388.1" y="92" class="st2" width="4.1" height="4"/>
							<rect x="-369.9" y="92" class="st2" width="4.1" height="4"/>
							<rect x="-352" y="92" class="st2" width="4.1" height="4"/>
							<rect x="-334" y="92" class="st2" width="4.1" height="4"/>
							<rect x="-316" y="92" class="st2" width="4.1" height="4"/>
							<rect x="-297.9" y="92" class="st2" width="4.1" height="4"/>
							<rect x="-280" y="92.1" class="st2" width="4.1" height="4"/>
							<rect x="-264" y="92.1" class="st2" width="4.1" height="4"/>
						</g>
						<g>
							<rect x="-478.9" y="19.9" class="st2" width="4.1" height="4"/>
							<rect x="-461" y="19.9" class="st2" width="4.1" height="4"/>
							<rect x="-443.1" y="19.9" class="st2" width="4.1" height="4"/>
							<rect x="-425" y="19.9" class="st2" width="4.1" height="4"/>
							<rect x="-405.9" y="20" class="st2" width="4.1" height="4"/>
							<rect x="-388.1" y="20" class="st2" width="4.1" height="4"/>
							<rect x="-369.9" y="20" class="st2" width="4.1" height="4"/>
							<rect x="-352" y="20" class="st2" width="4.1" height="4"/>
							<rect x="-334" y="20" class="st2" width="4.1" height="4"/>
							<rect x="-316" y="20" class="st2" width="4.1" height="4"/>
							<rect x="-297.9" y="20" class="st2" width="4.1" height="4"/>
							<rect x="-280" y="20.1" class="st2" width="4.1" height="4"/>
							<rect x="-264" y="20.1" class="st2" width="4.1" height="4"/>
						</g>
						<g>
							<rect x="-478.9" y="38.4" class="st2" width="4.1" height="4"/>
							<rect x="-461" y="38.4" class="st2" width="4.1" height="4"/>
							<rect x="-443.1" y="38.4" class="st2" width="4.1" height="4"/>
							<rect x="-425" y="38.4" class="st2" width="4.1" height="4"/>
							<rect x="-405.9" y="38.5" class="st2" width="4.1" height="4"/>
							<rect x="-388.1" y="38.5" class="st2" width="4.1" height="4"/>
							<rect x="-369.9" y="38.5" class="st2" width="4.1" height="4"/>
							<rect x="-352" y="38.5" class="st2" width="4.1" height="4"/>
							<rect x="-334" y="38.5" class="st2" width="4.1" height="4"/>
							<rect x="-316" y="38.5" class="st2" width="4.1" height="4"/>
							<rect x="-297.9" y="38.5" class="st2" width="4.1" height="4"/>
							<rect x="-280" y="38.6" class="st2" width="4.1" height="4"/>
							<rect x="-264" y="38.6" class="st2" width="4.1" height="4"/>
						</g>
						<g>
							<rect x="-478.9" y="-17.1" class="st2" width="4.1" height="4"/>
							<rect x="-461" y="-17.1" class="st2" width="4.1" height="4"/>
							<rect x="-443.1" y="-17.1" class="st2" width="4.1" height="4"/>
							<rect x="-425" y="-17.1" class="st2" width="4.1" height="4"/>
							<rect x="-405.9" y="-17" class="st2" width="4.1" height="4"/>
							<rect x="-388.1" y="-17" class="st2" width="4.1" height="4"/>
							<rect x="-369.9" y="-17" class="st2" width="4.1" height="4"/>
							<rect x="-352" y="-17" class="st2" width="4.1" height="4"/>
							<rect x="-334" y="-17" class="st2" width="4.1" height="4"/>
							<rect x="-316" y="-17" class="st2" width="4.1" height="4"/>
							<rect x="-297.9" y="-17" class="st2" width="4.1" height="4"/>
							<rect x="-280" y="-16.9" class="st2" width="4.1" height="4"/>
							<rect x="-264" y="-16.9" class="st2" width="4.1" height="4"/>
						</g>
						<g>
							<rect x="-478.9" y="1.4" class="st2" width="4.1" height="4"/>
							<rect x="-461" y="1.4" class="st2" width="4.1" height="4"/>
							<rect x="-443.1" y="1.4" class="st2" width="4.1" height="4"/>
							<rect x="-425" y="1.4" class="st2" width="4.1" height="4"/>
							<rect x="-405.9" y="1.5" class="st2" width="4.1" height="4"/>
							<rect x="-388.1" y="1.5" class="st2" width="4.1" height="4"/>
							<rect x="-369.9" y="1.5" class="st2" width="4.1" height="4"/>
							<rect x="-352" y="1.5" class="st2" width="4.1" height="4"/>
							<rect x="-334" y="1.5" class="st2" width="4.1" height="4"/>
							<rect x="-316" y="1.5" class="st2" width="4.1" height="4"/>
							<rect x="-297.9" y="1.5" class="st2" width="4.1" height="4"/>
							<rect x="-280" y="1.6" class="st2" width="4.1" height="4"/>
							<rect x="-264" y="1.6" class="st2" width="4.1" height="4"/>
						</g>
						<g>
							<rect x="-478.9" y="-54.1" class="st2" width="4.1" height="4"/>
							<rect x="-461" y="-54.1" class="st2" width="4.1" height="4"/>
							<rect x="-443.1" y="-54.1" class="st2" width="4.1" height="4"/>
							<rect x="-425" y="-54.1" class="st2" width="4.1" height="4"/>
							<rect x="-405.9" y="-54" class="st2" width="4.1" height="4"/>
							<rect x="-388.1" y="-54" class="st2" width="4.1" height="4"/>
							<rect x="-369.9" y="-54" class="st2" width="4.1" height="4"/>
							<rect x="-352" y="-54" class="st2" width="4.1" height="4"/>
							<rect x="-334" y="-54" class="st2" width="4.1" height="4"/>
							<rect x="-316" y="-54" class="st2" width="4.1" height="4"/>
							<rect x="-297.9" y="-54" class="st2" width="4.1" height="4"/>
							<rect x="-280" y="-53.9" class="st2" width="4.1" height="4"/>
							<rect x="-264" y="-53.9" class="st2" width="4.1" height="4"/>
						</g>
						<g>
							<rect x="-478.9" y="-35.6" class="st2" width="4.1" height="4"/>
							<rect x="-461" y="-35.6" class="st2" width="4.1" height="4"/>
							<rect x="-443.1" y="-35.6" class="st2" width="4.1" height="4"/>
							<rect x="-425" y="-35.6" class="st2" width="4.1" height="4"/>
							<rect x="-405.9" y="-35.5" class="st2" width="4.1" height="4"/>
							<rect x="-388.1" y="-35.5" class="st2" width="4.1" height="4"/>
							<rect x="-369.9" y="-35.5" class="st2" width="4.1" height="4"/>
							<rect x="-352" y="-35.5" class="st2" width="4.1" height="4"/>
							<rect x="-334" y="-35.5" class="st2" width="4.1" height="4"/>
							<rect x="-316" y="-35.5" class="st2" width="4.1" height="4"/>
							<rect x="-297.9" y="-35.5" class="st2" width="4.1" height="4"/>
							<rect x="-280" y="-35.4" class="st2" width="4.1" height="4"/>
							<rect x="-264" y="-35.4" class="st2" width="4.1" height="4"/>
						</g>
						<g>
							<rect x="-478.9" y="-91.1" class="st2" width="4.1" height="4"/>
							<rect x="-461" y="-91.1" class="st2" width="4.1" height="4"/>
							<rect x="-443.1" y="-91.1" class="st2" width="4.1" height="4"/>
							<rect x="-425" y="-91.1" class="st2" width="4.1" height="4"/>
							<rect x="-405.9" y="-91" class="st2" width="4.1" height="4"/>
							<rect x="-388.1" y="-91" class="st2" width="4.1" height="4"/>
							<rect x="-369.9" y="-91" class="st2" width="4.1" height="4"/>
							<rect x="-352" y="-91" class="st2" width="4.1" height="4"/>
							<rect x="-334" y="-91" class="st2" width="4.1" height="4"/>
							<rect x="-316" y="-91" class="st2" width="4.1" height="4"/>
							<rect x="-297.9" y="-91" class="st2" width="4.1" height="4"/>
							<rect x="-280" y="-90.9" class="st2" width="4.1" height="4"/>
							<rect x="-264" y="-90.9" class="st2" width="4.1" height="4"/>
						</g>
						<g>
							<rect x="-478.9" y="-72.6" class="st2" width="4.1" height="4"/>
							<rect x="-461" y="-72.6" class="st2" width="4.1" height="4"/>
							<rect x="-443.1" y="-72.6" class="st2" width="4.1" height="4"/>
							<rect x="-425" y="-72.6" class="st2" width="4.1" height="4"/>
							<rect x="-405.9" y="-72.5" class="st2" width="4.1" height="4"/>
							<rect x="-388.1" y="-72.5" class="st2" width="4.1" height="4"/>
							<rect x="-369.9" y="-72.5" class="st2" width="4.1" height="4"/>
							<rect x="-352" y="-72.5" class="st2" width="4.1" height="4"/>
							<rect x="-334" y="-72.5" class="st2" width="4.1" height="4"/>
							<rect x="-316" y="-72.5" class="st2" width="4.1" height="4"/>
							<rect x="-297.9" y="-72.5" class="st2" width="4.1" height="4"/>
							<rect x="-280" y="-72.4" class="st2" width="4.1" height="4"/>
							<rect x="-264" y="-72.4" class="st2" width="4.1" height="4"/>
						</g>
						<g>
							<rect x="-478.9" y="-128.1" class="st2" width="4.1" height="4"/>
							<rect x="-461" y="-128.1" class="st2" width="4.1" height="4"/>
							<rect x="-443.1" y="-128.1" class="st2" width="4.1" height="4"/>
							<rect x="-425" y="-128.1" class="st2" width="4.1" height="4"/>
							<rect x="-405.9" y="-128" class="st2" width="4.1" height="4"/>
							<rect x="-388.1" y="-128" class="st2" width="4.1" height="4"/>
							<rect x="-369.9" y="-128" class="st2" width="4.1" height="4"/>
							<rect x="-352" y="-128" class="st2" width="4.1" height="4"/>
							<rect x="-334" y="-128" class="st2" width="4.1" height="4"/>
							<rect x="-316" y="-128" class="st2" width="4.1" height="4"/>
							<rect x="-297.9" y="-128" class="st2" width="4.1" height="4"/>
							<rect x="-280" y="-127.9" class="st2" width="4.1" height="4"/>
							<rect x="-264" y="-127.9" class="st2" width="4.1" height="4"/>
						</g>
						<g>
							<rect x="-478.9" y="-109.6" class="st2" width="4.1" height="4"/>
							<rect x="-461" y="-109.6" class="st2" width="4.1" height="4"/>
							<rect x="-443.1" y="-109.6" class="st2" width="4.1" height="4"/>
							<rect x="-425" y="-109.6" class="st2" width="4.1" height="4"/>
							<rect x="-405.9" y="-109.5" class="st2" width="4.1" height="4"/>
							<rect x="-388.1" y="-109.5" class="st2" width="4.1" height="4"/>
							<rect x="-369.9" y="-109.5" class="st2" width="4.1" height="4"/>
							<rect x="-352" y="-109.5" class="st2" width="4.1" height="4"/>
							<rect x="-334" y="-109.5" class="st2" width="4.1" height="4"/>
							<rect x="-316" y="-109.5" class="st2" width="4.1" height="4"/>
							<rect x="-297.9" y="-109.5" class="st2" width="4.1" height="4"/>
							<rect x="-280" y="-109.4" class="st2" width="4.1" height="4"/>
							<rect x="-264" y="-109.4" class="st2" width="4.1" height="4"/>
						</g>
					</g>
					<g class="st1">
						<g>
							<rect x="-711.8" y="295.9" class="st2" width="4.1" height="4"/>
							<rect x="-693.9" y="295.9" class="st2" width="4.1" height="4"/>
							<rect x="-676" y="295.9" class="st2" width="4.1" height="4"/>
							<rect x="-657.9" y="295.9" class="st2" width="4.1" height="4"/>
							<rect x="-638.8" y="296" class="st2" width="4.1" height="4"/>
							<rect x="-621" y="296" class="st2" width="4.1" height="4"/>
							<rect x="-602.8" y="296" class="st2" width="4.1" height="4"/>
							<rect x="-584.9" y="296" class="st2" width="4.1" height="4"/>
							<rect x="-566.9" y="296" class="st2" width="4.1" height="4"/>
							<rect x="-548.9" y="296" class="st2" width="4.1" height="4"/>
							<rect x="-530.8" y="296" class="st2" width="4.1" height="4"/>
							<rect x="-512.9" y="296.1" class="st2" width="4.1" height="4"/>
							<rect x="-496.9" y="296.1" class="st2" width="4.1" height="4"/>
						</g>
						<g>
							<rect x="-711.8" y="314.4" class="st2" width="4.1" height="4"/>
							<rect x="-693.9" y="314.4" class="st2" width="4.1" height="4"/>
							<rect x="-676" y="314.4" class="st2" width="4.1" height="4"/>
							<rect x="-657.9" y="314.4" class="st2" width="4.1" height="4"/>
							<rect x="-638.8" y="314.5" class="st2" width="4.1" height="4"/>
							<rect x="-621" y="314.5" class="st2" width="4.1" height="4"/>
							<rect x="-602.8" y="314.5" class="st2" width="4.1" height="4"/>
							<rect x="-584.9" y="314.5" class="st2" width="4.1" height="4"/>
							<rect x="-566.9" y="314.5" class="st2" width="4.1" height="4"/>
							<rect x="-548.9" y="314.5" class="st2" width="4.1" height="4"/>
							<rect x="-530.8" y="314.5" class="st2" width="4.1" height="4"/>
							<rect x="-512.9" y="314.6" class="st2" width="4.1" height="4"/>
							<rect x="-496.9" y="314.6" class="st2" width="4.1" height="4"/>
						</g>
						<g>
							<rect x="-711.8" y="330.9" class="st2" width="4.1" height="4"/>
							<rect x="-693.9" y="330.9" class="st2" width="4.1" height="4"/>
							<rect x="-676" y="330.9" class="st2" width="4.1" height="4"/>
							<rect x="-657.9" y="330.9" class="st2" width="4.1" height="4"/>
							<rect x="-638.8" y="331" class="st2" width="4.1" height="4"/>
							<rect x="-621" y="331" class="st2" width="4.1" height="4"/>
							<rect x="-602.8" y="331" class="st2" width="4.1" height="4"/>
							<rect x="-584.9" y="331" class="st2" width="4.1" height="4"/>
							<rect x="-566.9" y="331" class="st2" width="4.1" height="4"/>
							<rect x="-548.9" y="331" class="st2" width="4.1" height="4"/>
							<rect x="-530.8" y="331" class="st2" width="4.1" height="4"/>
							<rect x="-512.9" y="331.1" class="st2" width="4.1" height="4"/>
							<rect x="-496.9" y="331.1" class="st2" width="4.1" height="4"/>
						</g>
						<g>
							<rect x="-711.8" y="258.9" class="st2" width="4.1" height="4"/>
							<rect x="-693.9" y="258.9" class="st2" width="4.1" height="4"/>
							<rect x="-676" y="258.9" class="st2" width="4.1" height="4"/>
							<rect x="-657.9" y="258.9" class="st2" width="4.1" height="4"/>
							<rect x="-638.8" y="259" class="st2" width="4.1" height="4"/>
							<rect x="-621" y="259" class="st2" width="4.1" height="4"/>
							<rect x="-602.8" y="259" class="st2" width="4.1" height="4"/>
							<rect x="-584.9" y="259" class="st2" width="4.1" height="4"/>
							<rect x="-566.9" y="259" class="st2" width="4.1" height="4"/>
							<rect x="-548.9" y="259" class="st2" width="4.1" height="4"/>
							<rect x="-530.8" y="259" class="st2" width="4.1" height="4"/>
							<rect x="-512.9" y="259.1" class="st2" width="4.1" height="4"/>
							<rect x="-496.9" y="259.1" class="st2" width="4.1" height="4"/>
						</g>
						<g>
							<rect x="-711.8" y="277.4" class="st2" width="4.1" height="4"/>
							<rect x="-693.9" y="277.4" class="st2" width="4.1" height="4"/>
							<rect x="-676" y="277.4" class="st2" width="4.1" height="4"/>
							<rect x="-657.9" y="277.4" class="st2" width="4.1" height="4"/>
							<rect x="-638.8" y="277.5" class="st2" width="4.1" height="4"/>
							<rect x="-621" y="277.5" class="st2" width="4.1" height="4"/>
							<rect x="-602.8" y="277.5" class="st2" width="4.1" height="4"/>
							<rect x="-584.9" y="277.5" class="st2" width="4.1" height="4"/>
							<rect x="-566.9" y="277.5" class="st2" width="4.1" height="4"/>
							<rect x="-548.9" y="277.5" class="st2" width="4.1" height="4"/>
							<rect x="-530.8" y="277.5" class="st2" width="4.1" height="4"/>
							<rect x="-512.9" y="277.6" class="st2" width="4.1" height="4"/>
							<rect x="-496.9" y="277.6" class="st2" width="4.1" height="4"/>
						</g>
						<g>
							<rect x="-711.8" y="221.9" class="st2" width="4.1" height="4"/>
							<rect x="-693.9" y="221.9" class="st2" width="4.1" height="4"/>
							<rect x="-676" y="221.9" class="st2" width="4.1" height="4"/>
							<rect x="-657.9" y="221.9" class="st2" width="4.1" height="4"/>
							<rect x="-638.8" y="222" class="st2" width="4.1" height="4"/>
							<rect x="-621" y="222" class="st2" width="4.1" height="4"/>
							<rect x="-602.8" y="222" class="st2" width="4.1" height="4"/>
							<rect x="-584.9" y="222" class="st2" width="4.1" height="4"/>
							<rect x="-566.9" y="222" class="st2" width="4.1" height="4"/>
							<rect x="-548.9" y="222" class="st2" width="4.1" height="4"/>
							<rect x="-530.8" y="222" class="st2" width="4.1" height="4"/>
							<rect x="-512.9" y="222.1" class="st2" width="4.1" height="4"/>
							<rect x="-496.9" y="222.1" class="st2" width="4.1" height="4"/>
						</g>
						<g>
							<rect x="-711.8" y="240.4" class="st2" width="4.1" height="4"/>
							<rect x="-693.9" y="240.4" class="st2" width="4.1" height="4"/>
							<rect x="-676" y="240.4" class="st2" width="4.1" height="4"/>
							<rect x="-657.9" y="240.4" class="st2" width="4.1" height="4"/>
							<rect x="-638.8" y="240.5" class="st2" width="4.1" height="4"/>
							<rect x="-621" y="240.5" class="st2" width="4.1" height="4"/>
							<rect x="-602.8" y="240.5" class="st2" width="4.1" height="4"/>
							<rect x="-584.9" y="240.5" class="st2" width="4.1" height="4"/>
							<rect x="-566.9" y="240.5" class="st2" width="4.1" height="4"/>
							<rect x="-548.9" y="240.5" class="st2" width="4.1" height="4"/>
							<rect x="-530.8" y="240.5" class="st2" width="4.1" height="4"/>
							<rect x="-512.9" y="240.6" class="st2" width="4.1" height="4"/>
							<rect x="-496.9" y="240.6" class="st2" width="4.1" height="4"/>
						</g>
						<g>
							<rect x="-711.8" y="184.9" class="st2" width="4.1" height="4"/>
							<rect x="-693.9" y="184.9" class="st2" width="4.1" height="4"/>
							<rect x="-676" y="184.9" class="st2" width="4.1" height="4"/>
							<rect x="-657.9" y="184.9" class="st2" width="4.1" height="4"/>
							<rect x="-638.8" y="185" class="st2" width="4.1" height="4"/>
							<rect x="-621" y="185" class="st2" width="4.1" height="4"/>
							<rect x="-602.8" y="185" class="st2" width="4.1" height="4"/>
							<rect x="-584.9" y="185" class="st2" width="4.1" height="4"/>
							<rect x="-566.9" y="185" class="st2" width="4.1" height="4"/>
							<rect x="-548.9" y="185" class="st2" width="4.1" height="4"/>
							<rect x="-530.8" y="185" class="st2" width="4.1" height="4"/>
							<rect x="-512.9" y="185.1" class="st2" width="4.1" height="4"/>
							<rect x="-496.9" y="185.1" class="st2" width="4.1" height="4"/>
						</g>
						<g>
							<rect x="-711.8" y="203.4" class="st2" width="4.1" height="4"/>
							<rect x="-693.9" y="203.4" class="st2" width="4.1" height="4"/>
							<rect x="-676" y="203.4" class="st2" width="4.1" height="4"/>
							<rect x="-657.9" y="203.4" class="st2" width="4.1" height="4"/>
							<rect x="-638.8" y="203.5" class="st2" width="4.1" height="4"/>
							<rect x="-621" y="203.5" class="st2" width="4.1" height="4"/>
							<rect x="-602.8" y="203.5" class="st2" width="4.1" height="4"/>
							<rect x="-584.9" y="203.5" class="st2" width="4.1" height="4"/>
							<rect x="-566.9" y="203.5" class="st2" width="4.1" height="4"/>
							<rect x="-548.9" y="203.5" class="st2" width="4.1" height="4"/>
							<rect x="-530.8" y="203.5" class="st2" width="4.1" height="4"/>
							<rect x="-512.9" y="203.6" class="st2" width="4.1" height="4"/>
							<rect x="-496.9" y="203.6" class="st2" width="4.1" height="4"/>
						</g>
						<g>
							<rect x="-711.8" y="147.9" class="st2" width="4.1" height="4"/>
							<rect x="-693.9" y="147.9" class="st2" width="4.1" height="4"/>
							<rect x="-676" y="147.9" class="st2" width="4.1" height="4"/>
							<rect x="-657.9" y="147.9" class="st2" width="4.1" height="4"/>
							<rect x="-638.8" y="148" class="st2" width="4.1" height="4"/>
							<rect x="-621" y="148" class="st2" width="4.1" height="4"/>
							<rect x="-602.8" y="148" class="st2" width="4.1" height="4"/>
							<rect x="-584.9" y="148" class="st2" width="4.1" height="4"/>
							<rect x="-566.9" y="148" class="st2" width="4.1" height="4"/>
							<rect x="-548.9" y="148" class="st2" width="4.1" height="4"/>
							<rect x="-530.8" y="148" class="st2" width="4.1" height="4"/>
							<rect x="-512.9" y="148.1" class="st2" width="4.1" height="4"/>
							<rect x="-496.9" y="148.1" class="st2" width="4.1" height="4"/>
						</g>
						<g>
							<rect x="-711.8" y="166.4" class="st2" width="4.1" height="4"/>
							<rect x="-693.9" y="166.4" class="st2" width="4.1" height="4"/>
							<rect x="-676" y="166.4" class="st2" width="4.1" height="4"/>
							<rect x="-657.9" y="166.4" class="st2" width="4.1" height="4"/>
							<rect x="-638.8" y="166.5" class="st2" width="4.1" height="4"/>
							<rect x="-621" y="166.5" class="st2" width="4.1" height="4"/>
							<rect x="-602.8" y="166.5" class="st2" width="4.1" height="4"/>
							<rect x="-584.9" y="166.5" class="st2" width="4.1" height="4"/>
							<rect x="-566.9" y="166.5" class="st2" width="4.1" height="4"/>
							<rect x="-548.9" y="166.5" class="st2" width="4.1" height="4"/>
							<rect x="-530.8" y="166.5" class="st2" width="4.1" height="4"/>
							<rect x="-512.9" y="166.6" class="st2" width="4.1" height="4"/>
							<rect x="-496.9" y="166.6" class="st2" width="4.1" height="4"/>
						</g>
						<g>
							<rect x="-711.8" y="110.9" class="st2" width="4.1" height="4"/>
							<rect x="-693.9" y="110.9" class="st2" width="4.1" height="4"/>
							<rect x="-676" y="110.9" class="st2" width="4.1" height="4"/>
							<rect x="-657.9" y="110.9" class="st2" width="4.1" height="4"/>
							<rect x="-638.8" y="111" class="st2" width="4.1" height="4"/>
							<rect x="-621" y="111" class="st2" width="4.1" height="4"/>
							<rect x="-602.8" y="111" class="st2" width="4.1" height="4"/>
							<rect x="-584.9" y="111" class="st2" width="4.1" height="4"/>
							<rect x="-566.9" y="111" class="st2" width="4.1" height="4"/>
							<rect x="-548.9" y="111" class="st2" width="4.1" height="4"/>
							<rect x="-530.8" y="111" class="st2" width="4.1" height="4"/>
							<rect x="-512.9" y="111.1" class="st2" width="4.1" height="4"/>
							<rect x="-496.9" y="111.1" class="st2" width="4.1" height="4"/>
						</g>
						<g>
							<rect x="-711.8" y="129.4" class="st2" width="4.1" height="4"/>
							<rect x="-693.9" y="129.4" class="st2" width="4.1" height="4"/>
							<rect x="-676" y="129.4" class="st2" width="4.1" height="4"/>
							<rect x="-657.9" y="129.4" class="st2" width="4.1" height="4"/>
							<rect x="-638.8" y="129.5" class="st2" width="4.1" height="4"/>
							<rect x="-621" y="129.5" class="st2" width="4.1" height="4"/>
							<rect x="-602.8" y="129.5" class="st2" width="4.1" height="4"/>
							<rect x="-584.9" y="129.5" class="st2" width="4.1" height="4"/>
							<rect x="-566.9" y="129.5" class="st2" width="4.1" height="4"/>
							<rect x="-548.9" y="129.5" class="st2" width="4.1" height="4"/>
							<rect x="-530.8" y="129.5" class="st2" width="4.1" height="4"/>
							<rect x="-512.9" y="129.6" class="st2" width="4.1" height="4"/>
							<rect x="-496.9" y="129.6" class="st2" width="4.1" height="4"/>
						</g>
					</g>
					<g class="st1">
						<g>
							<rect x="-478.9" y="295.9" class="st2" width="4.1" height="4"/>
							<rect x="-461" y="295.9" class="st2" width="4.1" height="4"/>
							<rect x="-443.1" y="295.9" class="st2" width="4.1" height="4"/>
							<rect x="-425" y="295.9" class="st2" width="4.1" height="4"/>
							<rect x="-405.9" y="296" class="st2" width="4.1" height="4"/>
							<rect x="-388.1" y="296" class="st2" width="4.1" height="4"/>
							<rect x="-369.9" y="296" class="st2" width="4.1" height="4"/>
							<rect x="-352" y="296" class="st2" width="4.1" height="4"/>
							<rect x="-334" y="296" class="st2" width="4.1" height="4"/>
							<rect x="-316" y="296" class="st2" width="4.1" height="4"/>
							<rect x="-297.9" y="296" class="st2" width="4.1" height="4"/>
							<rect x="-280" y="296.1" class="st2" width="4.1" height="4"/>
							<rect x="-264" y="296.1" class="st2" width="4.1" height="4"/>
						</g>
						<g>
							<rect x="-478.9" y="314.4" class="st2" width="4.1" height="4"/>
							<rect x="-461" y="314.4" class="st2" width="4.1" height="4"/>
							<rect x="-443.1" y="314.4" class="st2" width="4.1" height="4"/>
							<rect x="-425" y="314.4" class="st2" width="4.1" height="4"/>
							<rect x="-405.9" y="314.5" class="st2" width="4.1" height="4"/>
							<rect x="-388.1" y="314.5" class="st2" width="4.1" height="4"/>
							<rect x="-369.9" y="314.5" class="st2" width="4.1" height="4"/>
							<rect x="-352" y="314.5" class="st2" width="4.1" height="4"/>
							<rect x="-334" y="314.5" class="st2" width="4.1" height="4"/>
							<rect x="-316" y="314.5" class="st2" width="4.1" height="4"/>
							<rect x="-297.9" y="314.5" class="st2" width="4.1" height="4"/>
							<rect x="-280" y="314.6" class="st2" width="4.1" height="4"/>
							<rect x="-264" y="314.6" class="st2" width="4.1" height="4"/>
						</g>
						<g>
							<rect x="-478.9" y="330.9" class="st2" width="4.1" height="4"/>
							<rect x="-461" y="330.9" class="st2" width="4.1" height="4"/>
							<rect x="-443.1" y="330.9" class="st2" width="4.1" height="4"/>
							<rect x="-425" y="330.9" class="st2" width="4.1" height="4"/>
							<rect x="-405.9" y="331" class="st2" width="4.1" height="4"/>
							<rect x="-388.1" y="331" class="st2" width="4.1" height="4"/>
							<rect x="-369.9" y="331" class="st2" width="4.1" height="4"/>
							<rect x="-352" y="331" class="st2" width="4.1" height="4"/>
							<rect x="-334" y="331" class="st2" width="4.1" height="4"/>
							<rect x="-316" y="331" class="st2" width="4.1" height="4"/>
							<rect x="-297.9" y="331" class="st2" width="4.1" height="4"/>
							<rect x="-280" y="331.1" class="st2" width="4.1" height="4"/>
							<rect x="-264" y="331.1" class="st2" width="4.1" height="4"/>
						</g>
						<g>
							<rect x="-478.9" y="258.9" class="st2" width="4.1" height="4"/>
							<rect x="-461" y="258.9" class="st2" width="4.1" height="4"/>
							<rect x="-443.1" y="258.9" class="st2" width="4.1" height="4"/>
							<rect x="-425" y="258.9" class="st2" width="4.1" height="4"/>
							<rect x="-405.9" y="259" class="st2" width="4.1" height="4"/>
							<rect x="-388.1" y="259" class="st2" width="4.1" height="4"/>
							<rect x="-369.9" y="259" class="st2" width="4.1" height="4"/>
							<rect x="-352" y="259" class="st2" width="4.1" height="4"/>
							<rect x="-334" y="259" class="st2" width="4.1" height="4"/>
							<rect x="-316" y="259" class="st2" width="4.1" height="4"/>
							<rect x="-297.9" y="259" class="st2" width="4.1" height="4"/>
							<rect x="-280" y="259.1" class="st2" width="4.1" height="4"/>
							<rect x="-264" y="259.1" class="st2" width="4.1" height="4"/>
						</g>
						<g>
							<rect x="-478.9" y="277.4" class="st2" width="4.1" height="4"/>
							<rect x="-461" y="277.4" class="st2" width="4.1" height="4"/>
							<rect x="-443.1" y="277.4" class="st2" width="4.1" height="4"/>
							<rect x="-425" y="277.4" class="st2" width="4.1" height="4"/>
							<rect x="-405.9" y="277.5" class="st2" width="4.1" height="4"/>
							<rect x="-388.1" y="277.5" class="st2" width="4.1" height="4"/>
							<rect x="-369.9" y="277.5" class="st2" width="4.1" height="4"/>
							<rect x="-352" y="277.5" class="st2" width="4.1" height="4"/>
							<rect x="-334" y="277.5" class="st2" width="4.1" height="4"/>
							<rect x="-316" y="277.5" class="st2" width="4.1" height="4"/>
							<rect x="-297.9" y="277.5" class="st2" width="4.1" height="4"/>
							<rect x="-280" y="277.6" class="st2" width="4.1" height="4"/>
							<rect x="-264" y="277.6" class="st2" width="4.1" height="4"/>
						</g>
						<g>
							<rect x="-478.9" y="221.9" class="st2" width="4.1" height="4"/>
							<rect x="-461" y="221.9" class="st2" width="4.1" height="4"/>
							<rect x="-443.1" y="221.9" class="st2" width="4.1" height="4"/>
							<rect x="-425" y="221.9" class="st2" width="4.1" height="4"/>
							<rect x="-405.9" y="222" class="st2" width="4.1" height="4"/>
							<rect x="-388.1" y="222" class="st2" width="4.1" height="4"/>
							<rect x="-369.9" y="222" class="st2" width="4.1" height="4"/>
							<rect x="-352" y="222" class="st2" width="4.1" height="4"/>
							<rect x="-334" y="222" class="st2" width="4.1" height="4"/>
							<rect x="-316" y="222" class="st2" width="4.1" height="4"/>
							<rect x="-297.9" y="222" class="st2" width="4.1" height="4"/>
							<rect x="-280" y="222.1" class="st2" width="4.1" height="4"/>
							<rect x="-264" y="222.1" class="st2" width="4.1" height="4"/>
						</g>
						<g>
							<rect x="-478.9" y="240.4" class="st2" width="4.1" height="4"/>
							<rect x="-461" y="240.4" class="st2" width="4.1" height="4"/>
							<rect x="-443.1" y="240.4" class="st2" width="4.1" height="4"/>
							<rect x="-425" y="240.4" class="st2" width="4.1" height="4"/>
							<rect x="-405.9" y="240.5" class="st2" width="4.1" height="4"/>
							<rect x="-388.1" y="240.5" class="st2" width="4.1" height="4"/>
							<rect x="-369.9" y="240.5" class="st2" width="4.1" height="4"/>
							<rect x="-352" y="240.5" class="st2" width="4.1" height="4"/>
							<rect x="-334" y="240.5" class="st2" width="4.1" height="4"/>
							<rect x="-316" y="240.5" class="st2" width="4.1" height="4"/>
							<rect x="-297.9" y="240.5" class="st2" width="4.1" height="4"/>
							<rect x="-280" y="240.6" class="st2" width="4.1" height="4"/>
							<rect x="-264" y="240.6" class="st2" width="4.1" height="4"/>
						</g>
						<g>
							<rect x="-478.9" y="184.9" class="st2" width="4.1" height="4"/>
							<rect x="-461" y="184.9" class="st2" width="4.1" height="4"/>
							<rect x="-443.1" y="184.9" class="st2" width="4.1" height="4"/>
							<rect x="-425" y="184.9" class="st2" width="4.1" height="4"/>
							<rect x="-405.9" y="185" class="st2" width="4.1" height="4"/>
							<rect x="-388.1" y="185" class="st2" width="4.1" height="4"/>
							<rect x="-369.9" y="185" class="st2" width="4.1" height="4"/>
							<rect x="-352" y="185" class="st2" width="4.1" height="4"/>
							<rect x="-334" y="185" class="st2" width="4.1" height="4"/>
							<rect x="-316" y="185" class="st2" width="4.1" height="4"/>
							<rect x="-297.9" y="185" class="st2" width="4.1" height="4"/>
							<rect x="-280" y="185.1" class="st2" width="4.1" height="4"/>
							<rect x="-264" y="185.1" class="st2" width="4.1" height="4"/>
						</g>
						<g>
							<rect x="-478.9" y="203.4" class="st2" width="4.1" height="4"/>
							<rect x="-461" y="203.4" class="st2" width="4.1" height="4"/>
							<rect x="-443.1" y="203.4" class="st2" width="4.1" height="4"/>
							<rect x="-425" y="203.4" class="st2" width="4.1" height="4"/>
							<rect x="-405.9" y="203.5" class="st2" width="4.1" height="4"/>
							<rect x="-388.1" y="203.5" class="st2" width="4.1" height="4"/>
							<rect x="-369.9" y="203.5" class="st2" width="4.1" height="4"/>
							<rect x="-352" y="203.5" class="st2" width="4.1" height="4"/>
							<rect x="-334" y="203.5" class="st2" width="4.1" height="4"/>
							<rect x="-316" y="203.5" class="st2" width="4.1" height="4"/>
							<rect x="-297.9" y="203.5" class="st2" width="4.1" height="4"/>
							<rect x="-280" y="203.6" class="st2" width="4.1" height="4"/>
							<rect x="-264" y="203.6" class="st2" width="4.1" height="4"/>
						</g>
						<g>
							<rect x="-478.9" y="147.9" class="st2" width="4.1" height="4"/>
							<rect x="-461" y="147.9" class="st2" width="4.1" height="4"/>
							<rect x="-443.1" y="147.9" class="st2" width="4.1" height="4"/>
							<rect x="-425" y="147.9" class="st2" width="4.1" height="4"/>
							<rect x="-405.9" y="148" class="st2" width="4.1" height="4"/>
							<rect x="-388.1" y="148" class="st2" width="4.1" height="4"/>
							<rect x="-369.9" y="148" class="st2" width="4.1" height="4"/>
							<rect x="-352" y="148" class="st2" width="4.1" height="4"/>
							<rect x="-334" y="148" class="st2" width="4.1" height="4"/>
							<rect x="-316" y="148" class="st2" width="4.1" height="4"/>
							<rect x="-297.9" y="148" class="st2" width="4.1" height="4"/>
							<rect x="-280" y="148.1" class="st2" width="4.1" height="4"/>
							<rect x="-264" y="148.1" class="st2" width="4.1" height="4"/>
						</g>
						<g>
							<rect x="-478.9" y="166.4" class="st2" width="4.1" height="4"/>
							<rect x="-461" y="166.4" class="st2" width="4.1" height="4"/>
							<rect x="-443.1" y="166.4" class="st2" width="4.1" height="4"/>
							<rect x="-425" y="166.4" class="st2" width="4.1" height="4"/>
							<rect x="-405.9" y="166.5" class="st2" width="4.1" height="4"/>
							<rect x="-388.1" y="166.5" class="st2" width="4.1" height="4"/>
							<rect x="-369.9" y="166.5" class="st2" width="4.1" height="4"/>
							<rect x="-352" y="166.5" class="st2" width="4.1" height="4"/>
							<rect x="-334" y="166.5" class="st2" width="4.1" height="4"/>
							<rect x="-316" y="166.5" class="st2" width="4.1" height="4"/>
							<rect x="-297.9" y="166.5" class="st2" width="4.1" height="4"/>
							<rect x="-280" y="166.6" class="st2" width="4.1" height="4"/>
							<rect x="-264" y="166.6" class="st2" width="4.1" height="4"/>
						</g>
						<g>
							<rect x="-478.9" y="110.9" class="st2" width="4.1" height="4"/>
							<rect x="-461" y="110.9" class="st2" width="4.1" height="4"/>
							<rect x="-443.1" y="110.9" class="st2" width="4.1" height="4"/>
							<rect x="-425" y="110.9" class="st2" width="4.1" height="4"/>
							<rect x="-405.9" y="111" class="st2" width="4.1" height="4"/>
							<rect x="-388.1" y="111" class="st2" width="4.1" height="4"/>
							<rect x="-369.9" y="111" class="st2" width="4.1" height="4"/>
							<rect x="-352" y="111" class="st2" width="4.1" height="4"/>
							<rect x="-334" y="111" class="st2" width="4.1" height="4"/>
							<rect x="-316" y="111" class="st2" width="4.1" height="4"/>
							<rect x="-297.9" y="111" class="st2" width="4.1" height="4"/>
							<rect x="-280" y="111.1" class="st2" width="4.1" height="4"/>
							<rect x="-264" y="111.1" class="st2" width="4.1" height="4"/>
						</g>
						<g>
							<rect x="-478.9" y="129.4" class="st2" width="4.1" height="4"/>
							<rect x="-461" y="129.4" class="st2" width="4.1" height="4"/>
							<rect x="-443.1" y="129.4" class="st2" width="4.1" height="4"/>
							<rect x="-425" y="129.4" class="st2" width="4.1" height="4"/>
							<rect x="-405.9" y="129.5" class="st2" width="4.1" height="4"/>
							<rect x="-388.1" y="129.5" class="st2" width="4.1" height="4"/>
							<rect x="-369.9" y="129.5" class="st2" width="4.1" height="4"/>
							<rect x="-352" y="129.5" class="st2" width="4.1" height="4"/>
							<rect x="-334" y="129.5" class="st2" width="4.1" height="4"/>
							<rect x="-316" y="129.5" class="st2" width="4.1" height="4"/>
							<rect x="-297.9" y="129.5" class="st2" width="4.1" height="4"/>
							<rect x="-280" y="129.6" class="st2" width="4.1" height="4"/>
							<rect x="-264" y="129.6" class="st2" width="4.1" height="4"/>
						</g>
					</g>
				</g>
			</g>
		</g>
	</g>
</g>
<g class="st1">
	<g>
		<g>
			<g>
				<g>
					<g>
						<path class="st3" d="M146.6,226.7l0.1,2.8c-18.5,0.6-37.1-5.4-51.9-16.5l-2.2,3c22,16.7,52,21.7,78.3,13.3l-3.1-9.8
							c-23.1,7.5-49.6,3.1-69-11.7l-2.2,3C110.8,221.5,128.8,227.3,146.6,226.7z"/>
						<path class="st3" d="M113.7,72.8l-1.1-2.6c17.1-7.1,36.5-8.4,54.4-3.3l1-3.6c-26.5-7.6-56.4-1.6-77.7,15.9l6.5,8
							c18.8-15.4,45.2-20.7,68.5-14l1-3.6C149,64.7,130.2,65.9,113.7,72.8z"/>
						<path class="st3" d="M77.3,182.9c3.1,5.7,6.8,11,11.2,15.7l-17,15.7c-5.7-6.1-10.6-13-14.6-20.4L77.3,182.9z"/>
						<path class="st3" d="M45.5,155.7l23.1-2.1c0.5,6.4,2,12.8,4.1,18.8l-21.8,7.8C48.1,172.3,46.2,164,45.5,155.7z M54,162.5
							c0.4,2.7,1.1,5.3,1.7,8l7.8-2.1c-0.6-2.4-1.2-4.8-1.6-7.3L54,162.5z"/>
						<path class="st3" d="M69.5,81.4L87,96.6c-4.3,4.8-7.9,10.2-10.7,16l-20.7-10.4C59.3,94.7,64,87.7,69.5,81.4z M70.5,92.2
							c-1.6,2.2-3.1,4.4-4.5,6.8l6.9,4.2c1.3-2.1,2.7-4.2,4.1-6.2L70.5,92.2z"/>
						<path class="st3" d="M71.9,123.2c-2,6.1-3.1,12.5-3.6,18.9l-23.1-1.4c0.5-8.4,2-16.7,4.6-24.7L71.9,123.2z"/>
						<path class="st3" d="M181.8,80.1c-2-1.1-4-2.1-6.1-3l15.1-33.7c3.1,1.4,6.1,2.9,9,4.5L181.8,80.1z"/>
						<path class="st3" d="M194,88.6c-1.7-1.5-3.5-2.9-5.3-4.2l6-8.5c2.1,1.5,4.1,3.1,6.1,4.7L194,88.6z"/>
						<path class="st3" d="M204.4,99.3c-1.4-1.8-2.9-3.5-4.4-5.1l19-18c2.1,2.2,4.1,4.5,6,6.9L204.4,99.3z"/>
						<path class="st3" d="M212.4,111.8c-1-2-2.2-4-3.4-5.9l31.2-19.8c1.8,2.8,3.5,5.7,5,8.7L212.4,111.8z"/>
						<path class="st3" d="M217.9,125.6c-0.6-2.2-1.3-4.3-2.2-6.4l9.7-3.7c0.9,2.4,1.8,4.8,2.5,7.3L217.9,125.6z"/>
						<path class="st3" d="M220.6,140.2c-0.2-2.2-0.5-4.5-0.9-6.7l25.8-4.5c0.5,3,0.9,6,1.2,9L220.6,140.2z"/>
						<path class="st3" d="M220.4,155.7c0.3-2.2,0.5-4.5,0.5-6.8l36.9,1.1c-0.1,3.3-0.3,6.7-0.7,10L220.4,155.7z"/>
						<path class="st3" d="M217.2,170.2c0.7-2.2,1.3-4.3,1.8-6.5l10.1,2.3c-0.5,2.5-1.3,5-2,7.4L217.2,170.2z"/>
						<path class="st3" d="M211.2,183.9c1.1-2,2.1-4,3-6.1l23.9,10.7c-1.2,2.8-2.6,5.5-4.1,8.1L211.2,183.9z"/>
						<path class="st3" d="M202.7,196.1c1.5-1.7,2.9-3.5,4.2-5.4l30.2,21.3c-1.9,2.7-4,5.4-6.2,7.9L202.7,196.1z"/>
						<path class="st3" d="M192.1,206.4c1.8-1.4,3.5-2.9,5.1-4.4l7.2,7.5c-1.8,1.8-3.8,3.5-5.8,5L192.1,206.4z"/>
						<path class="st3" d="M179.6,214.5c2-1,4-2.2,5.9-3.4l14.1,22.1c-2.6,1.6-5.2,3.2-7.9,4.5L179.6,214.5z"/>
						<path class="st3" d="M101.4,172.9l9.5-5.8c9,15.4,28.8,22.7,45.7,17.1l3.4,10.6C138.3,202,112.9,192.6,101.4,172.9z
							 M117.5,185.2c6.6,4.7,14.2,7.5,22.2,8.4l0.4-4.2c-7.3-0.8-14.2-3.3-20.2-7.6L117.5,185.2z"/>
						<path class="st3" d="M105.6,140.7c-0.4,2.8-0.5,5.7-0.3,8.6l-11.1,0.7c-0.2-3.7-0.1-7.4,0.4-11L105.6,140.7z"/>
						<path class="st3" d="M110.6,126.7c-1.4,2.5-2.6,5.1-3.5,7.8L96.6,131c1.1-3.5,2.7-6.8,4.5-10L110.6,126.7z"/>
						<path class="st3" d="M129.3,110.4c-2.6,1.1-5.1,2.5-7.4,4.2l-6.4-9c3-2.1,6.2-3.9,9.6-5.4L129.3,110.4z"/>
						<path class="st3" d="M143.4,107.3c-0.8,0-1.5,0.1-2.3,0.1l-0.9-11c1-0.1,2-0.2,2.9-0.2L143.4,107.3z"/>
						<path class="st3" d="M148.5,107.5c-0.8,0-1.5-0.1-2.3-0.1l0.5-11.1c1,0,2,0.1,2.9,0.2L148.5,107.5z"/>
						<path class="st3" d="M153.5,108.3c-0.7-0.2-1.5-0.3-2.2-0.4l1.9-10.9c1,0.2,1.9,0.3,2.9,0.6L153.5,108.3z"/>
						<path class="st3" d="M194.1,136.9l-4.3,0.9c-1.8-9.1-6.5-17.7-13.3-24.2l3.1-3.2c-2.4-2.3-5-4.3-7.8-6.1l-6,9.3
							c11.2,7.1,18.3,19.9,18.2,33.2H195C195,143.4,194.7,140.1,194.1,136.9z"/>
						<path class="st3" d="M179.5,183.1l-3.1-3.2c6.8-6.5,11.5-15.1,13.3-24.2l4.3,0.9c0.6-3.2,1-6.5,1-9.8H184
							c0.1,13.3-6.9,26-18.2,33.2l6,9.3C174.6,187.4,177.2,185.4,179.5,183.1z"/>
					</g>
				</g>
				<g>
					<g>
						<path class="st3" d="M89.8,138.6c-4.9,30.1,15.6,58.6,45.8,63.5c30.1,4.9,58.6-15.6,63.5-45.8c4.9-30.1-15.6-58.6-45.8-63.5
							C123.2,88,94.7,108.5,89.8,138.6z M135.6,201.9c-30-4.9-50.4-33.2-45.5-63.2c4.9-30,33.2-50.4,63.2-45.5
							c30,4.9,50.4,33.2,45.5,63.2C194,186.4,165.6,206.8,135.6,201.9z"/>
					</g>
					<g>
						<g>
							<path class="st3" d="M175.7,173.5c-5.8,7-13.8,11.8-22.5,13.7l-0.1,0l9.1,41.1l0.1,0c17.8-3.9,34-13.8,45.7-27.8l0.1-0.1
								l-32.3-27L175.7,173.5z M175.8,173.8c0.2,0.2,31.7,26.4,31.9,26.6c-11.6,13.9-27.7,23.7-45.3,27.6c-0.1-0.3-8.9-40.3-9-40.6
								C162.1,185.6,170,180.7,175.8,173.8z"/>
						</g>
						<g>
							<path class="st3" d="M179.6,158.3c-2,6.5-5.8,12.4-11,16.9l-0.1,0.1l23.4,26.9l0.1-0.1c10.1-8.8,17.8-20.6,21.6-33.4l0-0.1
								l-34.1-10.4L179.6,158.3z M179.8,158.5c0.2,0.1,33.3,10.2,33.6,10.2c-3.9,12.6-11.4,24.3-21.4,33c-0.2-0.2-22.9-26.3-23-26.5
								C174,170.8,177.8,165,179.8,158.5z"/>
						</g>
						<g>
							<path class="st3" d="M165.4,165.6c-1.7,2-3.7,3.7-5.9,5.2l-0.1,0.1l10,15.4l0.1-0.1c3.7-2.4,7-5.3,9.8-8.6l0.1-0.1l-13.9-12
								L165.4,165.6z M165.6,165.9c0.2,0.2,13.3,11.5,13.5,11.6c-2.8,3.2-6,6-9.6,8.4c-0.1-0.2-9.5-14.7-9.7-14.9
								C161.9,169.5,163.9,167.8,165.6,165.9z"/>
						</g>
						<g>
							<path class="st3" d="M129.1,216.9l0.1,0c6.8,1.5,13.5,2,20.1,1.5l0.1,0l-1.2-18.3l-0.1,0c-4.8,0.3-9.8,0-14.9-1.1l-0.1,0
								L129.1,216.9z M133.2,199.3c5,1.1,10,1.4,14.7,1.1c0,0.3,1.2,17.5,1.2,17.8c-6.4,0.4-13-0.1-19.7-1.5
								C129.4,216.4,133.1,199.5,133.2,199.3z"/>
						</g>
						<g>
							<path class="st3" d="M188,154.6c-0.7,4.3-2,8.3-3.7,11.9l-0.1,0.1l16.6,7.9l0.1-0.1c2.5-5.2,4.3-10.9,5.3-16.9l0-0.1
								l-18.1-2.9L188,154.6z M188.2,154.8c0.3,0,17.3,2.8,17.6,2.9c-1,5.9-2.8,11.5-5.2,16.6c-0.2-0.1-15.8-7.6-16.1-7.7
								C186.2,163,187.5,159,188.2,154.8z"/>
						</g>
						<g>
							<path class="st3" d="M156.8,176.1c-4.5,2-9.6,2.8-14.6,2.5l-0.1,0l-2.3,30.8l0.1,0c10,0.8,20.1-0.9,29.2-4.9l0.1-0.1
								L156.9,176L156.8,176.1z M156.7,176.4c0.1,0.2,12,27.6,12.1,27.9c-9,3.9-19,5.6-28.8,4.8c0-0.3,2.3-30,2.3-30.3
								C147.2,179.2,152.2,178.3,156.7,176.4z"/>
						</g>
						<g>
							<path class="st3" d="M63.8,166.3l0,0.1c4.2,17.8,14.3,33.9,28.4,45.3l0.1,0.1l26.6-32.7l-0.1-0.1c-7-5.6-11.9-13.5-14-22.3
								l0-0.1L63.8,166.3z M104.6,157c2.1,8.7,7,16.6,13.9,22.2c-0.2,0.2-26.1,32-26.2,32.2c-14-11.4-24-27.3-28.2-45
								C64.4,166.4,104.4,157.1,104.6,157z"/>
						</g>
						<g>
							<path class="st3" d="M90.4,195.6l0.1,0.1c8.9,10,20.8,17.5,33.6,21.2l0.1,0l10-34.2l-0.1,0c-6.6-1.9-12.5-5.6-17-10.8
								l-0.1-0.1L90.4,195.6z M117,172.3c4.5,5.1,10.4,8.8,16.9,10.7c-0.1,0.2-9.7,33.4-9.8,33.7c-12.7-3.7-24.5-11.1-33.3-21
								C91,195.5,116.8,172.5,117,172.3z"/>
						</g>
						<g>
							<path class="st3" d="M106.1,172.9l0.1,0.1c2.4,3.6,5.3,6.9,8.7,9.7l0.1,0.1l11.8-14l-0.1-0.1c-2-1.7-3.8-3.7-5.2-5.9
								l-0.1-0.1L106.1,172.9z M121.3,163.1c1.4,2.1,3.1,4,5.1,5.7c-0.2,0.2-11.3,13.4-11.5,13.6c-3.3-2.8-6.1-6-8.5-9.5
								C106.7,172.8,121,163.3,121.3,163.1z"/>
						</g>
						<g>
							<path class="st3" d="M74.9,133.1c-1.4,6.7-1.8,13.4-1.3,20.1l0,0.1l18.3-1.5l0-0.1c-0.4-4.9-0.1-9.9,0.9-14.9l0-0.1l-18-3.7
								L74.9,133.1z M73.7,147.6c0-4.8,0.5-9.5,1.5-14.3c0.3,0.1,17.2,3.5,17.4,3.6c-0.7,3.6-1.1,7.1-1.1,10.7c0,1.3,0.1,2.7,0.2,4
								c-0.3,0-17.5,1.4-17.7,1.4C73.8,151.2,73.7,149.4,73.7,147.6z"/>
						</g>
						<g>
							<path class="st3" d="M118.1,204.1l0.1,0.1c5.3,2.5,11,4.2,17,5.1l0.1,0l2.7-18.1l-0.1,0c-4.3-0.6-8.3-1.9-12-3.6l-0.1-0.1
								L118.1,204.1z M125.9,187.8c3.6,1.7,7.6,2.9,11.8,3.5c0,0.3-2.6,17.3-2.6,17.6c-5.9-0.9-11.5-2.6-16.6-5
								C118.6,203.8,125.8,188.1,125.9,187.8z"/>
						</g>
						<g>
							<path class="st3" d="M82.6,143.7c-0.6,10,1.2,20.1,5.3,29.1l0.1,0.1l28.2-12.6l-0.1-0.1c-2-4.5-2.9-9.5-2.6-14.6l0-0.1
								l-30.8-2L82.6,143.7z M82.7,147.5c0-1.2,0-2.5,0.1-3.7c0.3,0,30,1.9,30.3,1.9c0,0.6-0.1,1.2-0.1,1.8c0,4.4,0.9,8.7,2.7,12.7
								c-0.2,0.1-27.5,12.3-27.7,12.4C84.6,164.8,82.7,156.2,82.7,147.5z"/>
						</g>
						<g>
							<path class="st3" d="M123.1,67.6c-17.6,4.7-33.4,15.2-44.4,29.8l-0.1,0.1L112,123l0.1-0.1c5.5-7.2,13.2-12.4,21.9-14.6l0.1,0
								l-10.9-40.7L123.1,67.6z M123,67.9c0.1,0.3,10.7,39.9,10.8,40.1c-8.6,2.3-16.3,7.5-21.8,14.6c-0.2-0.2-32.8-25.1-33-25.2
								C90,83,105.6,72.5,123,67.9z"/>
						</g>
						<g>
							<path class="st3" d="M94.6,95.1c-9.7,9.2-16.9,21.3-20.2,34.3l0,0.1l34.5,8.9l0-0.1c1.7-6.6,5.3-12.6,10.2-17.4l0.1-0.1
								L94.6,95.1L94.6,95.1z M94.7,95.4c0.2,0.2,24,25.3,24.2,25.4c-4.9,4.7-8.4,10.7-10.2,17.3c-0.3-0.1-33.7-8.7-34-8.8
								C78,116.5,85.1,104.5,94.7,95.4z"/>
						</g>
						<g>
							<path class="st3" d="M117.8,110c-3.6,2.6-6.8,5.6-9.5,9l-0.1,0.1l14.4,11.4l0.1-0.1c1.6-2,3.5-3.9,5.7-5.4l0.1-0.1
								l-10.6-14.9L117.8,110z M117.8,110.3c0.2,0.2,10.2,14.3,10.3,14.5c-2.1,1.5-4,3.3-5.6,5.3c-0.2-0.2-13.7-10.9-14-11
								C111.2,115.8,114.3,112.8,117.8,110.3z"/>
						</g>
						<g>
							<path class="st3" d="M136.6,76.9l-0.1,0l2,18.2l0.1,0c4.9-0.6,9.9-0.4,14.9,0.5l0.1,0l3.2-18.1l-0.1,0
								C150,76.4,143.2,76.2,136.6,76.9z M156.5,77.8c0,0.3-3,17.3-3.1,17.5c-5-0.9-9.9-1-14.7-0.5c0-0.3-1.9-17.4-2-17.7
								C143.2,76.5,149.9,76.7,156.5,77.8z"/>
						</g>
						<g>
							<path class="st3" d="M87,123.1c-2.3,5.4-3.8,11.1-4.5,17.1l0,0.1l18.2,2.2l0-0.1c0.5-4.2,1.6-8.3,3.2-12.1l0.1-0.1L87.1,123
								L87,123.1z M87.2,123.3c0.2,0.1,16.1,6.9,16.4,7c-1.6,3.7-2.6,7.7-3.2,11.9c-0.3,0-17.4-2.1-17.7-2.1
								C83.5,134.2,85,128.6,87.2,123.3z"/>
						</g>
						<g>
							<path class="st3" d="M117.4,91.7l-0.1,0.1l13.5,27.8l0.1-0.1c4.5-2.2,9.5-3.3,14.5-3.1l0.1,0l1-30.9l-0.1,0
								C136.5,85.2,126.5,87.4,117.4,91.7z M146.3,85.8c0,0.3-1,30.1-1,30.4c-4.9-0.2-9.8,0.9-14.3,3.1
								c-0.1-0.2-13.1-27.1-13.3-27.3C126.6,87.6,136.5,85.5,146.3,85.8z"/>
						</g>
						<g>
							<path class="st3" d="M168.6,114.8l0.1,0.1c7.2,5.3,12.5,13,14.9,21.7l0,0.1l40.5-11.4l0-0.1c-4.9-17.6-15.7-33.2-30.3-44.1
								l-0.1-0.1L168.6,114.8z M193.8,81.4c14.5,10.8,25.2,26.3,30.1,43.7c-0.3,0.1-39.8,11.2-40,11.3c-2.4-8.6-7.7-16.3-14.9-21.6
								C169.1,114.5,193.6,81.6,193.8,81.4z"/>
						</g>
						<g>
							<path class="st3" d="M153.1,111.9l0.1,0c6.7,1.6,12.7,5.1,17.5,10l0.1,0.1l25.5-24.8l-0.1-0.1c-9.3-9.6-21.5-16.6-34.5-19.7
								l-0.1,0L153.1,111.9z M161.8,77.6c12.9,3.2,25,10.1,34.2,19.5c-0.2,0.2-25,24.3-25.1,24.5c-4.7-4.9-10.7-8.3-17.4-9.9
								C153.5,111.4,161.7,77.8,161.8,77.6z"/>
						</g>
						<g>
							<path class="st3" d="M161.2,125.5l0.1,0.1c2.1,1.6,3.9,3.5,5.5,5.6l0.1,0.1l14.8-10.8l-0.1-0.1c-2.6-3.5-5.6-6.7-9.1-9.4
								l-0.1-0.1L161.2,125.5z M172.5,111.3c3.4,2.6,6.4,5.7,8.9,9.1c-0.2,0.2-14.2,10.3-14.4,10.5c-1.5-2-3.3-3.9-5.4-5.5
								C161.8,125.2,172.3,111.6,172.5,111.3z"/>
						</g>
						<g>
							<path class="st3" d="M196.7,140.9l0,0.1c0.6,4.8,0.5,9.8-0.3,14.9l0,0.1l18.1,2.9l0-0.1c1.1-6.8,1.2-13.6,0.4-20.1l0-0.1
								L196.7,140.9z M214.7,139c0.3,2.8,0.5,5.6,0.5,8.4c0,3.7-0.3,7.5-0.9,11.4c-0.3,0-17.3-2.8-17.6-2.9c0.4-2.9,0.7-5.7,0.7-8.5
								c0-2.1-0.1-4.2-0.4-6.2C197.3,141.1,214.4,139,214.7,139z"/>
						</g>
						<g>
							<path class="st3" d="M149,103.7l0.1,0c4.4,0.5,8.5,1.5,12.1,3.1l0.1,0.1l7-17l-0.1-0.1c-5.3-2.2-11-3.7-17.1-4.3l-0.1,0
								L149,103.7z M151.1,85.7c6,0.7,11.6,2.1,16.8,4.3c-0.1,0.2-6.7,16.2-6.8,16.5c-3.6-1.5-7.6-2.5-11.9-3
								C149.3,103.2,151.1,86,151.1,85.7z"/>
						</g>
						<g>
							<path class="st3" d="M172.2,133.5l0.1,0.1c2.2,4.4,3.4,9.4,3.3,14.4l0,0.1l30.9,0.6l0-0.1c0.2-10-2-20-6.5-28.9l-0.1-0.1
								L172.2,133.5z M199.7,120.1c4.2,8.5,6.5,17.9,6.5,27.4c0,0.4,0,0.8,0,1.1c-0.3,0-30.1-0.6-30.4-0.6c0-0.2,0-0.3,0-0.5
								c0-4.8-1.1-9.6-3.2-13.8C172.8,133.5,199.5,120.2,199.7,120.1z"/>
						</g>
					</g>
				</g>
				<g>
					<g>
						<path class="st3" d="M144.1,168.6l0,0.7c4.7,0.1,9.4-1.4,13.1-4.2l0.6,0.8c-5.6,4.2-13.2,5.5-19.8,3.4l0.8-2.5
							c5.8,1.9,12.6,0.8,17.5-3l0.6,0.8C153.2,167.3,148.6,168.8,144.1,168.6z"/>
						<path class="st3" d="M152.4,129.7l0.3-0.7c-4.3-1.8-9.2-2.1-13.8-0.8l-0.3-0.9c6.7-1.9,14.3-0.4,19.7,4l-1.6,2
							c-4.8-3.9-11.4-5.2-17.3-3.6l-0.3-0.9C143.5,127.6,148.3,127.9,152.4,129.7z"/>
						<path class="st3" d="M161.6,157.5c-0.8,1.4-1.7,2.8-2.8,4l4.3,4c1.4-1.6,2.7-3.3,3.7-5.2L161.6,157.5z"/>
						<path class="st3" d="M168.3,156.9l-5.5-2c0.5-1.5,0.9-3.1,1-4.8l5.8,0.5C169.5,152.8,169,154.9,168.3,156.9z M165.5,152
							c-0.1,0.6-0.2,1.2-0.4,1.8l2,0.5c0.2-0.7,0.3-1.3,0.4-2L165.5,152z"/>
						<path class="st3" d="M167.2,137.1l-5.2,2.6c-0.7-1.5-1.6-2.8-2.7-4.1l4.4-3.8C165,133.4,166.2,135.2,167.2,137.1z
							 M161.7,135.8c0.4,0.5,0.7,1,1,1.6l1.8-1.1c-0.4-0.6-0.7-1.2-1.1-1.7L161.7,135.8z"/>
						<path class="st3" d="M163,142.4c0.5,1.5,0.8,3.2,0.9,4.8l5.9-0.3c-0.1-2.1-0.5-4.2-1.2-6.3L163,142.4z"/>
						<path class="st3" d="M135.2,131.5c0.5-0.3,1-0.5,1.5-0.8l-3.8-8.5c-0.8,0.3-1.5,0.7-2.3,1.1L135.2,131.5z"/>
						<path class="st3" d="M132.1,133.7c0.4-0.4,0.9-0.7,1.4-1.1l-1.5-2.1c-0.5,0.4-1,0.8-1.5,1.2L132.1,133.7z"/>
						<path class="st3" d="M129.5,136.4c0.4-0.4,0.7-0.9,1.1-1.3l-4.8-4.6c-0.5,0.6-1,1.1-1.5,1.7L129.5,136.4z"/>
						<path class="st3" d="M127.4,139.5c0.3-0.5,0.5-1,0.9-1.5l-7.9-5c-0.5,0.7-0.9,1.4-1.3,2.2L127.4,139.5z"/>
						<path class="st3" d="M126.1,143c0.2-0.6,0.3-1.1,0.5-1.6l-2.5-0.9c-0.2,0.6-0.4,1.2-0.6,1.8L126.1,143z"/>
						<path class="st3" d="M125.4,146.7c0-0.6,0.1-1.1,0.2-1.7l-6.5-1.1c-0.1,0.8-0.2,1.5-0.3,2.3L125.4,146.7z"/>
						<path class="st3" d="M125.4,150.7c-0.1-0.6-0.1-1.1-0.1-1.7l-9.3,0.3c0,0.8,0.1,1.7,0.2,2.5L125.4,150.7z"/>
						<path class="st3" d="M126.2,154.3c-0.2-0.5-0.3-1.1-0.5-1.7l-2.6,0.6c0.1,0.6,0.3,1.3,0.5,1.9L126.2,154.3z"/>
						<path class="st3" d="M127.8,157.8c-0.3-0.5-0.5-1-0.8-1.5l-6.1,2.7c0.3,0.7,0.7,1.4,1,2.1L127.8,157.8z"/>
						<path class="st3" d="M129.9,160.9c-0.4-0.4-0.7-0.9-1-1.4l-7.6,5.4c0.5,0.7,1,1.4,1.6,2L129.9,160.9z"/>
						<path class="st3" d="M132.6,163.5c-0.4-0.4-0.9-0.7-1.3-1.1l-1.8,1.9c0.5,0.5,1,0.9,1.5,1.3L132.6,163.5z"/>
						<path class="st3" d="M135.8,165.5c-0.5-0.3-1-0.5-1.5-0.9l-3.6,5.6c0.6,0.4,1.3,0.8,2,1.1L135.8,165.5z"/>
						<path class="st3" d="M140.7,160.6l0.9-2.7c4.3,1.4,9.3-0.4,11.6-4.3l2.4,1.5C152.6,160,146.2,162.4,140.7,160.6z M150.9,157.2
							c-1.5,1.1-3.3,1.7-5.1,1.9l0.1,1.1c2-0.2,4-0.9,5.6-2.1L150.9,157.2z"/>
						<path class="st3" d="M154.5,146.9c0.1,0.7,0.1,1.5,0.1,2.2l2.8,0.2c0.1-0.9,0-1.9-0.1-2.8L154.5,146.9z"/>
						<path class="st3" d="M153.2,143.3c0.4,0.6,0.7,1.3,0.9,2l2.7-0.9c-0.3-0.9-0.7-1.7-1.1-2.5L153.2,143.3z"/>
						<path class="st3" d="M148.5,139.2c0.7,0.3,1.3,0.6,1.9,1.1l1.6-2.3c-0.8-0.5-1.6-1-2.4-1.4L148.5,139.2z"/>
						<path class="st3" d="M144.9,138.4c0.2,0,0.4,0,0.6,0l0.2-2.8c-0.2,0-0.5,0-0.7,0L144.9,138.4z"/>
						<path class="st3" d="M143.6,138.5c0.2,0,0.4,0,0.6,0l-0.1-2.8c-0.2,0-0.5,0-0.7,0L143.6,138.5z"/>
						<path class="st3" d="M142.4,138.7c0.2,0,0.4-0.1,0.6-0.1l-0.5-2.8c-0.2,0-0.5,0.1-0.7,0.1L142.4,138.7z"/>
						<path class="st3" d="M132.1,145.9l1.1,0.2c0.4-2.3,1.6-4.5,3.4-6.1l-0.8-0.8c0.6-0.6,1.3-1.1,2-1.6l1.5,2.4
							c-2.8,1.8-4.6,5-4.6,8.4h-2.8C131.9,147.5,131.9,146.7,132.1,145.9z"/>
						<path class="st3" d="M135.8,157.6l0.8-0.8c-1.7-1.6-2.9-3.8-3.4-6.1l-1.1,0.2c-0.2-0.8-0.2-1.6-0.2-2.5h2.8
							c0,3.4,1.8,6.6,4.6,8.4l-1.5,2.4C137,158.7,136.4,158.2,135.8,157.6z"/>
					</g>
				</g>
				<g>
					<g>
						<path class="st3" d="M63.9,128c-10.7,44.6,16.9,89.5,61.4,100.2c44.6,10.7,89.5-16.9,100.2-61.4
							c10.7-44.6-16.9-89.5-61.4-100.2C119.6,55.9,74.6,83.4,63.9,128z M125.4,227.8c-44.3-10.6-71.8-55.4-61.1-99.7
							C75,83.7,119.7,56.3,164,67c44.3,10.6,71.8,55.4,61.1,99.7C214.5,211,169.8,238.4,125.4,227.8z"/>
					</g>
					<g>
						<g>
							<path class="st3" d="M188.6,189.8c-9.4,9.8-21.9,16.1-35.2,18l-0.2,0l9.1,62.5l0.2,0c27-3.8,52.4-16.8,71.5-36.6l0.1-0.1
								l-45.4-44L188.6,189.8z M188.8,190.2c0.3,0.3,44.5,43.1,44.8,43.4c-19,19.6-44.1,32.4-70.9,36.3c-0.1-0.4-8.9-61.3-8.9-61.7
								C166.9,206.3,179.3,199.9,188.8,190.2z"/>
						</g>
						<g>
							<path class="st3" d="M196.1,167.4c-3.7,9.6-10,17.9-18.3,24.1l-0.2,0.1l32,42.8l0.2-0.1c16.1-12,28.9-28.9,36.1-47.5l0.1-0.2
								l-49.8-19.4L196.1,167.4z M196.4,167.7c0.4,0.1,48.7,18.9,49.1,19.1c-7.2,18.5-19.9,35.2-35.7,47
								c-0.2-0.3-31.3-41.9-31.5-42.2C186.4,185.5,192.6,177.3,196.4,167.7z"/>
						</g>
						<g>
							<path class="st3" d="M174.1,176.8c-2.8,2.8-6,5.1-9.5,7.1l-0.2,0.1l13.2,24.1l0.2-0.1c5.8-3.2,11.1-7.2,15.7-11.7l0.1-0.1
								l-19.4-19.5L174.1,176.8z M174.3,177.2c0.3,0.3,18.6,18.6,18.9,18.9c-4.5,4.5-9.6,8.3-15.3,11.4
								c-0.2-0.4-12.6-23.1-12.8-23.4C168.4,182.2,171.6,179.9,174.3,177.2z"/>
						</g>
						<g>
							<path class="st3" d="M113.9,249.4l0.2,0.1c10,2.9,20.1,4.4,29.8,4.5h0.2l0.2-27.5l-0.2,0c-7.2,0-14.6-1.1-22.2-3.3l-0.2-0.1
								L113.9,249.4z M122.1,223.6c7.4,2.1,14.8,3.3,21.9,3.3c0,0.4-0.2,26.3-0.2,26.7c-9.6-0.1-19.5-1.5-29.3-4.4
								C114.6,248.8,122,223.9,122.1,223.6z"/>
						</g>
						<g>
							<path class="st3" d="M209.1,162.8c-1.6,6.4-3.9,12.2-6.9,17.4l-0.1,0.2l23.9,13.7l0.1-0.2c4.3-7.5,7.6-15.8,9.8-24.7l0-0.2
								l-26.8-6.4L209.1,162.8z M209.4,163.1c0.4,0.1,25.6,6.1,26,6.2c-2.2,8.7-5.4,16.9-9.6,24.2c-0.3-0.2-22.9-13.1-23.2-13.3
								C205.5,175.1,207.8,169.4,209.4,163.1z"/>
						</g>
						<g>
							<path class="st3" d="M160,191.5c-7,2.5-14.7,3.2-22.1,2l-0.2,0l-6.9,45.9l0.2,0c14.9,2.3,30.2,0.9,44.3-4.1l0.2-0.1
								l-15.2-43.8L160,191.5z M159.9,191.9c0.1,0.4,14.8,42.7,15,43.1c-13.9,4.9-29,6.2-43.7,4c0.1-0.4,6.8-44.7,6.8-45.1
								C145.4,195,152.9,194.3,159.9,191.9z"/>
						</g>
						<g>
							<path class="st3" d="M22,166.5l0,0.2c4.2,27.1,17.5,52.3,37.5,71l0.1,0.1l43.4-45.9l-0.2-0.1c-9.8-9.2-16.3-21.6-18.4-34.9
								l0-0.2L22,166.5z M84.1,157.1c2.1,13.3,8.6,25.6,18.4,34.8c-0.3,0.3-42.6,45-42.9,45.3c-19.7-18.6-32.9-43.6-37.1-70.5
								C22.8,166.7,83.7,157.2,84.1,157.1z"/>
						</g>
						<g>
							<path class="st3" d="M58.5,213.3l0.1,0.2c12.2,15.9,29.2,28.6,48,35.5l0.2,0.1l18.7-50.1l-0.2-0.1c-9.6-3.6-18-9.8-24.3-18
								l-0.1-0.2L58.5,213.3z M100.8,181.4c6.2,8.1,14.6,14.3,24.2,17.9c-0.1,0.4-18.3,48.9-18.5,49.3C88,241.6,71.1,229.2,59,213.4
								C59.4,213.2,100.5,181.6,100.8,181.4z"/>
						</g>
						<g>
							<path class="st3" d="M84.4,181.1l0.1,0.2c3.2,5.7,7.2,10.9,11.9,15.6l0.1,0.1l19.3-19.7l-0.1-0.1c-2.9-2.8-5.3-6-7.2-9.4
								l-0.1-0.2L84.4,181.1z M108.3,168.1c1.9,3.3,4.3,6.4,7,9.2c-0.3,0.3-18.4,18.8-18.7,19.1c-4.6-4.5-8.5-9.6-11.6-15.1
								C85.3,181,107.9,168.3,108.3,168.1z"/>
						</g>
						<g>
							<path class="st3" d="M42.2,118c-2.8,9.8-4.2,19.9-4.1,29.9l0,0.2l27.5-0.1l0-0.2c0-7.4,1-14.9,3.1-22.2l0.1-0.2l-26.5-7.6
								L42.2,118z M38.8,139.6c0.5-7.1,1.8-14.2,3.8-21.2c0.4,0.1,25.3,7.2,25.7,7.3c-1.5,5.3-2.4,10.6-2.8,15.9c-0.2,2-0.2,4-0.2,6
								c-0.4,0-26.3,0.1-26.7,0.1C38.5,145,38.6,142.3,38.8,139.6z"/>
						</g>
						<g>
							<path class="st3" d="M99,229.2l0.2,0.1c7.6,4.3,16,7.5,24.8,9.5l0.2,0l6.1-26.8l-0.2,0c-6.3-1.4-12.2-3.7-17.5-6.7l-0.2-0.1
								L99,229.2z M112.5,205.6c5.3,2.9,11.1,5.1,17.3,6.6c-0.1,0.4-5.8,25.7-5.9,26c-8.7-2-16.9-5.1-24.3-9.3
								C99.7,228.6,112.3,206,112.5,205.6z"/>
						</g>
						<g>
							<path class="st3" d="M52.5,134.7c-2.1,14.9-0.5,30.2,4.6,44.2l0.1,0.2l43.6-15.8l-0.1-0.2c-2.5-7-3.3-14.6-2.3-22.1l0-0.2
								l-46-6.4L52.5,134.7z M52.3,140.5c0.1-1.9,0.3-3.7,0.6-5.6c0.4,0.1,44.8,6.2,45.1,6.3c-0.1,0.9-0.2,1.7-0.3,2.6
								c-0.5,6.6,0.4,13.2,2.6,19.3c-0.4,0.1-42.5,15.3-42.9,15.5C53.1,166.5,51.4,153.4,52.3,140.5z"/>
						</g>
						<g>
							<path class="st3" d="M121.6,25.3c-26.8,5-51.6,19.1-69.8,39.6l-0.1,0.2l47.2,42l0.1-0.2c9-10.1,21.2-17.1,34.4-19.5l0.2,0
								l-11.8-62.1L121.6,25.3z M121.5,25.7c0.1,0.4,11.5,60.9,11.6,61.3c-13.1,2.5-25.3,9.4-34.3,19.4
								c-0.3-0.3-46.3-41.2-46.6-41.4C70.3,44.7,94.9,30.8,121.5,25.7z"/>
						</g>
						<g>
							<path class="st3" d="M76,63.3c-15.5,12.6-27.6,30.1-34,49.1l-0.1,0.2l50.6,17.2l0.1-0.2c3.3-9.7,9.3-18.3,17.2-24.8l0.2-0.1
								L76.1,63.2L76,63.3z M76.1,63.8c0.3,0.3,33.1,40.5,33.3,40.8c-7.9,6.5-13.8,15-17.1,24.7c-0.4-0.1-49.5-16.8-49.9-16.9
								C48.8,93.5,60.7,76.3,76.1,63.8z"/>
						</g>
						<g>
							<path class="st3" d="M109,88.2c-5.7,3.4-10.8,7.6-15.2,12.4l-0.1,0.1l20.3,18.6l0.1-0.2c2.6-2.9,5.7-5.4,9.2-7.5l0.2-0.1
								l-14.2-23.6L109,88.2z M109,88.7c0.2,0.4,13.6,22.5,13.8,22.9c-3.3,2.1-6.3,4.5-8.9,7.3c-0.3-0.3-19.4-17.8-19.7-18.1
								C98.6,96.1,103.5,92.1,109,88.7z"/>
						</g>
						<g>
							<path class="st3" d="M140.8,40.8l-0.2,0l1,27.5l0.2,0c7.3-0.3,14.8,0.5,22.3,2.4l0.2,0l6.8-26.7l-0.2,0
								C160.9,41.5,150.8,40.4,140.8,40.8z M170.6,44.4c-0.1,0.4-6.5,25.5-6.5,25.9c-7.4-1.8-14.8-2.6-22-2.4c0-0.4-0.9-26.3-1-26.7
								C150.8,40.9,160.8,41.9,170.6,44.4z"/>
						</g>
						<g>
							<path class="st3" d="M61.5,104.4c-4,7.8-7,16.2-8.7,25.1l0,0.2l27,5.3l0-0.2c1.2-6.3,3.3-12.3,6.2-17.7l0.1-0.2l-24.5-12.6
								L61.5,104.4z M61.7,104.7c0.4,0.2,23.4,12.1,23.7,12.2c-2.8,5.4-4.8,11.3-6.1,17.5c-0.4-0.1-25.8-5-26.2-5.1
								C54.9,120.7,57.8,112.4,61.7,104.7z"/>
						</g>
						<g>
							<path class="st3" d="M110.5,60.9l-0.2,0.1l17.1,43.1l0.2-0.1c7-2.8,14.6-3.8,22-3l0.2,0l4.9-46.1l-0.2,0
								C139.7,53.2,124.5,55.3,110.5,60.9z M154.3,55.2c0,0.4-4.8,44.9-4.9,45.3c-7.3-0.8-14.8,0.2-21.8,3
								c-0.1-0.4-16.6-42-16.8-42.4C124.7,55.7,139.7,53.7,154.3,55.2z"/>
						</g>
						<g>
							<path class="st3" d="M184.5,101.1l0.2,0.1c10.2,8.7,17.3,20.9,19.9,34.1l0,0.2l61.9-12.5l0-0.2
								c-5.4-26.9-19.8-51.5-40.5-69.3l-0.2-0.1L184.5,101.1z M225.9,53.9c20.5,17.7,34.7,42.1,40.2,68.8
								c-0.4,0.1-60.8,12.3-61.1,12.4c-2.7-13.2-9.7-25.3-19.9-34C185.3,100.7,225.6,54.2,225.9,53.9z"/>
						</g>
						<g>
							<path class="st3" d="M161.7,94.9l0.2,0.1c9.8,3.2,18.5,9,25.1,16.9l0.1,0.2l41-34.3l-0.1-0.2c-12.8-15.4-30.4-27.2-49.5-33.4
								l-0.2-0.1L161.7,94.9z M178.5,44.6c18.9,6.2,36.3,17.9,49,33.1c-0.3,0.3-40.1,33.6-40.4,33.8c-6.5-7.8-15.2-13.6-24.9-16.8
								C162.3,94.3,178.4,45,178.5,44.6z"/>
						</g>
						<g>
							<path class="st3" d="M172.3,116.2l0.2,0.1c3,2.7,5.5,5.7,7.6,9.1l0.1,0.2l23.4-14.5l-0.1-0.2c-3.4-5.5-7.7-10.6-12.6-15
								l-0.2-0.1L172.3,116.2z M190.7,96.3c4.8,4.3,8.9,9.2,12.3,14.6c-0.4,0.2-22.4,13.9-22.7,14.1c-2-3.2-4.5-6.2-7.4-8.8
								C173.1,115.9,190.4,96.6,190.7,96.3z"/>
						</g>
						<g>
							<path class="st3" d="M223.7,143.3l0,0.2c0.4,7.2-0.3,14.7-2.1,22.3l0,0.2l26.8,6.4l0-0.2c2.4-10.1,3.3-20.3,2.8-30.1l0-0.2
								L223.7,143.3z M250.8,142.4c0.2,4.2,0.2,8.4-0.2,12.7c-0.4,5.6-1.3,11.3-2.6,16.9c-0.4-0.1-25.6-6.1-26-6.2
								c1-4.3,1.6-8.5,1.9-12.7c0.2-3.2,0.3-6.3,0.1-9.4C224.5,143.7,250.4,142.4,250.8,142.4z"/>
						</g>
						<g>
							<path class="st3" d="M156.4,82.2l0.2,0c6.5,1.2,12.5,3.2,17.8,6l0.2,0.1l12.3-24.6l-0.2-0.1c-7.6-3.9-16.1-6.7-25.2-8.4
								l-0.2,0L156.4,82.2z M161.6,55.6c8.9,1.7,17.2,4.5,24.7,8.2c-0.2,0.4-11.8,23.6-11.9,23.9c-5.3-2.7-11.2-4.6-17.5-5.9
								C156.9,81.5,161.6,56,161.6,55.6z"/>
						</g>
						<g>
							<path class="st3" d="M187.8,129.5l0.1,0.2c2.9,6.9,4,14.5,3.3,22l0,0.2l46.2,4.4l0-0.2c1.4-14.9-0.8-30.1-6.6-44l-0.1-0.2
								L187.8,129.5z M230.5,112.4c5.4,13.1,7.7,27.5,6.6,41.7c0,0.6-0.1,1.1-0.1,1.7c-0.4,0-45-4.3-45.4-4.3c0-0.2,0-0.5,0.1-0.7
								c0.5-7.2-0.6-14.4-3.3-21.1C188.7,129.6,230.1,112.6,230.5,112.4z"/>
						</g>
					</g>
				</g>
			</g>
		</g>
	</g>
</g>
</svg>
