<?xml version="1.0" encoding="utf-8"?>
<!-- Generator: Adobe Illustrator 25.2.1, SVG Export Plug-In . SVG Version: 6.00 Build 0)  -->
<svg version="1.1" id="Layer_1" xmlns="http://www.w3.org/2000/svg" xmlns:xlink="http://www.w3.org/1999/xlink" x="0px" y="0px"
	 viewBox="0 0 50.3 50.3" style="enable-background:new 0 0 50.3 50.3;" xml:space="preserve">
<style type="text/css">
	.st0{fill:none;stroke:#898989;stroke-width:0.75;stroke-miterlimit:10;}
	.st1{fill:none;stroke:#898989;stroke-width:0.75;stroke-miterlimit:10;stroke-dasharray:12,5,2;}
	.st2{fill:#898989;}
</style>
<polygon class="st0" points="35.4,10.2 14.9,10.2 4.6,28 14.9,45.8 35.4,45.8 45.7,28 "/>
<polygon class="st1" points="31.2,17.5 19.1,17.5 13,28 19.1,38.5 31.2,38.5 37.3,28 "/>
<polyline class="st0" points="101.7,-54.3 101.7,-40.5 110.3,-40.5 110.3,-36.2 101.7,-36.2 101.7,-31.9 110.3,-31.9 110.3,-27.6 
	101.7,-27.6 101.7,-23.3 110.3,-23.3 110.3,-19 101.7,-19 101.7,-14.7 110.3,-14.7 110.3,-10.5 101.7,-10.5 101.7,-6.2 110.3,-6.2 
	110.3,36.5 "/>
<circle class="st0" cx="25.1" cy="28" r="2.1"/>
<path class="st2" d="M25.9,28c0,0.4-0.3,0.7-0.7,0.7s-0.7-0.3-0.7-0.7c0-0.4,0.3-0.7,0.7-0.7S25.9,27.6,25.9,28z"/>
</svg>
