<?xml version="1.0" encoding="utf-8"?>
<!-- Generator: Adobe Illustrator 25.2.1, SVG Export Plug-In . SVG Version: 6.00 Build 0)  -->
<svg version="1.1" id="Layer_1" xmlns="http://www.w3.org/2000/svg" xmlns:xlink="http://www.w3.org/1999/xlink" x="0px" y="0px"
	 viewBox="0 0 50.3 50.3" style="enable-background:new 0 0 50.3 50.3;" xml:space="preserve">
<style type="text/css">
	.st0{opacity:0.6;}
	.st1{clip-path:url(#SVGID_2_);}
	.st2{fill:#6C757D;}
	.st3{fill:#434343;}
	.st4{opacity:0.3;}
</style>
<g class="st0">
	<g>
		<g>
			<defs>
				<circle id="SVGID_1_" cx="133.3" cy="-13.3" r="25.1"/>
			</defs>
			<clipPath id="SVGID_2_">
				<use xlink:href="#SVGID_1_"  style="overflow:visible;"/>
			</clipPath>
			<g class="st1">
				
					<rect x="115.4" y="-30.6" transform="matrix(0.5528 -0.8333 0.8333 0.5528 42.1663 102.3895)" class="st2" width="2.2" height="85"/>
				
					<rect x="117.9" y="-34.5" transform="matrix(0.5528 -0.8333 0.8333 0.5528 46.5346 102.7663)" class="st2" width="2.2" height="85"/>
				
					<rect x="120.5" y="-38.3" transform="matrix(0.5528 -0.8333 0.8333 0.5528 50.9147 103.1868)" class="st2" width="2.2" height="85"/>
				
					<rect x="123" y="-42.1" transform="matrix(0.5528 -0.8333 0.8333 0.5528 55.1316 103.594)" class="st2" width="2.2" height="85"/>
				
					<rect x="125.4" y="-45.9" transform="matrix(0.5528 -0.8333 0.8333 0.5528 59.3803 103.946)" class="st2" width="2.2" height="85"/>
				
					<rect x="128.1" y="-49.8" transform="matrix(0.5528 -0.8333 0.8333 0.5528 63.9056 104.3888)" class="st2" width="2.2" height="85"/>
				
					<rect x="130.8" y="-53.8" transform="matrix(0.5528 -0.8333 0.8333 0.5528 68.4309 104.8314)" class="st2" width="2.2" height="85"/>
				
					<rect x="133.4" y="-57.8" transform="matrix(0.5528 -0.8333 0.8333 0.5528 72.9443 105.2305)" class="st2" width="2.2" height="85"/>
				
					<rect x="136" y="-61.7" transform="matrix(0.5528 -0.8333 0.8333 0.5528 77.2808 105.6627)" class="st2" width="2.2" height="85"/>
				
					<rect x="138.5" y="-65.6" transform="matrix(0.5528 -0.8333 0.8333 0.5528 81.6491 106.0396)" class="st2" width="2.2" height="85"/>
				
					<rect x="141" y="-69.3" transform="matrix(0.5528 -0.8333 0.8333 0.5528 85.8661 106.4468)" class="st2" width="2.2" height="85"/>
				
					<rect x="143.5" y="-73.1" transform="matrix(0.5528 -0.8333 0.8333 0.5528 90.1266 106.8424)" class="st2" width="2.2" height="85"/>
				
					<rect x="146.2" y="-77" transform="matrix(0.5528 -0.8333 0.8333 0.5528 94.6518 107.2851)" class="st2" width="2.2" height="85"/>
				
					<rect x="148.8" y="-81.1" transform="matrix(0.5528 -0.8333 0.8333 0.5528 99.1652 107.6842)" class="st2" width="2.2" height="85"/>
			</g>
		</g>
	</g>
</g>
<path class="st3" d="M-136.5-16.3c-0.1-0.4-0.3-0.8-0.5-1.2c-0.2-0.4-0.4-0.8-0.5-1.1c-1.3,0.7-2.9,0.4-3.7-0.8
	c-0.8-1.2-0.5-2.8,0.6-3.7c-0.6-0.6-1.1-1.3-1.7-1.8c-0.9,1.1-2.6,1.3-3.7,0.5c-1.2-0.9-1.5-2.5-0.7-3.7c-0.7-0.4-1.5-0.8-2.3-1.1
	c-0.5,1.4-1.9,2.1-3.4,1.7c-1.4-0.4-2.2-1.8-1.9-3.2c-0.8-0.1-1.7-0.2-2.5-0.3c0,1.4-1.1,2.7-2.6,2.8c-1.5,0.1-2.7-1-2.9-2.4
	c-0.8,0.2-1.6,0.4-2.4,0.6c0.5,1.3-0.1,2.9-1.5,3.5c-1.3,0.6-2.9,0-3.5-1.3c-0.7,0.4-1.4,0.9-2.1,1.4c0.9,1.1,0.9,2.7-0.2,3.8
	c-1.1,1-2.7,1-3.8,0c-0.5,0.7-1,1.3-1.5,2c1.3,0.7,1.8,2.3,1.1,3.6c-0.6,1.3-2.2,1.9-3.5,1.3c-0.3,0.8-0.5,1.6-0.7,2.4
	c1.4,0.2,2.4,1.5,2.3,3c-0.2,1.5-1.4,2.5-2.9,2.4c0,0.8,0.1,1.7,0.2,2.5c1.4-0.3,2.8,0.6,3.2,2c0.3,1.4-0.5,2.8-1.9,3.3
	c0.1,0.4,0.3,0.8,0.5,1.2c0.2,0.4,0.3,0.8,0.5,1.1c1.3-0.7,2.9-0.4,3.7,0.8c0.8,1.2,0.5,2.8-0.6,3.7c0.6,0.6,1.1,1.3,1.7,1.8
	c0.9-1.1,2.6-1.3,3.7-0.5c1.2,0.9,1.5,2.5,0.7,3.7c0.7,0.4,1.5,0.8,2.3,1.1c0.5-1.4,1.9-2.1,3.3-1.7c1.4,0.4,2.2,1.8,1.9,3.3
	c0.8,0.1,1.7,0.2,2.5,0.3c0-1.4,1.1-2.7,2.6-2.8c1.5-0.1,2.7,1,2.9,2.4c0.8-0.2,1.6-0.4,2.4-0.6c-0.5-1.4,0.1-2.9,1.5-3.5
	c1.3-0.6,2.9,0,3.5,1.3c0.7-0.4,1.4-0.9,2.1-1.4c-0.9-1.1-0.9-2.8,0.2-3.8c1.1-1,2.7-1,3.8,0c0.5-0.7,1-1.3,1.5-2
	c-1.3-0.7-1.8-2.3-1.1-3.6c0.7-1.3,2.2-1.9,3.5-1.3c0.3-0.8,0.5-1.6,0.7-2.4c-1.4-0.2-2.4-1.5-2.3-3c0.2-1.5,1.4-2.5,2.9-2.4
	c0-0.8-0.1-1.7-0.2-2.5c-1.4,0.3-2.8-0.6-3.2-2C-138.7-14.4-137.9-15.9-136.5-16.3z M-150.4,5.1l-3.8-8.7c0.8-0.6,1.4-1.5,1.8-2.4
	l9.4,1C-143.9-0.8-146.5,2.9-150.4,5.1z M-159.1-10.7c1.4-0.6,3,0,3.6,1.4c0.6,1.4,0,3-1.4,3.6c-1.4,0.6-3,0-3.6-1.4
	C-161.1-8.5-160.5-10.1-159.1-10.7z M-165.7,5l5.6-7.7c0.9,0.4,2,0.5,3,0.3l3.8,8.7C-157.6,7.7-162.1,7.1-165.7,5z M-173.3-8.3
	l9.4,1c0.1,0.5,0.2,1,0.4,1.4c0.2,0.5,0.5,0.9,0.8,1.3l-5.6,7.7c-1.5-1.4-2.8-3.1-3.7-5.2C-172.9-4.1-173.3-6.2-173.3-8.3z
	 M-165.6-21.5l3.8,8.7c-0.8,0.6-1.4,1.5-1.8,2.4l-9.4-1C-172.1-15.6-169.5-19.3-165.6-21.5z M-150.3-21.4l-5.6,7.7
	c-0.9-0.4-2-0.5-3-0.3l-3.8-8.7C-158.4-24.2-153.9-23.6-150.3-21.4z M-142.7-8.1l-9.4-1c-0.1-0.5-0.2-1-0.4-1.4
	c-0.2-0.5-0.5-0.9-0.8-1.3l5.6-7.7c1.6,1.4,2.8,3.1,3.7,5.2C-143.1-12.4-142.7-10.2-142.7-8.1z"/>
<g class="st0">
	<path class="st3" d="M-64,21.4L-64,21.4c-2.4,2.4-3.8,5.7-3.8,9.1c0,3.4,1.3,6.7,3.8,9.1c2.4,2.4,5.7,3.8,9.1,3.8
		c3.4,0,6.7-1.3,9.1-3.8c5-5,5-13.2,0-18.2C-50.8,16.4-58.9,16.4-64,21.4z M-46,21.6c4.9,4.9,4.9,12.8,0,17.7
		c-2.4,2.4-5.5,3.7-8.8,3.7c-3.3,0-6.5-1.3-8.8-3.7c-2.4-2.4-3.7-5.5-3.7-8.9c0-3.3,1.3-6.5,3.7-8.8C-58.8,16.8-50.9,16.8-46,21.6z"
		/>
	<path class="st3" d="M-60.6,30.5c0,3.1,2.6,5.7,5.7,5.7c3.1,0,5.7-2.6,5.7-5.7c0-3.1-2.6-5.7-5.7-5.7C-58,24.8-60.6,27.4-60.6,30.5
		z M-60.2,30.5c0-3,2.4-5.4,5.3-5.4c2.9,0,5.3,2.4,5.3,5.4c0,2.9-2.4,5.3-5.3,5.3C-57.8,35.8-60.2,33.4-60.2,30.5z"/>
	<path class="st3" d="M-56.5,11.7c0,0-0.7,1.6-0.7,1.7c-0.1,0-0.4,0.1-0.5,0.1c-0.1-0.1-1.5-1.7-1.5-1.7L-62,8.7l-0.4,4.1
		c0,0-0.2,2.1-0.2,2.3c-0.1,0-0.2,0.1-0.2,0.1c-0.2-0.1-1.9-1.1-1.9-1.1l-3.5-2.1l0.9,4c0,0,0.5,2,0.5,2.2c-0.1,0.1-0.1,0.1-0.2,0.2
		c-0.2,0-2.2-0.5-2.2-0.5l-4-0.9l2.1,3.5c0,0,1.1,1.8,1.2,2c0,0-0.1,0.2-0.1,0.2c-0.2,0-2.2,0.2-2.2,0.2l-4.1,0.4
		c0,0,4.6,4.1,4.8,4.2c0,0.1,0,0.2,0,0.3c-0.2,0.1-5.8,2.5-5.8,2.5l3.8,1.6c0,0,1.9,0.8,2.1,0.9c0,0.1,0,0.2,0,0.3
		c-0.1,0.1-1.7,1.5-1.7,1.5l-3.1,2.7l4.1,0.4c0,0,2.1,0.2,2.3,0.2c0,0,0.1,0.2,0.1,0.2c-0.1,0.2-3.2,5.5-3.2,5.5l4-0.9
		c0,0,2-0.5,2.2-0.5c0.1,0.1,0.1,0.1,0.2,0.2c0,0.2-1.4,6.2-1.4,6.2l3.5-2.1c0,0,1.8-1.1,2-1.2c0.1,0,0.2,0.1,0.2,0.1
		c0,0.2,0.6,6.3,0.6,6.3l2.7-3.1c0,0,1.4-1.6,1.5-1.7c0.1,0,0.3,0,0.3,0c0.1,0.2,2.5,5.8,2.5,5.8l1.6-3.8c0,0,0.8-1.9,0.9-2.1
		c0.1,0,0.2,0,0.3,0c0.1,0.1,1.5,1.7,1.5,1.7l2.7,3.1l0.4-4.1c0,0,0.2-2.1,0.2-2.3c0.1,0,0.2-0.1,0.2-0.1c0.2,0.1,1.9,1.1,1.9,1.1
		l3.5,2.1l-0.9-4c0,0-0.5-2-0.5-2.2c0.1-0.1,0.1-0.1,0.2-0.2c0.2,0,2.2,0.5,2.2,0.5l4,0.9l-2.1-3.5c0,0-1.1-1.8-1.2-2
		c0,0,0-0.1,0-0.1s0.1-0.1,0.1-0.2c0.2,0,2.2-0.2,2.2-0.2l4.1-0.4l-3.1-2.7c0,0-1.6-1.4-1.7-1.5c0,0,0-0.2,0-0.3
		c0.2-0.1,2-0.9,2-0.9l3.8-1.6l-3.8-1.6c0,0-1.9-0.8-2.1-0.9c0-0.1,0-0.2,0-0.3c0.1-0.1,1.7-1.5,1.7-1.5l3.1-2.7l-4.1-0.4
		c0,0-2.1-0.2-2.3-0.2c0-0.1-0.1-0.2-0.1-0.3c0.1-0.2,3-5.2,3-5.2l-4,0.9c0,0-1.7,0.4-1.8,0.4c-0.1-0.1-0.3-0.3-0.4-0.4
		c0-0.2,0.4-1.8,0.4-1.8l0.9-4c0,0-5,2.9-5.2,3c-0.1-0.1-0.4-0.2-0.5-0.3c0-0.2-0.2-1.9-0.2-1.9L-47.9,9l-2.7,3.1
		c0,0-1.1,1.3-1.2,1.4c-0.1,0-0.4-0.1-0.6-0.1c-0.1-0.2-0.7-1.7-0.7-1.7l-1.6-3.8L-56.5,11.7z M-57,13.7L-57,13.7l0.8-1.9
		c0,0,1.1-2.4,1.3-3c0.3,0.6,1.3,3,1.3,3l0.8,1.9l1,0.1l0.1-0.1l1.3-1.5c0,0,1.7-2,2.2-2.5c0.1,0.6,0.3,3.3,0.3,3.3l0.2,2.1l0.9,0.4
		l0.1,0c0,0,4-2.3,4.5-2.7c-0.1,0.6-0.7,3.2-0.7,3.2l-0.4,2l0.7,0.7l0.1,0l1.9-0.4c0,0,2.6-0.6,3.2-0.7c-0.3,0.6-2.7,4.6-2.7,4.6
		l0.3,0.6l0.1,0l2.4,0.2c0,0,2.6,0.3,3.3,0.3c-0.5,0.4-2.5,2.2-2.5,2.2l-1.8,1.6l0.1,0.7l0.1,0l2.2,0.9c0,0,2.4,1.1,3,1.3
		c-0.6,0.3-3,1.3-3,1.3l-2.2,1l-0.1,0.5l0,0.2l1.8,1.6c0,0,2,1.7,2.5,2.2c-0.6,0.1-3.3,0.3-3.3,0.3l0,0l-2.4,0.2l-0.2,0.4l-0.1,0.2
		l0.1,0.1l1.2,2c0,0,1.3,2.3,1.7,2.8c-0.6-0.1-3.2-0.7-3.2-0.7l-2.4-0.5l-0.5,0.5l0,0.1l0.5,2.3c0,0,0.6,2.6,0.7,3.2
		c-0.6-0.3-2.8-1.7-2.8-1.7l-2.1-1.2l-0.6,0.3l0,0.1l-0.2,2.4c0,0-0.3,2.6-0.3,3.3c-0.4-0.5-2.2-2.5-2.2-2.5l-1.6-1.8l-0.3,0.1
		l-0.4,0.1l0,0.1l-0.9,2.2c0,0-1.1,2.4-1.3,3c-0.3-0.6-2.3-5.2-2.3-5.2l-0.3,0l-0.4-0.1l-0.1,0.1l-1.6,1.8c0,0-1.7,2-2.2,2.5
		c-0.1-0.6-0.5-5.7-0.5-5.7l-0.6-0.3l-0.1,0l-2,1.2c0,0-2.3,1.3-2.8,1.7c0.1-0.6,1.2-5.6,1.2-5.6l-0.5-0.5l-0.1,0l-2.3,0.5
		c0,0-2.6,0.6-3.2,0.7c0.3-0.6,2.9-4.9,2.9-4.9l-0.3-0.6l-0.1,0l-2.4-0.2c0,0-2.6-0.3-3.3-0.3c0.5-0.4,2.5-2.2,2.5-2.2l1.8-1.6
		l0-0.2l-0.1-0.5l-0.1,0l-2.2-0.9c0,0-2.4-1-3-1.3c0.6-0.3,5.2-2.3,5.2-2.3l0.1-0.7c0,0-3.8-3.4-4.3-3.8c0.6-0.1,3.3-0.3,3.3-0.3
		l2.4-0.2l0.2-0.4l0.1-0.2l-0.1-0.1l-1.2-2c0,0-1.3-2.3-1.7-2.8c0.6,0.1,3.2,0.7,3.2,0.7l2.4,0.5l0.5-0.5l0-0.1l-0.5-2.3
		c0,0-0.6-2.6-0.7-3.2c0.6,0.3,2.8,1.7,2.8,1.7l2.1,1.2l0.6-0.3l0-0.1l0.2-2.4c0,0,0.3-2.6,0.3-3.3c0.4,0.5,2.2,2.5,2.2,2.5l1.6,1.8
		L-57,13.7z"/>
	<path class="st3" d="M-64.4,21c-2.5,2.5-3.9,5.9-3.9,9.5c0,3.6,1.4,7,3.9,9.5c2.5,2.5,5.9,3.9,9.5,3.9c3.6,0,7-1.4,9.5-3.9l0,0
		c5.3-5.3,5.3-13.8,0-19.1C-50.6,15.7-59.1,15.7-64.4,21z M-64.1,39.8c-2.5-2.5-3.8-5.8-3.8-9.3c0-3.5,1.4-6.8,3.8-9.3
		c5.1-5.1,13.4-5.1,18.6,0c2.6,2.6,3.8,5.9,3.8,9.3c0,3.4-1.3,6.7-3.8,9.3c-2.5,2.5-5.8,3.8-9.3,3.8C-58.4,43.6-61.7,42.2-64.1,39.8
		z"/>
</g>
<g class="st4">
	<g>
		<g>
			<g>
				<g>
					<g>
						<path class="st3" d="M26,41.6l0,0.5c-3.6,0.1-7.3-1.1-10.1-3.2l-0.4,0.6c4.3,3.3,10.2,4.2,15.3,2.6l-0.6-1.9
							c-4.5,1.5-9.7,0.6-13.5-2.3l-0.4,0.6C19,40.6,22.5,41.7,26,41.6z"/>
						<path class="st3" d="M19.6,11.5L19.4,11c3.3-1.4,7.1-1.6,10.6-0.6l0.2-0.7C25,8.2,19.2,9.3,15,12.8l1.3,1.6
							c3.7-3,8.8-4.1,13.4-2.7l0.2-0.7C26.5,9.9,22.8,10.2,19.6,11.5z"/>
						<path class="st3" d="M12.5,33c0.6,1.1,1.3,2.1,2.2,3.1l-3.3,3.1c-1.1-1.2-2.1-2.5-2.9-4L12.5,33z"/>
						<path class="st3" d="M6.3,27.7l4.5-0.4c0.1,1.3,0.4,2.5,0.8,3.7l-4.3,1.5C6.8,30.9,6.4,29.3,6.3,27.7z M7.9,29
							c0.1,0.5,0.2,1,0.3,1.6l1.5-0.4c-0.1-0.5-0.2-0.9-0.3-1.4L7.9,29z"/>
						<path class="st3" d="M11,13.2l3.4,3c-0.8,0.9-1.5,2-2.1,3.1l-4-2C9,15.8,9.9,14.4,11,13.2z M11.2,15.3
							c-0.3,0.4-0.6,0.9-0.9,1.3l1.4,0.8c0.3-0.4,0.5-0.8,0.8-1.2L11.2,15.3z"/>
						<path class="st3" d="M11.4,21.3c-0.4,1.2-0.6,2.4-0.7,3.7l-4.5-0.3c0.1-1.6,0.4-3.3,0.9-4.8L11.4,21.3z"/>
						<path class="st3" d="M32.9,12.9c-0.4-0.2-0.8-0.4-1.2-0.6l3-6.6c0.6,0.3,1.2,0.6,1.8,0.9L32.9,12.9z"/>
						<path class="st3" d="M35.3,14.6c-0.3-0.3-0.7-0.6-1-0.8l1.2-1.7c0.4,0.3,0.8,0.6,1.2,0.9L35.3,14.6z"/>
						<path class="st3" d="M37.3,16.7c-0.3-0.3-0.6-0.7-0.9-1l3.7-3.5c0.4,0.4,0.8,0.9,1.2,1.3L37.3,16.7z"/>
						<path class="st3" d="M38.9,19.1c-0.2-0.4-0.4-0.8-0.7-1.1l6.1-3.9c0.4,0.6,0.7,1.1,1,1.7L38.9,19.1z"/>
						<path class="st3" d="M40,21.8c-0.1-0.4-0.3-0.8-0.4-1.3l1.9-0.7c0.2,0.5,0.3,0.9,0.5,1.4L40,21.8z"/>
						<path class="st3" d="M40.5,24.7c0-0.4-0.1-0.9-0.2-1.3l5-0.9c0.1,0.6,0.2,1.2,0.2,1.8L40.5,24.7z"/>
						<path class="st3" d="M40.4,27.7c0-0.4,0.1-0.9,0.1-1.3l7.2,0.2c0,0.7-0.1,1.3-0.1,2L40.4,27.7z"/>
						<path class="st3" d="M39.8,30.5c0.1-0.4,0.3-0.8,0.3-1.3l2,0.5c-0.1,0.5-0.2,1-0.4,1.5L39.8,30.5z"/>
						<path class="st3" d="M38.7,33.2c0.2-0.4,0.4-0.8,0.6-1.2l4.7,2.1c-0.2,0.5-0.5,1.1-0.8,1.6L38.7,33.2z"/>
						<path class="st3" d="M37,35.6c0.3-0.3,0.6-0.7,0.8-1l5.9,4.2c-0.4,0.5-0.8,1.1-1.2,1.5L37,35.6z"/>
						<path class="st3" d="M34.9,37.6c0.3-0.3,0.7-0.6,1-0.9l1.4,1.5c-0.4,0.3-0.7,0.7-1.1,1L34.9,37.6z"/>
						<path class="st3" d="M32.5,39.2c0.4-0.2,0.8-0.4,1.1-0.7l2.7,4.3c-0.5,0.3-1,0.6-1.5,0.9L32.5,39.2z"/>
						<path class="st3" d="M17.2,31.1l1.9-1.1c1.8,3,5.6,4.4,8.9,3.4l0.7,2.1C24.4,36.7,19.4,34.9,17.2,31.1z M20.3,33.5
							c1.3,0.9,2.8,1.5,4.3,1.6l0.1-0.8c-1.4-0.2-2.8-0.7-3.9-1.5L20.3,33.5z"/>
						<path class="st3" d="M18,24.8c-0.1,0.5-0.1,1.1-0.1,1.7l-2.2,0.1c0-0.7,0-1.4,0.1-2.2L18,24.8z"/>
						<path class="st3" d="M19,22c-0.3,0.5-0.5,1-0.7,1.5l-2.1-0.7c0.2-0.7,0.5-1.3,0.9-1.9L19,22z"/>
						<path class="st3" d="M22.6,18.8c-0.5,0.2-1,0.5-1.5,0.8l-1.3-1.8c0.6-0.4,1.2-0.8,1.9-1L22.6,18.8z"/>
						<path class="st3" d="M25.4,18.3c-0.2,0-0.3,0-0.5,0l-0.2-2.2c0.2,0,0.4,0,0.6,0L25.4,18.3z"/>
						<path class="st3" d="M26.4,18.3c-0.2,0-0.3,0-0.4,0l0.1-2.2c0.2,0,0.4,0,0.6,0L26.4,18.3z"/>
						<path class="st3" d="M27.4,18.4c-0.1,0-0.3-0.1-0.4-0.1l0.4-2.1c0.2,0,0.4,0.1,0.6,0.1L27.4,18.4z"/>
						<path class="st3" d="M35.3,24l-0.8,0.2c-0.3-1.8-1.3-3.5-2.6-4.7l0.6-0.6c-0.5-0.4-1-0.8-1.5-1.2l-1.2,1.8
							c2.2,1.4,3.6,3.9,3.5,6.5h2.2C35.5,25.3,35.4,24.6,35.3,24z"/>
						<path class="st3" d="M32.5,33l-0.6-0.6c1.3-1.3,2.2-2.9,2.6-4.7l0.8,0.2c0.1-0.6,0.2-1.3,0.2-1.9h-2.2c0,2.6-1.4,5.1-3.5,6.5
							l1.2,1.8C31.5,33.9,32,33.5,32.5,33z"/>
					</g>
				</g>
				<g>
					<g>
						<path class="st3" d="M14.9,24.4c-1,5.9,3.1,11.5,8.9,12.4c5.9,1,11.5-3.1,12.4-8.9c1-5.9-3.1-11.5-8.9-12.4
							C21.5,14.5,15.9,18.5,14.9,24.4z M23.9,36.7c-5.9-1-9.9-6.5-8.9-12.4c1-5.9,6.5-9.9,12.4-8.9c5.9,1,9.9,6.5,8.9,12.4
							C35.3,33.7,29.7,37.7,23.9,36.7z"/>
					</g>
					<g>
						<g>
							<path class="st3" d="M31.7,31.2c-1.1,1.4-2.7,2.3-4.4,2.7l0,0l1.8,8l0,0c3.5-0.8,6.6-2.7,8.9-5.4l0,0L31.7,31.2L31.7,31.2z
								 M31.7,31.2c0,0,6.2,5.2,6.2,5.2c-2.3,2.7-5.4,4.6-8.9,5.4c0-0.1-1.7-7.9-1.8-7.9C29.1,33.5,30.6,32.6,31.7,31.2z"/>
						</g>
						<g>
							<path class="st3" d="M32.5,28.2c-0.4,1.3-1.1,2.4-2.1,3.3l0,0l4.6,5.2l0,0c2-1.7,3.5-4,4.2-6.5l0,0L32.5,28.2L32.5,28.2z
								 M32.5,28.3c0,0,6.5,2,6.6,2c-0.8,2.5-2.2,4.8-4.2,6.5c0,0-4.5-5.1-4.5-5.2C31.4,30.7,32.1,29.5,32.5,28.3z"/>
						</g>
						<g>
							<path class="st3" d="M29.7,29.6c-0.3,0.4-0.7,0.7-1.2,1l0,0l1.9,3l0,0c0.7-0.5,1.4-1,1.9-1.7l0,0L29.7,29.6L29.7,29.6z
								 M29.7,29.7c0,0,2.6,2.2,2.6,2.3c-0.5,0.6-1.2,1.2-1.9,1.6c0,0-1.9-2.9-1.9-2.9C29,30.4,29.4,30.1,29.7,29.7z"/>
						</g>
						<g>
							<path class="st3" d="M22.6,39.7L22.6,39.7c1.4,0.3,2.7,0.4,3.9,0.3l0,0l-0.2-3.6l0,0c-0.9,0.1-1.9,0-2.9-0.2l0,0L22.6,39.7z
								 M23.4,36.2c1,0.2,2,0.3,2.9,0.2c0,0,0.2,3.4,0.2,3.5c-1.3,0.1-2.5,0-3.9-0.3C22.7,39.6,23.4,36.3,23.4,36.2z"/>
						</g>
						<g>
							<path class="st3" d="M34.1,27.5c-0.1,0.8-0.4,1.6-0.7,2.3l0,0l3.2,1.5l0,0c0.5-1,0.8-2.1,1-3.3l0,0L34.1,27.5L34.1,27.5z
								 M34.2,27.5c0,0,3.4,0.5,3.4,0.6c-0.2,1.2-0.5,2.2-1,3.2c0,0-3.1-1.5-3.1-1.5C33.8,29.1,34,28.4,34.2,27.5z"/>
						</g>
						<g>
							<path class="st3" d="M28,31.7c-0.9,0.4-1.9,0.6-2.9,0.5l0,0l-0.5,6l0,0c2,0.2,3.9-0.2,5.7-1l0,0L28,31.7L28,31.7z M28,31.7
								c0,0,2.3,5.4,2.4,5.4c-1.8,0.8-3.7,1.1-5.6,0.9c0-0.1,0.4-5.9,0.4-5.9C26.2,32.3,27.1,32.1,28,31.7z"/>
						</g>
						<g>
							<path class="st3" d="M9.9,29.8L9.9,29.8c0.8,3.5,2.8,6.6,5.6,8.9l0,0l5.2-6.4l0,0c-1.4-1.1-2.3-2.6-2.7-4.4l0,0L9.9,29.8z
								 M17.8,28c0.4,1.7,1.4,3.2,2.7,4.3c0,0-5.1,6.3-5.1,6.3c-2.7-2.2-4.7-5.3-5.5-8.8C10,29.8,17.8,28,17.8,28z"/>
						</g>
						<g>
							<path class="st3" d="M15.1,35.5L15.1,35.5c1.7,2,4.1,3.4,6.6,4.2l0,0l1.9-6.7l0,0c-1.3-0.4-2.4-1.1-3.3-2.1l0,0L15.1,35.5z
								 M20.2,30.9c0.9,1,2,1.7,3.3,2.1c0,0-1.9,6.5-1.9,6.6c-2.5-0.7-4.8-2.2-6.5-4.1C15.2,35.5,20.2,31,20.2,30.9z"/>
						</g>
						<g>
							<path class="st3" d="M18.1,31.1L18.1,31.1c0.5,0.7,1.1,1.4,1.7,1.9l0,0l2.3-2.7l0,0c-0.4-0.3-0.7-0.7-1-1.1l0,0L18.1,31.1z
								 M21.1,29.2c0.3,0.4,0.6,0.8,1,1.1c0,0-2.2,2.6-2.2,2.7c-0.6-0.5-1.2-1.2-1.7-1.9C18.2,31,21,29.2,21.1,29.2z"/>
						</g>
						<g>
							<path class="st3" d="M12,23.3c-0.3,1.3-0.4,2.6-0.2,3.9l0,0l3.6-0.3l0,0c-0.1-1,0-1.9,0.2-2.9l0,0L12,23.3L12,23.3z
								 M11.8,26.1c0-0.9,0.1-1.9,0.3-2.8c0.1,0,3.4,0.7,3.4,0.7c-0.1,0.7-0.2,1.4-0.2,2.1c0,0.3,0,0.5,0,0.8
								c-0.1,0-3.4,0.3-3.5,0.3C11.8,26.8,11.8,26.5,11.8,26.1z"/>
						</g>
						<g>
							<path class="st3" d="M20.5,37.2L20.5,37.2c1.1,0.5,2.2,0.8,3.3,1l0,0l0.5-3.5l0,0c-0.8-0.1-1.6-0.4-2.3-0.7l0,0L20.5,37.2z
								 M22,34c0.7,0.3,1.5,0.6,2.3,0.7c0,0-0.5,3.4-0.5,3.4c-1.1-0.2-2.2-0.5-3.2-1C20.6,37.1,22,34,22,34z"/>
						</g>
						<g>
							<path class="st3" d="M13.5,25.4c-0.1,2,0.2,3.9,1,5.7l0,0l5.5-2.5l0,0c-0.4-0.9-0.6-1.9-0.5-2.8l0,0L13.5,25.4L13.5,25.4z
								 M13.6,26.1c0-0.2,0-0.5,0-0.7c0.1,0,5.9,0.4,5.9,0.4c0,0.1,0,0.2,0,0.3c0,0.9,0.2,1.7,0.5,2.5c0,0-5.4,2.4-5.4,2.4
								C13.9,29.5,13.6,27.8,13.6,26.1z"/>
						</g>
						<g>
							<path class="st3" d="M21.4,10.5c-3.4,0.9-6.5,3-8.7,5.8l0,0l6.5,5l0,0c1.1-1.4,2.6-2.4,4.3-2.9l0,0L21.4,10.5L21.4,10.5z
								 M21.4,10.5c0,0.1,2.1,7.8,2.1,7.8c-1.7,0.4-3.2,1.5-4.3,2.9c0,0-6.4-4.9-6.5-4.9C15,13.5,18,11.4,21.4,10.5z"/>
						</g>
						<g>
							<path class="st3" d="M15.9,15.9c-1.9,1.8-3.3,4.2-3.9,6.7l0,0l6.7,1.7l0,0c0.3-1.3,1-2.5,2-3.4l0,0L15.9,15.9L15.9,15.9z
								 M15.9,15.9c0,0,4.7,4.9,4.7,5c-1,0.9-1.6,2.1-2,3.4c0,0-6.6-1.7-6.6-1.7C12.6,20,14,17.7,15.9,15.9z"/>
						</g>
						<g>
							<path class="st3" d="M20.4,18.8c-0.7,0.5-1.3,1.1-1.9,1.8l0,0l2.8,2.2l0,0c0.3-0.4,0.7-0.8,1.1-1.1l0,0L20.4,18.8L20.4,18.8z
								 M20.4,18.8c0,0,2,2.8,2,2.8c-0.4,0.3-0.8,0.6-1.1,1c0,0-2.7-2.1-2.7-2.2C19.1,19.9,19.7,19.3,20.4,18.8z"/>
						</g>
						<g>
							<path class="st3" d="M24.1,12.3L24.1,12.3l0.4,3.6l0,0c0.9-0.1,1.9-0.1,2.9,0.1l0,0l0.6-3.5l0,0
								C26.7,12.2,25.4,12.2,24.1,12.3z M28,12.5c0,0.1-0.6,3.4-0.6,3.4c-1-0.2-1.9-0.2-2.9-0.1c0-0.1-0.4-3.4-0.4-3.5
								C25.4,12.2,26.7,12.3,28,12.5z"/>
						</g>
						<g>
							<path class="st3" d="M14.4,21.3c-0.4,1.1-0.7,2.2-0.9,3.3l0,0l3.6,0.4l0,0c0.1-0.8,0.3-1.6,0.6-2.4l0,0L14.4,21.3L14.4,21.3z
								 M14.4,21.4c0,0,3.2,1.3,3.2,1.4c-0.3,0.7-0.5,1.5-0.6,2.3c0,0-3.4-0.4-3.5-0.4C13.7,23.5,14,22.4,14.4,21.4z"/>
						</g>
						<g>
							<path class="st3" d="M20.3,15.2L20.3,15.2l2.6,5.4l0,0c0.9-0.4,1.9-0.6,2.8-0.6l0,0l0.2-6l0,0C24.1,13.9,22.1,14.3,20.3,15.2
								z M26,14.1c0,0.1-0.2,5.9-0.2,5.9c-1,0-1.9,0.2-2.8,0.6c0,0-2.6-5.3-2.6-5.3C22.1,14.4,24,14,26,14.1z"/>
						</g>
						<g>
							<path class="st3" d="M30.3,19.7L30.3,19.7c1.4,1.1,2.5,2.6,2.9,4.3l0,0l7.9-2.2l0,0c-1-3.4-3.1-6.5-5.9-8.6l0,0L30.3,19.7z
								 M35.2,13.2c2.8,2.1,4.9,5.1,5.9,8.5c-0.1,0-7.8,2.2-7.8,2.2c-0.5-1.7-1.5-3.2-2.9-4.2C30.4,19.7,35.2,13.2,35.2,13.2z"/>
						</g>
						<g>
							<path class="st3" d="M27.3,19.1L27.3,19.1c1.3,0.3,2.5,1,3.4,2l0,0l5-4.9l0,0c-1.8-1.9-4.2-3.2-6.7-3.9l0,0L27.3,19.1z
								 M29,12.4c2.5,0.6,4.9,2,6.7,3.8c0,0-4.9,4.7-4.9,4.8c-0.9-0.9-2.1-1.6-3.4-1.9C27.4,19,29,12.5,29,12.4z"/>
						</g>
						<g>
							<path class="st3" d="M28.9,21.8L28.9,21.8c0.4,0.3,0.8,0.7,1.1,1.1l0,0l2.9-2.1l0,0c-0.5-0.7-1.1-1.3-1.8-1.8l0,0L28.9,21.8z
								 M31.1,19c0.7,0.5,1.2,1.1,1.7,1.8c0,0-2.8,2-2.8,2c-0.3-0.4-0.6-0.8-1-1.1C29,21.7,31.1,19.1,31.1,19z"/>
						</g>
						<g>
							<path class="st3" d="M35.8,24.8L35.8,24.8c0.1,1,0.1,1.9-0.1,2.9l0,0l3.5,0.6l0,0c0.2-1.3,0.2-2.7,0.1-3.9l0,0L35.8,24.8z
								 M39.3,24.4c0.1,0.5,0.1,1.1,0.1,1.6c0,0.7-0.1,1.5-0.2,2.2c-0.1,0-3.4-0.5-3.4-0.6c0.1-0.6,0.1-1.1,0.1-1.7
								c0-0.4,0-0.8-0.1-1.2C35.9,24.9,39.3,24.4,39.3,24.4z"/>
						</g>
						<g>
							<path class="st3" d="M26.5,17.5L26.5,17.5c0.9,0.1,1.7,0.3,2.4,0.6l0,0l1.4-3.3l0,0c-1-0.4-2.2-0.7-3.4-0.8l0,0L26.5,17.5z
								 M26.9,14c1.2,0.1,2.3,0.4,3.3,0.8c0,0-1.3,3.2-1.3,3.2c-0.7-0.3-1.5-0.5-2.3-0.6C26.6,17.4,26.9,14.1,26.9,14z"/>
						</g>
						<g>
							<path class="st3" d="M31,23.4L31,23.4c0.4,0.9,0.7,1.9,0.7,2.8l0,0l6,0.1l0,0c0-2-0.4-3.9-1.3-5.6l0,0L31,23.4z M36.4,20.7
								c0.8,1.7,1.3,3.5,1.3,5.3c0,0.1,0,0.1,0,0.2c-0.1,0-5.9-0.1-5.9-0.1c0,0,0-0.1,0-0.1c0-0.9-0.2-1.9-0.6-2.7
								C31.1,23.4,36.4,20.8,36.4,20.7z"/>
						</g>
					</g>
				</g>
				<g>
					<g>
						<path class="st3" d="M25.5,30.2l0,0.1c0.9,0,1.8-0.3,2.6-0.8l0.1,0.1c-1.1,0.8-2.6,1.1-3.9,0.7l0.2-0.5
							c1.1,0.4,2.5,0.2,3.4-0.6l0.1,0.1C27.3,30,26.4,30.3,25.5,30.2z"/>
						<path class="st3" d="M27.2,22.6l0.1-0.1c-0.8-0.4-1.8-0.4-2.7-0.2l0-0.2c1.3-0.4,2.8-0.1,3.8,0.8L28,23.3
							c-0.9-0.8-2.2-1-3.4-0.7l-0.1-0.2C25.4,22.2,26.4,22.3,27.2,22.6z"/>
						<path class="st3" d="M29,28.1c-0.2,0.3-0.3,0.5-0.6,0.8l0.8,0.8c0.3-0.3,0.5-0.6,0.7-1L29,28.1z"/>
						<path class="st3" d="M30.3,27.9l-1.1-0.4c0.1-0.3,0.2-0.6,0.2-0.9l1.1,0.1C30.5,27.1,30.4,27.5,30.3,27.9z M29.7,27
							c0,0.1,0,0.2-0.1,0.4l0.4,0.1c0-0.1,0.1-0.3,0.1-0.4L29.7,27z"/>
						<path class="st3" d="M30,24.1l-1,0.5c-0.1-0.3-0.3-0.6-0.5-0.8l0.9-0.8C29.6,23.4,29.9,23.7,30,24.1z M29,23.8
							c0.1,0.1,0.1,0.2,0.2,0.3l0.3-0.2c-0.1-0.1-0.1-0.2-0.2-0.3L29,23.8z"/>
						<path class="st3" d="M29.2,25.1c0.1,0.3,0.2,0.6,0.2,0.9l1.1-0.1c0-0.4-0.1-0.8-0.2-1.2L29.2,25.1z"/>
						<path class="st3" d="M23.8,23c0.1-0.1,0.2-0.1,0.3-0.2l-0.7-1.7c-0.2,0.1-0.3,0.1-0.4,0.2L23.8,23z"/>
						<path class="st3" d="M23.2,23.4c0.1-0.1,0.2-0.1,0.3-0.2l-0.3-0.4c-0.1,0.1-0.2,0.2-0.3,0.2L23.2,23.4z"/>
						<path class="st3" d="M22.7,23.9c0.1-0.1,0.1-0.2,0.2-0.3L22,22.8c-0.1,0.1-0.2,0.2-0.3,0.3L22.7,23.9z"/>
						<path class="st3" d="M22.3,24.5c0-0.1,0.1-0.2,0.2-0.3l-1.5-1c-0.1,0.1-0.2,0.3-0.2,0.4L22.3,24.5z"/>
						<path class="st3" d="M22,25.2c0-0.1,0.1-0.2,0.1-0.3l-0.5-0.2c0,0.1-0.1,0.2-0.1,0.4L22,25.2z"/>
						<path class="st3" d="M21.9,26c0-0.1,0-0.2,0-0.3l-1.3-0.2c0,0.1,0,0.3-0.1,0.4L21.9,26z"/>
						<path class="st3" d="M21.9,26.7c0-0.1,0-0.2,0-0.3L20,26.4c0,0.2,0,0.3,0,0.5L21.9,26.7z"/>
						<path class="st3" d="M22.1,27.4c0-0.1-0.1-0.2-0.1-0.3l-0.5,0.1c0,0.1,0.1,0.2,0.1,0.4L22.1,27.4z"/>
						<path class="st3" d="M22.3,28.1c-0.1-0.1-0.1-0.2-0.1-0.3L21,28.3c0.1,0.1,0.1,0.3,0.2,0.4L22.3,28.1z"/>
						<path class="st3" d="M22.8,28.7c-0.1-0.1-0.1-0.2-0.2-0.3l-1.5,1.1c0.1,0.1,0.2,0.3,0.3,0.4L22.8,28.7z"/>
						<path class="st3" d="M23.3,29.2c-0.1-0.1-0.2-0.1-0.3-0.2l-0.4,0.4c0.1,0.1,0.2,0.2,0.3,0.2L23.3,29.2z"/>
						<path class="st3" d="M23.9,29.6c-0.1-0.1-0.2-0.1-0.3-0.2l-0.7,1.1c0.1,0.1,0.3,0.2,0.4,0.2L23.9,29.6z"/>
						<path class="st3" d="M24.9,28.7l0.2-0.5c0.8,0.3,1.8-0.1,2.3-0.8l0.5,0.3C27.2,28.5,26,29,24.9,28.7z M26.9,28
							c-0.3,0.2-0.6,0.3-1,0.4l0,0.2c0.4,0,0.8-0.2,1.1-0.4L26.9,28z"/>
						<path class="st3" d="M27.6,26c0,0.1,0,0.3,0,0.4l0.5,0c0-0.2,0-0.4,0-0.5L27.6,26z"/>
						<path class="st3" d="M27.3,25.3c0.1,0.1,0.1,0.3,0.2,0.4l0.5-0.2c-0.1-0.2-0.1-0.3-0.2-0.5L27.3,25.3z"/>
						<path class="st3" d="M26.4,24.5c0.1,0.1,0.3,0.1,0.4,0.2l0.3-0.4c-0.1-0.1-0.3-0.2-0.5-0.3L26.4,24.5z"/>
						<path class="st3" d="M25.7,24.3c0,0,0.1,0,0.1,0l0-0.5c0,0-0.1,0-0.1,0L25.7,24.3z"/>
						<path class="st3" d="M25.4,24.3c0,0,0.1,0,0.1,0l0-0.5c0,0-0.1,0-0.1,0L25.4,24.3z"/>
						<path class="st3" d="M25.2,24.4c0,0,0.1,0,0.1,0l-0.1-0.5c0,0-0.1,0-0.1,0L25.2,24.4z"/>
						<path class="st3" d="M23.2,25.8l0.2,0c0.1-0.5,0.3-0.9,0.7-1.2l-0.2-0.2c0.1-0.1,0.2-0.2,0.4-0.3l0.3,0.5
							c-0.6,0.4-0.9,1-0.9,1.6h-0.5C23.1,26.1,23.2,25.9,23.2,25.8z"/>
						<path class="st3" d="M23.9,28.1l0.2-0.2c-0.3-0.3-0.6-0.7-0.7-1.2l-0.2,0c0-0.2,0-0.3,0-0.5h0.5c0,0.7,0.3,1.3,0.9,1.6
							l-0.3,0.5C24.2,28.3,24,28.2,23.9,28.1z"/>
					</g>
				</g>
				<g>
					<g>
						<path class="st3" d="M9.9,22.3c-2.1,8.7,3.3,17.5,12,19.6c8.7,2.1,17.5-3.3,19.6-12c2.1-8.7-3.3-17.5-12-19.6
							C20.7,8.2,12,13.6,9.9,22.3z M21.9,41.8C13.2,39.7,7.9,31,10,22.3c2.1-8.7,10.8-14,19.5-11.9c8.7,2.1,14,10.8,11.9,19.5
							C39.3,38.5,30.6,43.9,21.9,41.8z"/>
					</g>
					<g>
						<g>
							<path class="st3" d="M34.2,34.4c-1.8,1.9-4.3,3.2-6.9,3.5l0,0l1.8,12.2l0,0c5.3-0.7,10.2-3.3,14-7.1l0,0L34.2,34.4L34.2,34.4
								z M34.3,34.4c0.1,0.1,8.7,8.4,8.8,8.5c-3.7,3.8-8.6,6.3-13.9,7.1c0-0.1-1.7-12-1.7-12.1C30,37.6,32.4,36.3,34.3,34.4z"/>
						</g>
						<g>
							<path class="st3" d="M35.7,30c-0.7,1.9-2,3.5-3.6,4.7l0,0l6.3,8.4l0,0c3.1-2.3,5.6-5.6,7.1-9.3l0,0L35.7,30L35.7,30z
								 M35.8,30.1c0.1,0,9.5,3.7,9.6,3.7c-1.4,3.6-3.9,6.9-7,9.2c0-0.1-6.1-8.2-6.2-8.2C33.8,33.5,35,31.9,35.8,30.1z"/>
						</g>
						<g>
							<path class="st3" d="M31.4,31.8c-0.5,0.5-1.2,1-1.9,1.4l0,0l2.6,4.7l0,0c1.1-0.6,2.2-1.4,3.1-2.3l0,0L31.4,31.8L31.4,31.8z
								 M31.4,31.9c0.1,0.1,3.6,3.6,3.7,3.7c-0.9,0.9-1.9,1.6-3,2.2c0-0.1-2.5-4.5-2.5-4.6C30.3,32.9,30.9,32.4,31.4,31.9z"/>
						</g>
						<g>
							<path class="st3" d="M19.6,46L19.6,46c2,0.6,4,0.9,5.9,0.9h0l0-5.4l0,0c-1.4,0-2.9-0.2-4.3-0.7l0,0L19.6,46z M21.2,41
								c1.5,0.4,2.9,0.6,4.3,0.6c0,0.1,0,5.1,0,5.2c-1.9,0-3.8-0.3-5.7-0.9C19.8,45.9,21.2,41,21.2,41z"/>
						</g>
						<g>
							<path class="st3" d="M38.2,29.1c-0.3,1.2-0.8,2.4-1.4,3.4l0,0l4.7,2.7l0,0c0.8-1.5,1.5-3.1,1.9-4.8l0,0L38.2,29.1L38.2,29.1z
								 M38.3,29.1c0.1,0,5,1.2,5.1,1.2c-0.4,1.7-1.1,3.3-1.9,4.7c-0.1,0-4.5-2.6-4.5-2.6C37.6,31.5,38,30.4,38.3,29.1z"/>
						</g>
						<g>
							<path class="st3" d="M28.6,34.7c-1.4,0.5-2.9,0.6-4.3,0.4l0,0l-1.4,9l0,0c2.9,0.4,5.9,0.2,8.7-0.8l0,0L28.6,34.7L28.6,34.7z
								 M28.6,34.8c0,0.1,2.9,8.3,2.9,8.4c-2.7,0.9-5.7,1.2-8.5,0.8c0-0.1,1.3-8.7,1.3-8.8C25.8,35.4,27.3,35.2,28.6,34.8z"/>
						</g>
						<g>
							<path class="st3" d="M1.7,29.8L1.7,29.8C2.5,35.1,5.1,40.1,9,43.7l0,0l8.5-9l0,0c-1.9-1.8-3.2-4.2-3.6-6.8l0,0L1.7,29.8z
								 M13.8,28c0.4,2.6,1.7,5,3.6,6.8c-0.1,0.1-8.3,8.8-8.4,8.9C5.2,40,2.6,35.1,1.8,29.9C1.8,29.9,13.7,28,13.8,28z"/>
						</g>
						<g>
							<path class="st3" d="M8.8,39L8.8,39c2.4,3.1,5.7,5.6,9.4,7l0,0l3.7-9.8l0,0c-1.9-0.7-3.5-1.9-4.7-3.5l0,0L8.8,39z M17.1,32.7
								c1.2,1.6,2.9,2.8,4.7,3.5c0,0.1-3.6,9.6-3.6,9.6c-3.6-1.4-6.9-3.8-9.3-6.9C9,38.9,17,32.8,17.1,32.7z"/>
						</g>
						<g>
							<path class="st3" d="M13.9,32.7L13.9,32.7c0.6,1.1,1.4,2.2,2.4,3.1l0,0l3.8-3.8l0,0c-0.6-0.5-1-1.2-1.4-1.8l0,0L13.9,32.7z
								 M18.5,30.1c0.4,0.7,0.8,1.3,1.4,1.8c-0.1,0.1-3.6,3.7-3.7,3.7c-0.9-0.9-1.7-1.9-2.3-3C14.1,32.7,18.5,30.2,18.5,30.1z"/>
						</g>
						<g>
							<path class="st3" d="M5.6,20.3c-0.5,1.9-0.8,3.9-0.8,5.8l0,0l5.4,0l0,0c0-1.4,0.2-2.9,0.6-4.3l0,0L5.6,20.3L5.6,20.3z
								 M5,24.6c0.1-1.4,0.4-2.8,0.7-4.1c0.1,0,4.9,1.4,5,1.4c-0.3,1-0.5,2.1-0.6,3.1c0,0.4,0,0.8,0,1.2c-0.1,0-5.1,0-5.2,0
								C4.9,25.6,4.9,25.1,5,24.6z"/>
						</g>
						<g>
							<path class="st3" d="M16.7,42.1L16.7,42.1c1.5,0.9,3.2,1.5,4.9,1.9l0,0l1.2-5.2l0,0c-1.2-0.3-2.4-0.7-3.4-1.3l0,0L16.7,42.1z
								 M19.4,37.5c1,0.6,2.2,1,3.4,1.3c0,0.1-1.1,5-1.2,5.1c-1.7-0.4-3.3-1-4.8-1.8C16.9,42,19.3,37.5,19.4,37.5z"/>
						</g>
						<g>
							<path class="st3" d="M7.7,23.6c-0.4,2.9-0.1,5.9,0.9,8.6l0,0l8.5-3.1l0,0c-0.5-1.4-0.7-2.9-0.5-4.3l0,0L7.7,23.6L7.7,23.6z
								 M7.6,24.7c0-0.4,0.1-0.7,0.1-1.1c0.1,0,8.7,1.2,8.8,1.2c0,0.2,0,0.3-0.1,0.5c-0.1,1.3,0.1,2.6,0.5,3.8c-0.1,0-8.3,3-8.4,3
								C7.8,29.8,7.4,27.3,7.6,24.7z"/>
						</g>
						<g>
							<path class="st3" d="M21.2,2.2c-5.2,1-10.1,3.7-13.6,7.7l0,0l9.2,8.2l0,0c1.8-2,4.1-3.3,6.7-3.8l0,0L21.2,2.2L21.2,2.2z
								 M21.1,2.3c0,0.1,2.3,11.9,2.3,12c-2.6,0.5-4.9,1.8-6.7,3.8C16.6,18,7.7,10,7.6,10C11.1,6,15.9,3.3,21.1,2.3z"/>
						</g>
						<g>
							<path class="st3" d="M12.2,9.7c-3,2.5-5.4,5.9-6.7,9.6l0,0l9.9,3.4l0,0c0.6-1.9,1.8-3.6,3.4-4.9l0,0L12.2,9.7L12.2,9.7z
								 M12.2,9.7c0.1,0.1,6.5,7.9,6.5,8c-1.5,1.3-2.7,2.9-3.3,4.8c-0.1,0-9.7-3.3-9.7-3.3C6.9,15.6,9.2,12.2,12.2,9.7z"/>
						</g>
						<g>
							<path class="st3" d="M18.7,14.5c-1.1,0.7-2.1,1.5-3,2.4l0,0l4,3.6l0,0c0.5-0.6,1.1-1.1,1.8-1.5l0,0L18.7,14.5L18.7,14.5z
								 M18.7,14.6c0,0.1,2.7,4.4,2.7,4.5c-0.7,0.4-1.2,0.9-1.7,1.4c-0.1-0.1-3.8-3.5-3.8-3.5C16.6,16.1,17.6,15.3,18.7,14.6z"/>
						</g>
						<g>
							<path class="st3" d="M24.9,5.3L24.9,5.3l0.2,5.4l0,0c1.4-0.1,2.9,0.1,4.4,0.5l0,0l1.3-5.2l0,0C28.8,5.4,26.8,5.2,24.9,5.3z
								 M30.7,6c0,0.1-1.3,5-1.3,5.1c-1.4-0.4-2.9-0.5-4.3-0.5c0-0.1-0.2-5.1-0.2-5.2C26.9,5.3,28.8,5.5,30.7,6z"/>
						</g>
						<g>
							<path class="st3" d="M9.4,17.7c-0.8,1.5-1.4,3.2-1.7,4.9l0,0l5.3,1l0,0c0.2-1.2,0.6-2.4,1.2-3.5l0,0L9.4,17.7L9.4,17.7z
								 M9.4,17.7c0.1,0,4.6,2.4,4.6,2.4c-0.5,1.1-0.9,2.2-1.2,3.4c-0.1,0-5-1-5.1-1C8.1,20.9,8.7,19.2,9.4,17.7z"/>
						</g>
						<g>
							<path class="st3" d="M19,9.2L19,9.2l3.3,8.4l0,0c1.4-0.5,2.9-0.7,4.3-0.6l0,0l1-9l0,0C24.7,7.7,21.7,8.1,19,9.2z M27.5,8.1
								c0,0.1-0.9,8.8-1,8.9c-1.4-0.2-2.9,0-4.3,0.6c0-0.1-3.3-8.2-3.3-8.3C21.7,8.2,24.7,7.8,27.5,8.1z"/>
						</g>
						<g>
							<path class="st3" d="M33.4,17L33.4,17c2,1.7,3.4,4.1,3.9,6.7l0,0l12.1-2.5l0,0c-1.1-5.3-3.9-10.1-7.9-13.5l0,0L33.4,17z
								 M41.5,7.8c4,3.5,6.8,8.2,7.8,13.4c-0.1,0-11.9,2.4-11.9,2.4c-0.5-2.6-1.9-4.9-3.9-6.6C33.6,17,41.5,7.9,41.5,7.8z"/>
						</g>
						<g>
							<path class="st3" d="M29,15.8L29,15.8c2,0.6,3.7,1.8,4.9,3.3l0,0l8-6.7l0,0c-2.5-3-5.9-5.3-9.7-6.5l0,0L29,15.8z M32.3,6
								c3.7,1.2,7.1,3.5,9.6,6.5c-0.1,0.1-7.8,6.6-7.9,6.6c-1.3-1.5-3-2.7-4.9-3.3C29.1,15.7,32.2,6.1,32.3,6z"/>
						</g>
						<g>
							<path class="st3" d="M31.1,20L31.1,20c0.6,0.6,1.1,1.1,1.5,1.8l0,0l4.6-2.8l0,0c-0.7-1.1-1.5-2.1-2.5-2.9l0,0L31.1,20z
								 M34.6,16.1c0.9,0.8,1.7,1.8,2.4,2.9c-0.1,0-4.4,2.7-4.4,2.8c-0.4-0.6-0.9-1.2-1.4-1.7C31.2,19.9,34.6,16.2,34.6,16.1z"/>
						</g>
						<g>
							<path class="st3" d="M41.1,25.3L41.1,25.3c0.1,1.5-0.1,2.9-0.4,4.4l0,0l5.2,1.3l0,0c0.5-2,0.6-4,0.6-5.9l0,0L41.1,25.3z
								 M46.4,25.1c0,0.8,0,1.6,0,2.5c-0.1,1.1-0.3,2.2-0.5,3.3c-0.1,0-5-1.2-5.1-1.2c0.2-0.8,0.3-1.7,0.4-2.5c0-0.6,0.1-1.2,0-1.8
								C41.3,25.4,46.3,25.1,46.4,25.1z"/>
						</g>
						<g>
							<path class="st3" d="M27.9,13.3L27.9,13.3c1.3,0.2,2.5,0.6,3.5,1.2l0,0l2.4-4.8l0,0c-1.5-0.8-3.1-1.3-4.9-1.6l0,0L27.9,13.3z
								 M29,8.1c1.7,0.3,3.4,0.9,4.8,1.6c0,0.1-2.3,4.6-2.3,4.7c-1-0.5-2.2-0.9-3.4-1.1C28,13.2,29,8.2,29,8.1z"/>
						</g>
						<g>
							<path class="st3" d="M34.1,22.6L34.1,22.6c0.6,1.4,0.8,2.9,0.7,4.3l0,0l9,0.9l0,0c0.3-2.9-0.2-5.9-1.3-8.6l0,0L34.1,22.6z
								 M42.4,19.2c1.1,2.6,1.5,5.4,1.3,8.1c0,0.1,0,0.2,0,0.3c-0.1,0-8.8-0.8-8.9-0.8c0,0,0-0.1,0-0.1c0.1-1.4-0.1-2.8-0.6-4.1
								C34.3,22.6,42.4,19.3,42.4,19.2z"/>
						</g>
					</g>
				</g>
			</g>
		</g>
	</g>
</g>
</svg>
