<?xml version="1.0" encoding="utf-8"?>
<!-- Generator: Adobe Illustrator 25.2.1, SVG Export Plug-In . SVG Version: 6.00 Build 0)  -->
<svg version="1.1" id="Layer_1" xmlns="http://www.w3.org/2000/svg" xmlns:xlink="http://www.w3.org/1999/xlink" x="0px" y="0px"
	 viewBox="0 0 219 224.2" style="enable-background:new 0 0 219 224.2;" xml:space="preserve">
<style type="text/css">
	.st0{fill:#434343;}
	.st1{fill:none;stroke:#202020;stroke-miterlimit:10;}
	.st2{fill:none;stroke:#202020;stroke-width:3;stroke-miterlimit:10;}
	.st3{fill:#231F20;stroke:#202020;stroke-miterlimit:10;}
</style>
<g>
	<g>
		<path class="st0" d="M-431.1,119.4l-18.5-10.7l-18.5,10.7v21.4l18.5,10.7l18.5-10.7V119.4z M-431.6,140.5
			c-0.3,0.2-17.7,10.2-18,10.4c-0.3-0.2-17.7-10.2-18-10.4c0-0.3,0-20.5,0-20.8c0.3-0.2,17.7-10.2,18-10.4
			c0.3,0.1,17.7,10.2,18,10.4C-431.6,120-431.6,140.2-431.6,140.5z"/>
	</g>
	<g>
		<path class="st0" d="M-397,117.5l-15.2-8.8l-15.2,8.8v17.6l15.2,8.8l15.2-8.8V117.5z M-397.5,134.8c-0.3,0.1-14.4,8.3-14.7,8.5
			c-0.3-0.2-14.4-8.3-14.7-8.5c0-0.3,0-16.7,0-17c0.3-0.1,14.4-8.3,14.7-8.5c0.3,0.1,14.4,8.3,14.7,8.5
			C-397.5,118.1-397.5,134.5-397.5,134.8z"/>
	</g>
	<g>
		<path class="st0" d="M-378.6,88.3l-15.2-8.8l-15.2,8.8v17.6l15.2,8.8l15.2-8.8V88.3z M-379.2,105.6c-0.3,0.1-14.4,8.3-14.7,8.5
			c-0.3-0.1-14.4-8.3-14.7-8.5c0-0.3,0-16.7,0-17c0.3-0.2,14.4-8.3,14.7-8.5c0.3,0.1,14.4,8.3,14.7,8.5
			C-379.2,88.9-379.2,105.3-379.2,105.6z"/>
	</g>
	<g>
		<path class="st0" d="M-301,88.3l-15.2-8.8l-15.2,8.8v17.6l15.2,8.8l15.2-8.8V88.3z M-301.5,105.6c-0.3,0.1-14.4,8.3-14.7,8.5
			c-0.3-0.1-14.4-8.3-14.7-8.5c0-0.3,0-16.7,0-17c0.3-0.2,14.4-8.3,14.7-8.5c0.3,0.1,14.4,8.3,14.7,8.5
			C-301.5,88.9-301.5,105.3-301.5,105.6z"/>
	</g>
	<g>
		<path class="st0" d="M-284.2,116.7l-15.2-8.8l-15.2,8.8v17.6l15.2,8.8l15.2-8.8V116.7z M-284.7,134c-0.3,0.2-14.4,8.3-14.7,8.5
			c-0.3-0.2-14.4-8.3-14.7-8.5c0-0.3,0-16.7,0-17c0.3-0.1,14.4-8.3,14.7-8.5c0.3,0.1,14.4,8.3,14.7,8.5
			C-284.7,117.3-284.7,133.7-284.7,134z"/>
	</g>
	<g>
		<path class="st0" d="M-344.1,19.1l-15.4-8.9l-15.4,8.9V37l15.4,8.9l15.4-8.9V19.1z M-344.7,36.7c-0.3,0.2-14.6,8.5-14.9,8.6
			c-0.3-0.1-14.6-8.5-14.9-8.6c0-0.3,0-16.9,0-17.2c0.3-0.2,14.6-8.5,14.9-8.6c0.3,0.2,14.6,8.5,14.9,8.6
			C-344.7,19.8-344.7,36.4-344.7,36.7z"/>
	</g>
	<g>
		<path class="st0" d="M-361.2,118.8l-15.2-8.8l-15.2,8.8v17.6l15.2,8.8l15.2-8.8V118.8z M-361.8,136.1c-0.3,0.1-14.4,8.3-14.7,8.5
			c-0.3-0.2-14.4-8.3-14.7-8.5c0-0.3,0-16.7,0-17c0.3-0.1,14.4-8.3,14.7-8.5c0.3,0.2,14.4,8.3,14.7,8.5
			C-361.8,119.4-361.8,135.8-361.8,136.1z"/>
	</g>
	<g>
		<path class="st0" d="M-375.9,151l-15.2-8.8l-15.2,8.8v17.6l15.2,8.8l15.2-8.8V151z M-376.4,168.3c-0.3,0.1-14.4,8.3-14.7,8.5
			c-0.3-0.1-14.4-8.3-14.7-8.5c0-0.3,0-16.7,0-17c0.3-0.2,14.4-8.3,14.7-8.5c0.3,0.2,14.4,8.3,14.7,8.5
			C-376.4,151.6-376.4,168-376.4,168.3z"/>
	</g>
	<g>
		<path class="st0" d="M-454.2,153.6l-15.2-8.8l-15.2,8.8v17.6l15.2,8.8l15.2-8.8V153.6z M-454.7,170.9c-0.3,0.2-14.4,8.3-14.7,8.5
			c-0.3-0.2-14.4-8.3-14.7-8.5c0-0.3,0-16.7,0-17c0.3-0.1,14.5-8.3,14.7-8.5c0.3,0.1,14.4,8.3,14.7,8.5
			C-454.7,154.2-454.7,170.6-454.7,170.9z"/>
	</g>
	<g>
		<path class="st0" d="M-283.6,54.5l-16.4-9.5l-16.4,9.5v18.9l16.4,9.4l16.4-9.4V54.5z M-284.1,73.1c-0.3,0.2-15.6,9-15.8,9.1
			c-0.3-0.1-15.6-9-15.8-9.1c0-0.3,0-18,0-18.3c0.3-0.2,15.6-9,15.8-9.1c0.3,0.2,15.6,9,15.8,9.1C-284.1,55.1-284.1,72.8-284.1,73.1
			z"/>
	</g>
	<g>
		<path class="st0" d="M-359.4,50.1L-379,38.8l-19.6,11.3v22.6L-379,84l19.6-11.3V50.1z M-359.9,72.4c-0.3,0.1-18.8,10.8-19.1,11
			c-0.3-0.2-18.8-10.9-19.1-11c0-0.3,0-21.7,0-22c0.3-0.2,18.8-10.9,19.1-11c0.3,0.2,18.8,10.8,19.1,11
			C-359.9,50.7-359.9,72.1-359.9,72.4z"/>
	</g>
	<g>
		<path class="st0" d="M-334,85.5l-19.6-11.3l-19.6,11.3v22.6l19.6,11.3l19.6-11.3V85.5z M-334.5,107.8c-0.3,0.2-18.8,10.9-19.1,11
			c-0.3-0.1-18.8-10.8-19.1-11c0-0.3,0-21.7,0-22c0.3-0.2,18.8-10.9,19.1-11c0.3,0.2,18.8,10.9,19.1,11
			C-334.5,86.1-334.5,107.5-334.5,107.8z"/>
	</g>
</g>
<g>
	<g>
		<polyline class="st1" points="104.7,111.5 80.8,135.3 80.8,154 56.2,178.6 		"/>
		<polyline class="st2" points="84.4,138.3 84.4,165.4 95.4,176.4 		"/>
		<polyline class="st2" points="90.5,74.8 79.1,63.3 65.6,63.3 52.4,50.1 52.4,31.3 		"/>
		<line class="st1" x1="84.4" y1="74.8" x2="59.6" y2="49.9"/>
		<polyline class="st2" points="77.5,137.6 77.5,151.5 64,165 		"/>
		<polyline class="st2" points="100.6,109.4 79.1,130.9 49.2,130.9 		"/>
		<polyline class="st1" points="95.4,110.6 78.2,127.8 63.1,127.8 49.7,141.2 		"/>
		<polyline class="st1" points="88.6,142.5 88.6,162.6 101.1,175.1 		"/>
		<polyline class="st1" points="80.5,116.5 40.3,116.5 29,127.9 		"/>
		<polyline class="st2" points="77.5,119.5 52.4,119.5 37.5,104.7 17.1,104.7 		"/>
		<polyline class="st2" points="51.6,146.4 32.8,165.2 32.8,177.6 		"/>
		<polyline class="st1" points="29.6,174.4 29.6,162.9 44.3,148.1 		"/>
		<polyline class="st2" points="158.1,125.4 113.1,125.4 101.8,136.7 		"/>
		<polyline class="st1" points="167.3,134.4 159.9,134.4 154.1,128.6 114.5,128.6 106.6,136.5 		"/>
		<g>
			<polyline class="st1" points="203.1,108.1 114.5,108.1 94.8,88.5 57.4,88.5 47.9,98 			"/>
			<polyline class="st2" points="198.3,110.8 121,110.8 101.5,91.3 67.2,91.3 44.7,68.8 			"/>
			<polyline class="st1" points="192.7,103.9 103.8,103.9 84.7,84.9 24.4,84.9 			"/>
			<polyline class="st2" points="141.8,118.2 135.6,118.2 132,114.7 109.4,114.7 90.5,133.5 			"/>
			<polyline class="st1" points="184.3,99.8 90.5,99.8 81.5,108.8 68.4,108.8 			"/>
			<polyline class="st1" points="175.6,96.7 110.5,96.7 101,87.2 101,77.8 110.4,68.3 			"/>
			<polyline class="st1" points="76.1,81.6 63.1,81.6 40.3,58.8 			"/>
			<polyline class="st1" points="98.9,129.6 110.9,117.5 127.4,117.5 			"/>
		</g>
	</g>
	<g>
		<g>
			<g>
				<path class="st3" d="M46,68.8c0,0.7-0.6,1.3-1.3,1.3c-0.7,0-1.3-0.6-1.3-1.3c0-0.7,0.6-1.3,1.3-1.3C45.4,67.4,46,68,46,68.8z"/>
				<path class="st1" d="M47.2,68.8c0,1.4-1.1,2.5-2.5,2.5c-1.4,0-2.5-1.1-2.5-2.5c0-1.4,1.1-2.5,2.5-2.5
					C46,66.3,47.2,67.4,47.2,68.8z"/>
			</g>
			<g>
				<path class="st3" d="M91.3,38.9c0,0.7-0.6,1.3-1.3,1.3s-1.3-0.6-1.3-1.3s0.6-1.3,1.3-1.3S91.3,38.2,91.3,38.9z"/>
				<path class="st1" d="M92.4,38.9c0,1.4-1.1,2.5-2.5,2.5s-2.5-1.1-2.5-2.5c0-1.4,1.1-2.5,2.5-2.5S92.4,37.6,92.4,38.9z"/>
			</g>
			<g>
				<path class="st3" d="M27,36.4c0,0.7-0.6,1.3-1.3,1.3s-1.3-0.6-1.3-1.3c0-0.7,0.6-1.3,1.3-1.3S27,35.7,27,36.4z"/>
				<path class="st1" d="M28.2,36.4c0,1.4-1.1,2.5-2.5,2.5c-1.4,0-2.5-1.1-2.5-2.5c0-1.4,1.1-2.5,2.5-2.5
					C27.1,33.9,28.2,35.1,28.2,36.4z"/>
			</g>
			<g>
				<path class="st3" d="M66.9,143.8c0,0.7-0.6,1.3-1.3,1.3c-0.7,0-1.3-0.6-1.3-1.3s0.6-1.3,1.3-1.3
					C66.3,142.5,66.9,143.1,66.9,143.8z"/>
				<circle class="st1" cx="65.6" cy="143.8" r="2.5"/>
			</g>
			<g>
				<circle class="st3" cx="49.2" cy="130.9" r="1.3"/>
				<path class="st1" d="M51.7,130.9c0,1.4-1.1,2.5-2.5,2.5s-2.5-1.1-2.5-2.5c0-1.4,1.1-2.5,2.5-2.5S51.7,129.5,51.7,130.9z"/>
			</g>
			<g>
				<path class="st3" d="M85.8,138.9c0,0.7-0.6,1.3-1.3,1.3s-1.3-0.6-1.3-1.3c0-0.7,0.6-1.3,1.3-1.3S85.8,138.2,85.8,138.9z"/>
				<path class="st1" d="M86.9,138.9c0,1.4-1.1,2.5-2.5,2.5s-2.5-1.1-2.5-2.5c0-1.4,1.1-2.5,2.5-2.5S86.9,137.5,86.9,138.9z"/>
			</g>
			<g>
				<path class="st3" d="M34.1,177.6c0,0.7-0.6,1.3-1.3,1.3c-0.7,0-1.3-0.6-1.3-1.3c0-0.7,0.6-1.3,1.3-1.3
					C33.5,176.2,34.1,176.8,34.1,177.6z"/>
				<path class="st1" d="M35.3,177.6c0,1.4-1.1,2.5-2.5,2.5c-1.4,0-2.5-1.1-2.5-2.5c0-1.4,1.1-2.5,2.5-2.5
					C34.2,175.1,35.3,176.2,35.3,177.6z"/>
			</g>
			<g>
				<path class="st3" d="M96.8,176.2c0,0.7-0.6,1.3-1.3,1.3c-0.7,0-1.3-0.6-1.3-1.3s0.6-1.3,1.3-1.3
					C96.2,174.9,96.8,175.5,96.8,176.2z"/>
				<path class="st1" d="M97.9,176.2c0,1.4-1.1,2.5-2.5,2.5c-1.4,0-2.5-1.1-2.5-2.5c0-1.4,1.1-2.5,2.5-2.5
					C96.8,173.7,97.9,174.8,97.9,176.2z"/>
			</g>
			<g>
				<path class="st3" d="M111.8,68.3c0,0.7-0.6,1.3-1.3,1.3c-0.7,0-1.3-0.6-1.3-1.3c0-0.7,0.6-1.3,1.3-1.3
					C111.2,67,111.8,67.6,111.8,68.3z"/>
				<path class="st1" d="M112.9,68.3c0,1.4-1.1,2.5-2.5,2.5s-2.5-1.1-2.5-2.5c0-1.4,1.1-2.5,2.5-2.5S112.9,67,112.9,68.3z"/>
			</g>
			<g>
				<path class="st3" d="M78.8,119.5c0,0.7-0.6,1.3-1.3,1.3c-0.7,0-1.3-0.6-1.3-1.3c0-0.7,0.6-1.3,1.3-1.3
					C78.2,118.2,78.8,118.8,78.8,119.5z"/>
				<path class="st1" d="M80,119.5c0,1.4-1.1,2.5-2.5,2.5c-1.4,0-2.5-1.1-2.5-2.5c0-1.4,1.1-2.5,2.5-2.5C78.9,117,80,118.1,80,119.5
					z"/>
			</g>
			<g>
				<path class="st3" d="M18.5,104.7c0,0.7-0.6,1.3-1.3,1.3s-1.3-0.6-1.3-1.3c0-0.7,0.6-1.3,1.3-1.3S18.5,104,18.5,104.7z"/>
				<path class="st1" d="M19.6,104.7c0,1.4-1.1,2.5-2.5,2.5s-2.5-1.1-2.5-2.5c0-1.4,1.1-2.5,2.5-2.5S19.6,103.3,19.6,104.7z"/>
			</g>
			<g>
				<path class="st3" d="M73.4,195.7c0,0.7-0.6,1.3-1.3,1.3c-0.7,0-1.3-0.6-1.3-1.3s0.6-1.3,1.3-1.3
					C72.8,194.3,73.4,194.9,73.4,195.7z"/>
				<path class="st1" d="M74.5,195.7c0,1.4-1.1,2.5-2.5,2.5c-1.4,0-2.5-1.1-2.5-2.5c0-1.4,1.1-2.5,2.5-2.5
					C73.4,193.2,74.5,194.3,74.5,195.7z"/>
			</g>
			<g>
				<path class="st3" d="M120.4,161.2c0,0.7-0.6,1.3-1.3,1.3c-0.7,0-1.3-0.6-1.3-1.3c0-0.7,0.6-1.3,1.3-1.3
					C119.8,159.9,120.4,160.5,120.4,161.2z"/>
				<path class="st1" d="M121.6,161.2c0,1.4-1.1,2.5-2.5,2.5c-1.4,0-2.5-1.1-2.5-2.5c0-1.4,1.1-2.5,2.5-2.5
					C120.4,158.8,121.6,159.9,121.6,161.2z"/>
			</g>
			<g>
				<path class="st3" d="M91.9,133.5c0,0.7-0.6,1.3-1.3,1.3c-0.7,0-1.3-0.6-1.3-1.3c0-0.7,0.6-1.3,1.3-1.3
					C91.3,132.2,91.9,132.8,91.9,133.5z"/>
				<path class="st1" d="M93,133.5c0,1.4-1.1,2.5-2.5,2.5c-1.4,0-2.5-1.1-2.5-2.5c0-1.4,1.1-2.5,2.5-2.5C91.9,131,93,132.2,93,133.5
					z"/>
			</g>
			<g>
				<path class="st3" d="M101.6,109.8c0,0.7-0.6,1.3-1.3,1.3c-0.7,0-1.3-0.6-1.3-1.3c0-0.7,0.6-1.3,1.3-1.3
					C101,108.5,101.6,109.1,101.6,109.8z"/>
				<circle class="st1" cx="100.2" cy="109.8" r="2.5"/>
			</g>
			<g>
				<path class="st3" d="M91.9,74.8c0,0.7-0.6,1.3-1.3,1.3c-0.7,0-1.3-0.6-1.3-1.3c0-0.7,0.6-1.3,1.3-1.3
					C91.3,73.4,91.9,74,91.9,74.8z"/>
				<path class="st1" d="M93,74.8c0,1.4-1.1,2.5-2.5,2.5c-1.4,0-2.5-1.1-2.5-2.5c0-1.4,1.1-2.5,2.5-2.5C91.9,72.3,93,73.4,93,74.8z"
					/>
			</g>
			<g>
				<path class="st3" d="M53.7,31.7c0,0.7-0.6,1.3-1.3,1.3c-0.7,0-1.3-0.6-1.3-1.3c0-0.7,0.6-1.3,1.3-1.3
					C53.1,30.4,53.7,31,53.7,31.7z"/>
				<path class="st1" d="M54.8,31.7c0,1.4-1.1,2.5-2.5,2.5c-1.4,0-2.5-1.1-2.5-2.5c0-1.4,1.1-2.5,2.5-2.5
					C53.7,29.2,54.8,30.3,54.8,31.7z"/>
			</g>
			<g>
				<path class="st3" d="M159.4,125.4c0,0.7-0.6,1.3-1.3,1.3c-0.7,0-1.3-0.6-1.3-1.3c0-0.7,0.6-1.3,1.3-1.3
					C158.8,124.1,159.4,124.7,159.4,125.4z"/>
				<path class="st1" d="M160.6,125.4c0,1.4-1.1,2.5-2.5,2.5c-1.4,0-2.5-1.1-2.5-2.5c0-1.4,1.1-2.5,2.5-2.5
					C159.5,122.9,160.6,124,160.6,125.4z"/>
			</g>
			<g>
				<path class="st3" d="M204.4,108.1c0,0.7-0.6,1.3-1.3,1.3c-0.7,0-1.3-0.6-1.3-1.3c0-0.7,0.6-1.3,1.3-1.3
					C203.8,106.8,204.4,107.4,204.4,108.1z"/>
				<circle class="st1" cx="203.1" cy="108.1" r="2.5"/>
			</g>
			<g>
				<path class="st3" d="M185.7,99.8c0,0.7-0.6,1.3-1.3,1.3c-0.7,0-1.3-0.6-1.3-1.3c0-0.7,0.6-1.3,1.3-1.3
					C185.1,98.4,185.7,99,185.7,99.8z"/>
				<path class="st1" d="M186.8,99.8c0,1.4-1.1,2.5-2.5,2.5c-1.4,0-2.5-1.1-2.5-2.5c0-1.4,1.1-2.5,2.5-2.5
					C185.7,97.3,186.8,98.4,186.8,99.8z"/>
			</g>
			<g>
				<path class="st3" d="M143.2,118.2c0,0.7-0.6,1.3-1.3,1.3c-0.7,0-1.3-0.6-1.3-1.3c0-0.7,0.6-1.3,1.3-1.3
					C142.6,116.8,143.2,117.4,143.2,118.2z"/>
			</g>
			<g>
				<path class="st3" d="M199.7,110.8c0,0.7-0.6,1.3-1.3,1.3c-0.7,0-1.3-0.6-1.3-1.3c0-0.7,0.6-1.3,1.3-1.3
					C199.1,109.4,199.7,110,199.7,110.8z"/>
			</g>
			<g>
				<path class="st3" d="M194,103.9c0,0.7-0.6,1.3-1.3,1.3c-0.7,0-1.3-0.6-1.3-1.3c0-0.7,0.6-1.3,1.3-1.3
					C193.4,102.6,194,103.2,194,103.9z"/>
			</g>
			<g>
				<path class="st3" d="M25.7,84.9c0,0.7-0.6,1.3-1.3,1.3c-0.7,0-1.3-0.6-1.3-1.3c0-0.7,0.6-1.3,1.3-1.3
					C25.1,83.6,25.7,84.2,25.7,84.9z"/>
			</g>
			<g>
				<path class="st3" d="M73.8,54.2c0,0.7-0.6,1.3-1.3,1.3c-0.7,0-1.3-0.6-1.3-1.3c0-0.7,0.6-1.3,1.3-1.3
					C73.2,52.8,73.8,53.4,73.8,54.2z"/>
			</g>
			<g>
				<circle class="st3" cx="40.3" cy="58.8" r="1.3"/>
			</g>
			<g>
				<path class="st3" d="M77.5,81.6c0,0.7-0.6,1.3-1.3,1.3c-0.7,0-1.3-0.6-1.3-1.3c0-0.7,0.6-1.3,1.3-1.3
					C76.9,80.3,77.5,80.9,77.5,81.6z"/>
			</g>
			<g>
				<path class="st3" d="M177,96.7c0,0.7-0.6,1.3-1.3,1.3c-0.7,0-1.3-0.6-1.3-1.3s0.6-1.3,1.3-1.3C176.4,95.3,177,95.9,177,96.7z"/>
			</g>
			<g>
				<path class="st3" d="M21,144.5c0,0.7-0.6,1.3-1.3,1.3c-0.7,0-1.3-0.6-1.3-1.3c0-0.7,0.6-1.3,1.3-1.3
					C20.4,143.1,21,143.7,21,144.5z"/>
			</g>
			<g>
				<path class="st3" d="M13.2,167.7c0,0.7-0.6,1.3-1.3,1.3c-0.7,0-1.3-0.6-1.3-1.3c0-0.7,0.6-1.3,1.3-1.3
					C12.6,166.3,13.2,166.9,13.2,167.7z"/>
			</g>
			<g>
				<path class="st3" d="M148.9,144.5c0,0.7-0.6,1.3-1.3,1.3c-0.7,0-1.3-0.6-1.3-1.3c0-0.7,0.6-1.3,1.3-1.3
					C148.3,143.1,148.9,143.7,148.9,144.5z"/>
			</g>
			<g>
				<path class="st3" d="M128.4,117.5c0,0.7-0.6,1.3-1.3,1.3c-0.7,0-1.3-0.6-1.3-1.3c0-0.7,0.6-1.3,1.3-1.3
					C127.8,116.2,128.4,116.8,128.4,117.5z"/>
			</g>
			<g>
				<path class="st3" d="M100.2,129.6c0,0.7-0.6,1.3-1.3,1.3c-0.7,0-1.3-0.6-1.3-1.3c0-0.7,0.6-1.3,1.3-1.3
					C99.6,128.2,100.2,128.8,100.2,129.6z"/>
			</g>
			<g>
				<path class="st3" d="M106,111.5c0,0.7-0.6,1.3-1.3,1.3c-0.7,0-1.3-0.6-1.3-1.3c0-0.7,0.6-1.3,1.3-1.3
					C105.4,110.1,106,110.7,106,111.5z"/>
			</g>
			<g>
				<path class="st3" d="M96.8,110.6c0,0.7-0.6,1.3-1.3,1.3c-0.7,0-1.3-0.6-1.3-1.3c0-0.7,0.6-1.3,1.3-1.3
					C96.2,109.3,96.8,109.9,96.8,110.6z"/>
			</g>
			<g>
				<path class="st3" d="M85.3,74.3c0,0.7-0.6,1.3-1.3,1.3c-0.7,0-1.3-0.6-1.3-1.3c0-0.7,0.6-1.3,1.3-1.3
					C84.7,73,85.3,73.6,85.3,74.3z"/>
			</g>
			<g>
				<path class="st3" d="M60.9,49.9c0,0.7-0.6,1.3-1.3,1.3c-0.7,0-1.3-0.6-1.3-1.3c0-0.7,0.6-1.3,1.3-1.3
					C60.3,48.6,60.9,49.2,60.9,49.9z"/>
			</g>
			<g>
				<path class="st3" d="M103.1,136.7c0,0.7-0.6,1.3-1.3,1.3c-0.7,0-1.3-0.6-1.3-1.3c0-0.7,0.6-1.3,1.3-1.3
					C102.5,135.3,103.1,135.9,103.1,136.7z"/>
			</g>
			<g>
				<path class="st3" d="M107.9,136.4c0,0.7-0.6,1.3-1.3,1.3s-1.3-0.6-1.3-1.3c0-0.7,0.6-1.3,1.3-1.3S107.9,135.7,107.9,136.4z"/>
			</g>
			<g>
				<path class="st3" d="M168.6,134.3c0,0.7-0.6,1.3-1.3,1.3c-0.7,0-1.3-0.6-1.3-1.3c0-0.7,0.6-1.3,1.3-1.3
					C168,133,168.6,133.6,168.6,134.3z"/>
			</g>
			<g>
				<path class="st3" d="M135.2,137.6c0,0.4-0.3,0.7-0.7,0.7c-0.4,0-0.7-0.3-0.7-0.7s0.3-0.7,0.7-0.7
					C134.9,136.9,135.2,137.2,135.2,137.6z"/>
			</g>
			<g>
				<path class="st3" d="M187.5,132.2c0,0.4-0.3,0.7-0.7,0.7s-0.7-0.3-0.7-0.7c0-0.4,0.3-0.7,0.7-0.7S187.5,131.8,187.5,132.2z"/>
			</g>
			<g>
				<path class="st3" d="M36.1,200.7c0,0.4-0.3,0.7-0.7,0.7c-0.4,0-0.7-0.3-0.7-0.7c0-0.4,0.3-0.7,0.7-0.7
					C35.8,200,36.1,200.3,36.1,200.7z"/>
			</g>
			<g>
				<path class="st3" d="M89.3,56.2c0,0.4-0.3,0.7-0.7,0.7c-0.4,0-0.7-0.3-0.7-0.7c0-0.4,0.3-0.7,0.7-0.7
					C89,55.5,89.3,55.8,89.3,56.2z"/>
			</g>
			<g>
				<path class="st3" d="M66.3,15.9c0,0.4-0.3,0.7-0.7,0.7c-0.4,0-0.7-0.3-0.7-0.7c0-0.4,0.3-0.7,0.7-0.7
					C66,15.2,66.3,15.5,66.3,15.9z"/>
			</g>
			<g>
				<path class="st3" d="M34.8,141.1c0,0.4-0.3,0.7-0.7,0.7c-0.4,0-0.7-0.3-0.7-0.7c0-0.4,0.3-0.7,0.7-0.7
					C34.5,140.4,34.8,140.7,34.8,141.1z"/>
			</g>
			<g>
				<path class="st3" d="M14.5,112.1c0,0.4-0.3,0.7-0.7,0.7s-0.7-0.3-0.7-0.7c0-0.4,0.3-0.7,0.7-0.7S14.5,111.8,14.5,112.1z"/>
			</g>
			<g>
				<path class="st3" d="M58.2,104.7c0,0.4-0.3,0.7-0.7,0.7c-0.4,0-0.7-0.3-0.7-0.7c0-0.4,0.3-0.7,0.7-0.7
					C57.9,104,58.2,104.3,58.2,104.7z"/>
			</g>
			<g>
				<path class="st3" d="M109.2,144.5c0,0.4-0.3,0.7-0.7,0.7c-0.4,0-0.7-0.3-0.7-0.7c0-0.4,0.3-0.7,0.7-0.7
					C108.9,143.8,109.2,144.1,109.2,144.5z"/>
			</g>
			<g>
				<path class="st3" d="M15.2,67.4c0,0.4-0.3,0.7-0.7,0.7c-0.4,0-0.7-0.3-0.7-0.7c0-0.4,0.3-0.7,0.7-0.7
					C14.9,66.8,15.2,67.1,15.2,67.4z"/>
			</g>
			<g>
				<path class="st3" d="M49.2,98c0,0.7-0.6,1.3-1.3,1.3c-0.7,0-1.3-0.6-1.3-1.3c0-0.7,0.6-1.3,1.3-1.3C48.6,96.7,49.2,97.3,49.2,98
					z"/>
			</g>
			<g>
				<path class="st3" d="M30.3,127.9c0,0.7-0.6,1.3-1.3,1.3c-0.7,0-1.3-0.6-1.3-1.3c0-0.7,0.6-1.3,1.3-1.3
					C29.7,126.5,30.3,127.1,30.3,127.9z"/>
			</g>
			<g>
				<path class="st3" d="M51.1,141.1c0,0.7-0.6,1.3-1.3,1.3c-0.7,0-1.3-0.6-1.3-1.3c0-0.7,0.6-1.3,1.3-1.3
					C50.5,139.8,51.1,140.4,51.1,141.1z"/>
			</g>
			<g>
				<path class="st3" d="M52.9,146.4c0,0.7-0.6,1.3-1.3,1.3c-0.7,0-1.3-0.6-1.3-1.3c0-0.7,0.6-1.3,1.3-1.3
					C52.3,145.1,52.9,145.7,52.9,146.4z"/>
			</g>
			<g>
				<path class="st3" d="M30.9,173.6c0,0.7-0.6,1.3-1.3,1.3c-0.7,0-1.3-0.6-1.3-1.3c0-0.7,0.6-1.3,1.3-1.3
					C30.3,172.3,30.9,172.9,30.9,173.6z"/>
			</g>
			<g>
				<path class="st3" d="M45.6,148.1c0,0.7-0.6,1.3-1.3,1.3c-0.7,0-1.3-0.6-1.3-1.3c0-0.7,0.6-1.3,1.3-1.3
					C45,146.8,45.6,147.4,45.6,148.1z"/>
			</g>
			<g>
				<path class="st3" d="M65.3,165c0,0.7-0.6,1.3-1.3,1.3s-1.3-0.6-1.3-1.3c0-0.7,0.6-1.3,1.3-1.3S65.3,164.3,65.3,165z"/>
			</g>
			<g>
				<path class="st3" d="M78.8,137.6c0,0.7-0.6,1.3-1.3,1.3c-0.7,0-1.3-0.6-1.3-1.3c0-0.7,0.6-1.3,1.3-1.3
					C78.2,136.2,78.8,136.8,78.8,137.6z"/>
			</g>
			<g>
				<path class="st3" d="M57.6,178.9c0,0.7-0.6,1.3-1.3,1.3c-0.7,0-1.3-0.6-1.3-1.3c0-0.7,0.6-1.3,1.3-1.3
					C57,177.6,57.6,178.2,57.6,178.9z"/>
			</g>
			<g>
				<path class="st3" d="M102.5,175.1c0,0.7-0.6,1.3-1.3,1.3s-1.3-0.6-1.3-1.3c0-0.7,0.6-1.3,1.3-1.3S102.5,174.3,102.5,175.1z"/>
			</g>
			<g>
				<path class="st3" d="M89.9,142.5c0,0.7-0.6,1.3-1.3,1.3c-0.7,0-1.3-0.6-1.3-1.3c0-0.7,0.6-1.3,1.3-1.3
					C89.3,141.1,89.9,141.7,89.9,142.5z"/>
			</g>
			<g>
				<path class="st3" d="M69.7,108.8c0,0.7-0.6,1.3-1.3,1.3c-0.7,0-1.3-0.6-1.3-1.3c0-0.7,0.6-1.3,1.3-1.3
					C69.1,107.4,69.7,108,69.7,108.8z"/>
			</g>
			<g>
				<path class="st3" d="M83.1,116.5c0,0.7-0.6,1.3-1.3,1.3s-1.3-0.6-1.3-1.3c0-0.7,0.6-1.3,1.3-1.3S83.1,115.8,83.1,116.5z"/>
			</g>
		</g>
	</g>
</g>
</svg>
