<?xml version="1.0" encoding="utf-8"?>
<!-- Generator: Adobe Illustrator 25.2.1, SVG Export Plug-In . SVG Version: 6.00 Build 0)  -->
<svg version="1.1" id="Layer_1" xmlns="http://www.w3.org/2000/svg" xmlns:xlink="http://www.w3.org/1999/xlink" x="0px" y="0px"
	 viewBox="0 0 307.6 307.6" style="enable-background:new 0 0 307.6 307.6;" xml:space="preserve">
<style type="text/css">
	.st0{fill:#FF2E5F;}
	.st1{fill:#009468;}
	.st2{fill:#434343;}
</style>
<path class="st0" d="M100-137.8c0.1-1-0.7-1.8-1.7-1.9c-1-0.1-1.8,0.7-1.9,1.7c-0.1,1,0.7,1.8,1.7,1.9
	C99.1-136.1,100-136.8,100-137.8z"/>
<path class="st1" d="M101.4-137.7c0.1-1.7-1.2-3.2-2.9-3.3c-1.7-0.1-3.2,1.2-3.3,2.9c-0.1,1.7,1.2,3.2,2.9,3.3
	C99.8-134.7,101.3-136,101.4-137.7z"/>
<path class="st2" d="M290.9,102.3c-0.9-2.4-1.9-4.9-3-7.4c-1.1-2.5-2.2-4.9-3.4-7.2c-8,4.6-18.3,2.4-23.4-5.4
	c-5.2-7.8-3.3-18.1,4.1-23.7c-3.5-4.1-7.2-8-11.1-11.6c-5.9,7.1-16.3,8.5-23.9,3c-7.5-5.5-9.3-15.9-4.3-23.7
	c-4.7-2.6-9.5-5-14.5-7.1c-3.1,8.7-12.4,13.6-21.4,10.9c-8.9-2.6-14.2-11.7-12.1-20.7c-5.3-0.9-10.6-1.4-16-1.8
	c0,9.2-7.1,17-16.4,17.6c-9.4,0.6-17.3-6.2-18.5-15.3c-5.2,1-10.4,2.3-15.6,3.9c3.2,8.6-0.8,18.3-9.4,22.1
	c-8.5,3.7-18.4,0.1-22.6-8.1c-4.7,2.8-9.2,5.7-13.4,8.9c6,7,5.6,17.5-1.2,24c-6.8,6.5-17.2,6.4-24,0.2c-3.4,4.2-6.6,8.5-9.5,12.9
	c8,4.6,11.2,14.6,7.1,23c-4.1,8.4-14,11.9-22.5,8.3c-1.7,5.1-3.3,10.2-4.5,15.4c9.1,1.5,15.5,9.9,14.5,19.2c-1,9.3-9.1,16-18.4,15.6
	c0.1,5.3,0.4,10.6,1,16c9.1-1.6,18.1,4,20.3,13.1c2.2,9.1-3.1,18.2-11.9,20.9c0.9,2.5,2,5,3.1,7.4c1.1,2.5,2.2,5,3.4,7.3
	c8-4.6,18.3-2.4,23.5,5.4c5.2,7.8,3.3,18.2-4.1,23.7c3.5,4.1,7.2,8,11.1,11.7c5.9-7.1,16.4-8.6,23.9-3c7.5,5.6,9.3,15.9,4.3,23.7
	c4.6,2.6,9.5,5,14.4,7.1c3.1-8.7,12.4-13.5,21.4-10.9c9,2.6,14.2,11.7,12.2,20.7c5.2,0.9,10.6,1.4,16,1.7c0-9.2,7-17,16.4-17.6
	c9.3-0.6,17.4,6.2,18.5,15.4c5.2-1.1,10.4-2.3,15.6-3.9c-3.2-8.7,0.8-18.4,9.3-22.1c8.6-3.8,18.4-0.1,22.6,8.1
	c4.7-2.8,9.1-5.8,13.4-8.9c-6-7.1-5.6-17.6,1.2-24.1c6.7-6.5,17.3-6.4,24-0.1c3.4-4.2,6.6-8.5,9.5-12.9c-8.1-4.6-11.2-14.6-7.1-23
	c4.2-8.4,14.1-12,22.5-8.4c1.8-5.1,3.3-10.2,4.6-15.4c-9.1-1.6-15.6-9.9-14.6-19.2c1-9.3,9.2-16,18.4-15.5
	c-0.1-5.3-0.4-10.7-1.1-16.1c-9.1,1.7-18-3.9-20.2-13C276.8,114.2,282.1,105.1,290.9,102.3z M202.2,238.8l-24.4-55.5
	c5.1-4.1,8.9-9.5,11.3-15.4l60.2,6.6C243.6,200.9,227,224.7,202.2,238.8z M146.8,137.8c8.8-3.9,19.1,0.1,23,8.9
	c3.9,8.9-0.1,19.1-9,23c-8.8,3.9-19.1-0.1-23-9C133.9,152,138,141.7,146.8,137.8z M104.4,238.2l35.9-48.9c6,2.3,12.5,3.1,19,2.1
	l24.4,55.5C156.5,255.7,127.8,251.9,104.4,238.2z M56,153.3l60.2,6.6c0.5,3.1,1.3,6.2,2.7,9.2c1.3,3,3.1,5.8,5,8.3l-35.8,48.9
	c-9.9-9-18.1-20.1-23.8-33.1C58.6,180.2,55.9,166.6,56,153.3z M105.4,68.8l24.4,55.5c-5.1,4.1-8.9,9.5-11.3,15.4l-60.2-6.6
	C64,106.7,80.6,82.9,105.4,68.8z M203.2,69.4l-35.9,48.8c-5.9-2.3-12.5-3.1-19-2.1l-24.4-55.5C151.1,51.9,179.8,55.7,203.2,69.4z
	 M251.6,154.4l-60.2-6.6c-0.5-3.1-1.4-6.2-2.7-9.2c-1.3-3-3-5.8-5-8.2l35.8-48.9c9.9,9,18.1,20.1,23.8,33.1
	C249,127.4,251.7,141,251.6,154.4z"/>
</svg>
