<?xml version="1.0" encoding="utf-8"?>
<!-- Generator: Adobe Illustrator 25.2.1, SVG Export Plug-In . SVG Version: 6.00 Build 0)  -->
<svg version="1.1" id="Layer_1" xmlns="http://www.w3.org/2000/svg" xmlns:xlink="http://www.w3.org/1999/xlink" x="0px" y="0px"
	 viewBox="0 0 306.8 307.9" style="enable-background:new 0 0 306.8 307.9;" xml:space="preserve">
<style type="text/css">
	.st0{fill:#C4C4C4;}
	.st1{fill:#0070E2;}
	.st2{fill:#009468;}
	.st3{fill:#FF2E5F;}
	.st4{fill:#F7B200;}
</style>
<g id="triangle36_140_">
	<path class="st0" d="M206.9,288.1C206.9,288.1,206.9,288.1,206.9,288.1l-27.2-9c-0.1,0-0.2-0.2-0.2-0.3c0-0.2,0.1-0.3,0.3-0.3
		l124-39.1c0.2-0.1,0.4,0,0.4,0.2c0.1,0.2,0,0.4-0.2,0.5l-96.9,48.1C207.1,288.1,207,288.1,206.9,288.1z M181.1,278.7l25.9,8.6
		l92.6-46L181.1,278.7z"/>
</g>
<g id="triangle36_104_">
	<path class="st0" d="M173.5,247.4c0,0-0.1,0-0.1,0L53.3,190.6c-0.1-0.1-0.2-0.2-0.2-0.3c0-0.1,0-0.3,0.1-0.3l65.4-47.6
		c0.1-0.1,0.2-0.1,0.3-0.1c0.1,0,0.2,0.1,0.2,0.2l54.7,104.4c0.1,0.1,0,0.3-0.1,0.4C173.7,247.4,173.6,247.4,173.5,247.4z
		 M54.1,190.2l118.5,56.1l-54-103.1L54.1,190.2z"/>
</g>
<g id="triangle36_103_">
	<path class="st0" d="M173.5,247.4c-0.1,0-0.2-0.1-0.3-0.2l-54.7-104.4c0-0.1-0.1-0.2,0-0.3c0-0.1,0.1-0.2,0.2-0.2l52.4-19.8
		c0.1,0,0.2,0,0.3,0c0.1,0.1,0.2,0.2,0.2,0.3l2.3,124.1c0,0.2-0.1,0.3-0.3,0.4C173.6,247.4,173.5,247.4,173.5,247.4z M119.3,142.9
		l53.8,102.7l-2.2-122.1L119.3,142.9z"/>
</g>
<g id="triangle36_102_">
	<path class="st0" d="M173.5,247.4C173.5,247.4,173.5,247.4,173.5,247.4c-0.2,0-0.3-0.2-0.3-0.4l-2.3-124.1c0-0.1,0-0.2,0.1-0.3
		c0.1-0.1,0.2-0.1,0.3-0.1l42.5,2.2c0.1,0,0.2,0.1,0.3,0.2c0.1,0.1,0.1,0.2,0,0.3l-40.2,122C173.8,247.4,173.6,247.5,173.5,247.4z
		 M171.6,123.3l2.2,121.6l39.4-119.5L171.6,123.3z"/>
</g>
<g id="triangle36_100_">
	<path class="st0" d="M171.2,123.3c-0.1,0-0.3-0.1-0.3-0.2c0-0.1,0-0.3,0.1-0.4l44.8-37.9c0.1-0.1,0.3-0.1,0.4,0
		c0.1,0.1,0.2,0.2,0.2,0.3l-2.2,40.1c0,0.2-0.2,0.4-0.4,0.3L171.2,123.3C171.2,123.3,171.2,123.3,171.2,123.3z M215.6,85.8
		l-43.4,36.8l41.3,2.1L215.6,85.8z"/>
</g>
<g id="triangle36_98_">
	<path class="st0" d="M213.7,125.5c-0.1,0-0.1,0-0.2-0.1c-0.1-0.1-0.2-0.2-0.2-0.3l2.2-40.1c0-0.1,0.1-0.2,0.1-0.3
		c0.1-0.1,0.2-0.1,0.3-0.1l55.5,9.7c0.2,0,0.3,0.1,0.3,0.3c0,0.2-0.1,0.3-0.2,0.4l-57.7,30.4C213.9,125.5,213.8,125.5,213.7,125.5z
		 M216.3,85.4l-2.2,39.1l56.2-29.6L216.3,85.4z"/>
</g>
<g id="triangle36_84_">
	<path class="st0" d="M173.5,247.4C173.5,247.4,173.5,247.4,173.5,247.4L33.8,232.2c-0.1,0-0.2-0.1-0.3-0.2c-0.1-0.1-0.1-0.2,0-0.3
		l19.6-41.6c0-0.1,0.1-0.2,0.2-0.2c0.1,0,0.2,0,0.3,0l120.1,56.8c0.2,0.1,0.2,0.3,0.2,0.4C173.8,247.3,173.7,247.5,173.5,247.4z
		 M34.4,231.6l137.1,14.9L53.6,190.8L34.4,231.6z"/>
</g>
<g id="triangle36_83_">
	<path class="st0" d="M53.4,190.6c0,0-0.1,0-0.1,0c-0.1-0.1-0.2-0.2-0.2-0.3l-7.7-112c0-0.1,0.1-0.3,0.2-0.3c0.1-0.1,0.3,0,0.4,0.1
		l73.1,64.4c0.1,0.1,0.1,0.2,0.1,0.3c0,0.1-0.1,0.2-0.1,0.3l-65.4,47.6C53.6,190.6,53.5,190.7,53.4,190.6z M46.2,79.1l7.6,110.5
		l64.5-46.9L46.2,79.1z"/>
</g>
<g id="triangle36_82_">
	<path class="st0" d="M118.8,143.1c-0.1,0-0.2,0-0.2-0.1L45.5,78.5c-0.1-0.1-0.1-0.2-0.1-0.3c0-0.1,0.1-0.2,0.2-0.3L114.2,52
		c0.1,0,0.2,0,0.3,0c0.1,0.1,0.2,0.2,0.2,0.3l4.5,90.4c0,0.1-0.1,0.3-0.2,0.3C118.9,143,118.9,143.1,118.8,143.1z M46.5,78.4
		l72,63.5l-4.4-89L46.5,78.4z"/>
</g>
<g id="triangle36_80_">
	<path class="st0" d="M118.8,143.1c-0.1,0-0.1,0-0.2-0.1c-0.1-0.1-0.2-0.2-0.2-0.3L114,52.3c0-0.2,0.1-0.3,0.2-0.4
		c0.1-0.1,0.3,0,0.4,0.1l56.9,70.6c0.1,0.1,0.1,0.2,0.1,0.3c0,0.1-0.1,0.2-0.2,0.2L118.9,143C118.9,143,118.8,143.1,118.8,143.1z
		 M114.8,53.4l4.4,88.8l51.5-19.4L114.8,53.4z"/>
</g>
<g id="triangle36_79_">
	<path class="st0" d="M171.2,123.3c-0.1,0-0.2-0.1-0.3-0.1l-56.9-70.6c-0.1-0.1-0.1-0.3,0-0.4c0.1-0.1,0.3-0.2,0.4-0.1l101.6,32.7
		c0.1,0,0.2,0.1,0.2,0.3c0,0.1,0,0.3-0.1,0.3l-44.8,37.9C171.4,123.3,171.3,123.3,171.2,123.3z M115.4,53l55.9,69.4l44-37.3
		L115.4,53z"/>
</g>
<g id="triangle36_66_">
	<path class="st0" d="M135.5,311.9c-0.1,0-0.1,0-0.2-0.1L33.6,232.2c-0.1-0.1-0.2-0.3-0.1-0.4c0.1-0.2,0.2-0.2,0.4-0.2l139.7,15.2
		c0.1,0,0.2,0.1,0.3,0.2c0.1,0.1,0.1,0.2,0,0.3l-38,64.4C135.7,311.8,135.6,311.9,135.5,311.9C135.5,311.9,135.5,311.9,135.5,311.9z
		 M35,232.4L135.4,311l37.5-63.6L35,232.4z"/>
</g>
<g id="triangle36_39_">
	<path class="st0" d="M173.5,247.4c-0.1,0-0.1,0-0.2-0.1c-0.1-0.1-0.2-0.2-0.1-0.4l40.2-122c0-0.1,0.1-0.2,0.2-0.2
		c0.1,0,0.2,0,0.3,0l95.7,47.4c0.1,0.1,0.2,0.2,0.2,0.3c0,0.1-0.1,0.3-0.2,0.3l-135.9,74.6C173.6,247.4,173.6,247.4,173.5,247.4z
		 M214,125.6l-39.8,120.7l134.5-73.8L214,125.6z"/>
</g>
<g id="triangle36_18_">
	<path class="st0" d="M45.7,78.6c-0.1,0-0.1,0-0.2-0.1c-0.1-0.1-0.2-0.2-0.1-0.3L49.3,13c0-0.1,0.1-0.2,0.2-0.3
		c0.1-0.1,0.2-0.1,0.4,0L114.5,52c0.1,0.1,0.2,0.2,0.2,0.3c0,0.1-0.1,0.3-0.2,0.3L45.9,78.6C45.8,78.6,45.8,78.6,45.7,78.6z
		 M50,13.6l-3.8,64.1l67.4-25.5L50,13.6z"/>
</g>
<path class="st1" d="M324.2,41.4c0.1-1.1-0.8-2-1.9-2.1c-1.1-0.1-2,0.8-2.1,1.9c-0.1,1.1,0.8,2,1.9,2.1
	C323.2,43.3,324.2,42.5,324.2,41.4z"/>
<path class="st2" d="M232.3-100.2c0.2-3-2.1-5.5-5-5.7c-3-0.2-5.5,2.1-5.7,5c-0.2,3,2.1,5.5,5,5.7C229.6-95,232.1-97.2,232.3-100.2z
	"/>
<path class="st1" d="M230-100.4c0.1-1.7-1.2-3.1-2.8-3.2c-1.7-0.1-3.1,1.2-3.2,2.8c-0.1,1.7,1.2,3.1,2.8,3.2
	C228.4-97.4,229.9-98.7,230-100.4z"/>
<ellipse transform="matrix(0.7517 -0.6596 0.6596 0.7517 52.8279 222.7796)" class="st2" cx="322.2" cy="41.2" rx="2.7" ry="2.7"/>
<path class="st1" d="M274.1,94.9c0.1-1.5-1-2.7-2.5-2.8c-1.5-0.1-2.7,1-2.8,2.5c-0.1,1.5,1,2.7,2.5,2.8
	C272.8,97.4,274,96.3,274.1,94.9z"/>
<path class="st2" d="M324.3,138.1c0.1-2.1-1.4-3.8-3.5-4c-2.1-0.1-3.8,1.4-4,3.5c-0.1,2.1,1.4,3.8,3.5,4
	C322.4,141.8,324.2,140.2,324.3,138.1z"/>
<path class="st2" d="M219.7,125.5c0.2-3.3-2.3-6.2-5.6-6.4c-3.3-0.2-6.2,2.3-6.4,5.6c-0.2,3.3,2.3,6.2,5.6,6.4
	C216.7,131.3,219.5,128.8,219.7,125.5z"/>
<path class="st1" d="M183.5,279c0.1-2-1.4-3.7-3.4-3.8c-2-0.1-3.7,1.4-3.8,3.4c-0.1,2,1.4,3.7,3.4,3.8
	C181.6,282.4,183.3,280.9,183.5,279z"/>
<path class="st3" d="M208.7,287.8c0.1-0.9-0.7-1.8-1.6-1.8c-0.9-0.1-1.8,0.7-1.8,1.6c-0.1,0.9,0.7,1.8,1.6,1.8
	C207.8,289.5,208.6,288.8,208.7,287.8z"/>
<path class="st3" d="M54.9,190.4c0.1-0.8-0.6-1.5-1.4-1.6c-0.8-0.1-1.5,0.6-1.6,1.4c-0.1,0.8,0.6,1.5,1.4,1.6
	C54.2,191.8,54.9,191.2,54.9,190.4z"/>
<path class="st1" d="M176.7,247.3c0.1-1.8-1.2-3.3-3-3.4c-1.8-0.1-3.3,1.2-3.4,3c-0.1,1.8,1.2,3.3,3,3.4
	C175.1,250.4,176.6,249.1,176.7,247.3z"/>
<path class="st3" d="M123.5,143c0.2-2.6-1.8-4.9-4.4-5c-2.6-0.2-4.9,1.8-5,4.4c-0.2,2.6,1.8,4.9,4.4,5
	C121.1,147.6,123.4,145.6,123.5,143z"/>
<path class="st2" d="M56.7,190.5c0.1-1.8-1.2-3.3-3-3.4c-1.8-0.1-3.3,1.2-3.4,3s1.2,3.3,3,3.4C55,193.6,56.5,192.3,56.7,190.5z"/>
<path class="st2" d="M175.4,247.2c0.1-1-0.7-1.9-1.8-2c-1-0.1-1.9,0.7-2,1.8c-0.1,1,0.7,1.9,1.8,2
	C174.4,249,175.3,248.2,175.4,247.2z"/>
<path class="st4" d="M171.9,123c0-0.3-0.2-0.6-0.6-0.7c-0.3,0-0.6,0.2-0.7,0.6c0,0.3,0.2,0.6,0.6,0.7
	C171.5,123.6,171.8,123.3,171.9,123z"/>
<path class="st4" d="M120.7,142.8c0.1-1.1-0.7-2-1.8-2c-1.1-0.1-2,0.7-2,1.8c-0.1,1.1,0.7,2,1.8,2
	C119.8,144.7,120.7,143.9,120.7,142.8z"/>
<path class="st2" d="M176.2,247.3c0.1-1.5-1-2.8-2.6-2.9c-1.5-0.1-2.8,1-2.9,2.6c-0.1,1.5,1,2.8,2.6,2.9
	C174.8,249.9,176.1,248.8,176.2,247.3z"/>
<path class="st2" d="M216.2,125.3c0.1-1.4-0.9-2.5-2.3-2.6c-1.4-0.1-2.5,0.9-2.6,2.3c-0.1,1.4,0.9,2.5,2.3,2.6
	C214.9,127.7,216.1,126.6,216.2,125.3z"/>
<path class="st4" d="M172.4,123c0-0.6-0.4-1.2-1.1-1.2c-0.6,0-1.2,0.4-1.2,1.1c0,0.6,0.4,1.2,1.1,1.2
	C171.8,124.1,172.4,123.7,172.4,123z"/>
<path class="st1" d="M177.4,247.3c0.1-2.2-1.5-4-3.6-4.2c-2.2-0.1-4,1.5-4.2,3.6s1.5,4,3.6,4.2C175.4,251.1,177.3,249.5,177.4,247.3
	z"/>
<path class="st1" d="M183.8,279c0.1-2.2-1.5-4-3.7-4.2c-2.2-0.1-4,1.5-4.2,3.7c-0.1,2.2,1.5,4,3.7,4.2
	C181.8,282.8,183.7,281.1,183.8,279z"/>
<path class="st2" d="M216.7,85.1c0-0.4-0.3-0.8-0.7-0.8c-0.4,0-0.8,0.3-0.8,0.7c0,0.4,0.3,0.8,0.7,0.8
	C216.4,85.8,216.7,85.5,216.7,85.1z"/>
<path class="st1" d="M215.2,125.2c0.1-0.8-0.6-1.5-1.4-1.6c-0.8-0.1-1.5,0.6-1.6,1.4c-0.1,0.8,0.6,1.5,1.4,1.6
	C214.5,126.7,215.2,126,215.2,125.2z"/>
<path class="st1" d="M173.4,123.1c0.1-1.2-0.8-2.2-2-2.3c-1.2-0.1-2.2,0.8-2.3,2c-0.1,1.2,0.8,2.2,2,2.3
	C172.3,125.2,173.3,124.3,173.4,123.1z"/>
<path class="st1" d="M219.2,85.2c0.1-1.8-1.2-3.3-3-3.4s-3.3,1.2-3.4,3s1.2,3.3,3,3.4C217.6,88.4,219.1,87,219.2,85.2z"/>
<path class="st2" d="M327.6,41.6c0.2-2.9-2-5.5-5-5.7c-2.9-0.2-5.5,2-5.7,5c-0.2,2.9,2,5.5,5,5.7C324.8,46.8,327.4,44.5,327.6,41.6z
	"/>
<path class="st1" d="M229.5-100.4c0.1-1.4-1-2.6-2.4-2.7c-1.4-0.1-2.6,1-2.7,2.4c-0.1,1.4,1,2.6,2.4,2.7
	C228.2-97.9,229.4-99,229.5-100.4z"/>
<path class="st4" d="M226.3,85.7c0.4-5.7-3.9-10.6-9.6-10.9c-5.7-0.4-10.6,3.9-10.9,9.6s3.9,10.6,9.6,10.9
	C221,95.6,225.9,91.3,226.3,85.7z"/>
<path class="st2" d="M273.5,94.8c0.1-1.1-0.8-2.1-1.9-2.2c-1.1-0.1-2.1,0.8-2.2,1.9c-0.1,1.1,0.8,2.1,1.9,2.2S273.5,96,273.5,94.8z"
	/>
<path class="st2" d="M216.1,125.3c0.1-1.3-0.9-2.4-2.2-2.5s-2.4,0.9-2.5,2.2c-0.1,1.3,0.9,2.4,2.2,2.5
	C214.9,127.6,216,126.6,216.1,125.3z"/>
<path class="st2" d="M219.9,85.3c0.1-2.1-1.5-4-3.6-4.1c-2.1-0.1-4,1.5-4.1,3.6c-0.1,2.1,1.5,4,3.6,4.1
	C217.9,89,219.7,87.4,219.9,85.3z"/>
<path class="st2" d="M325.3,41.4c0.1-1.7-1.2-3.1-2.9-3.2c-1.7-0.1-3.1,1.2-3.2,2.9c-0.1,1.7,1.2,3.1,2.9,3.2
	C323.7,44.4,325.2,43.1,325.3,41.4z"/>
<path class="st2" d="M275.2,95c0.1-2.1-1.4-3.9-3.5-4c-2.1-0.1-3.9,1.4-4,3.5c-0.1,2.1,1.4,3.9,3.5,4C273.3,98.6,275.1,97,275.2,95z
	"/>
<path class="st1" d="M329,127.1c0-0.7-0.5-1.2-1.1-1.3c-0.7,0-1.2,0.5-1.3,1.1c0,0.7,0.5,1.2,1.1,1.3
	C328.4,128.3,328.9,127.8,329,127.1z"/>
<path class="st2" d="M325.4,41.4c0.1-1.7-1.2-3.2-2.9-3.3c-1.7-0.1-3.2,1.2-3.3,2.9c-0.1,1.7,1.2,3.2,2.9,3.3
	C323.8,44.5,325.3,43.2,325.4,41.4z"/>
<path class="st4" d="M272.4,94.8c0-0.5-0.3-0.9-0.9-1s-0.9,0.3-1,0.9c0,0.5,0.3,0.9,0.9,1S272.4,95.3,272.4,94.8z"/>
<path class="st3" d="M322.5,138c0.1-1.1-0.7-2-1.8-2c-1.1-0.1-2,0.7-2,1.8c-0.1,1.1,0.7,2,1.8,2S322.4,139.1,322.5,138z"/>
<path class="st2" d="M274.7,94.9c0.1-1.8-1.2-3.3-3-3.4c-1.8-0.1-3.3,1.2-3.4,3c-0.1,1.8,1.2,3.3,3,3.4
	C273,98,274.6,96.7,274.7,94.9z"/>
<path class="st2" d="M325.2,41.4c0.1-1.6-1.1-3-2.7-3.1s-3,1.1-3.1,2.7c-0.1,1.6,1.1,3,2.7,3.1S325.1,43.1,325.2,41.4z"/>
<path class="st1" d="M329.6,127.2c0.1-1-0.7-1.9-1.7-2c-1-0.1-1.9,0.7-2,1.7c-0.1,1,0.7,1.9,1.7,2
	C328.7,129,329.6,128.2,329.6,127.2z"/>
<path class="st1" d="M321.7,138c0-0.6-0.4-1.1-1-1.2c-0.6,0-1.1,0.4-1.2,1c0,0.6,0.4,1.1,1,1.2C321.1,139.1,321.6,138.6,321.7,138z"
	/>
<path class="st2" d="M37.3,232.1c0.1-1.9-1.3-3.6-3.3-3.7c-1.9-0.1-3.6,1.3-3.7,3.3c-0.1,1.9,1.3,3.6,3.3,3.7
	C35.5,235.5,37.2,234,37.3,232.1z"/>
<path class="st1" d="M17.7,236.9c0.1-2.3-1.6-4.3-3.9-4.4c-2.3-0.1-4.3,1.6-4.4,3.9c-0.1,2.3,1.6,4.3,3.9,4.4
	C15.5,240.9,17.5,239.2,17.7,236.9z"/>
<path class="st3" d="M37.9,232.1c0.1-2.2-1.5-4.2-3.8-4.3c-2.2-0.1-4.2,1.5-4.3,3.8c-0.1,2.2,1.5,4.2,3.8,4.3
	C35.8,236.1,37.7,234.4,37.9,232.1z"/>
<path class="st2" d="M60.4,190.7c0.2-3.8-2.7-7.1-6.5-7.4c-3.8-0.2-7.1,2.7-7.4,6.5c-0.2,3.8,2.7,7.1,6.5,7.4
	C56.8,197.5,60.1,194.6,60.4,190.7z"/>
<path class="st1" d="M35.5,232c0.1-1-0.7-1.8-1.6-1.8c-1-0.1-1.8,0.7-1.8,1.6c-0.1,1,0.7,1.8,1.6,1.8
	C34.7,233.7,35.5,232.9,35.5,232z"/>
<path class="st1" d="M19.6,237c0.2-3.4-2.3-6.3-5.7-6.5c-3.4-0.2-6.3,2.3-6.5,5.7c-0.2,3.4,2.3,6.3,5.7,6.5
	C16.5,242.9,19.4,240.4,19.6,237z"/>
<path class="st4" d="M36.8,232.1c0.1-1.6-1.1-3.1-2.8-3.2c-1.6-0.1-3.1,1.1-3.2,2.8c-0.1,1.6,1.1,3.1,2.8,3.2
	C35.3,235,36.7,233.7,36.8,232.1z"/>
<ellipse transform="matrix(0.4939 -0.8695 0.8695 0.4939 -127.0316 275.912)" class="st3" cx="173.5" cy="247.1" rx="5.1" ry="5.1"/>
<path class="st4" d="M59.5,190.7c0.2-3.4-2.3-6.3-5.7-6.5c-3.4-0.2-6.3,2.3-6.5,5.7c-0.2,3.4,2.3,6.3,5.7,6.5
	C56.4,196.6,59.3,194,59.5,190.7z"/>
<path class="st1" d="M47.1,78.3c0-0.7-0.5-1.3-1.2-1.4c-0.7,0-1.3,0.5-1.4,1.2c0,0.7,0.5,1.3,1.2,1.4C46.4,79.6,47,79,47.1,78.3z"/>
<path class="st1" d="M122.7,142.9c0.1-2.1-1.5-4-3.6-4.1c-2.1-0.1-4,1.5-4.1,3.6c-0.1,2.1,1.5,4,3.6,4.1S122.5,145.1,122.7,142.9z"
	/>
<path class="st2" d="M55.8,190.4c0.1-1.3-0.9-2.4-2.2-2.5c-1.3-0.1-2.4,0.9-2.5,2.2c-0.1,1.3,0.9,2.4,2.2,2.5
	C54.6,192.7,55.7,191.7,55.8,190.4z"/>
<path class="st4" d="M118.2,52.5c0.1-2.1-1.5-4-3.6-4.1c-2.1-0.1-4,1.5-4.1,3.6c-0.1,2.1,1.5,4,3.6,4.1
	C116.2,56.3,118.1,54.7,118.2,52.5z"/>
<path class="st3" d="M123,143c0.2-2.3-1.6-4.3-3.9-4.5c-2.3-0.2-4.3,1.6-4.5,3.9c-0.2,2.3,1.6,4.3,3.9,4.5
	C120.9,147,122.9,145.3,123,143z"/>
<path class="st1" d="M49,78.5c0.1-1.8-1.2-3.3-3-3.4s-3.3,1.2-3.4,3c-0.1,1.8,1.2,3.3,3,3.4C47.3,81.6,48.8,80.2,49,78.5z"/>
<path class="st2" d="M120.3,52.7c0.2-3.3-2.3-6.2-5.6-6.4c-3.3-0.2-6.2,2.3-6.4,5.6c-0.2,3.3,2.3,6.2,5.6,6.4
	C117.3,58.5,120.1,56,120.3,52.7z"/>
<path class="st1" d="M233.8-100.1c0.2-3.8-2.6-7.1-6.4-7.3c-3.8-0.2-7.1,2.6-7.3,6.4c-0.2,3.8,2.6,7.1,6.4,7.3
	C230.3-93.4,233.6-96.3,233.8-100.1z"/>
<path class="st3" d="M118,52.5c0.1-2-1.4-3.7-3.4-3.9c-2-0.1-3.7,1.4-3.9,3.4c-0.1,2,1.4,3.7,3.4,3.9
	C116.1,56.1,117.8,54.5,118,52.5z"/>
<path class="st3" d="M172.9,123c0.1-0.9-0.7-1.8-1.6-1.8c-0.9-0.1-1.8,0.7-1.8,1.6c-0.1,0.9,0.7,1.8,1.6,1.8
	C172.1,124.7,172.9,124,172.9,123z"/>
<path class="st4" d="M120.1,142.8c0-0.7-0.5-1.3-1.2-1.3c-0.7,0-1.3,0.5-1.3,1.2c0,0.7,0.5,1.3,1.2,1.3
	C119.4,144,120,143.5,120.1,142.8z"/>
<path class="st4" d="M116.7,52.5c0.1-1.3-0.9-2.5-2.2-2.5c-1.3-0.1-2.5,0.9-2.5,2.2c-0.1,1.3,0.9,2.5,2.2,2.5
	C115.5,54.8,116.6,53.8,116.7,52.5z"/>
<path class="st1" d="M217.9,85.1c0.1-1.1-0.8-2-1.8-2.1s-2,0.8-2.1,1.8c-0.1,1.1,0.8,2,1.8,2.1S217.9,86.2,217.9,85.1z"/>
<path class="st3" d="M178.7,123.4c0.3-4.1-2.9-7.7-7-8s-7.7,2.9-8,7c-0.3,4.1,2.9,7.7,7,8C174.9,130.7,178.4,127.5,178.7,123.4z"/>
<path class="st1" d="M121.8,52.8c0.3-4.1-2.8-7.7-7-7.9c-4.1-0.3-7.7,2.8-7.9,7s2.8,7.7,7,7.9C118,60,121.5,56.9,121.8,52.8z"/>
<path class="st1" d="M223.6,85.5c0.3-4.2-2.9-7.8-7.1-8.1c-4.2-0.3-7.8,2.9-8.1,7.1c-0.3,4.2,2.9,7.8,7.1,8.1
	C219.7,92.9,223.3,89.7,223.6,85.5z"/>
<path class="st4" d="M228.3-100.5c0-0.7-0.5-1.4-1.2-1.4c-0.7,0-1.4,0.5-1.4,1.2c0,0.7,0.5,1.4,1.2,1.4
	C227.6-99.2,228.2-99.7,228.3-100.5z"/>
<path class="st4" d="M137.6,311.7c0.1-1.2-0.8-2.2-2-2.2c-1.2-0.1-2.2,0.8-2.2,2c-0.1,1.2,0.8,2.2,2,2.2
	C136.5,313.7,137.5,312.8,137.6,311.7z"/>
<path class="st1" d="M35.2,232c0-0.7-0.5-1.4-1.3-1.4c-0.7,0-1.4,0.5-1.4,1.3c0,0.7,0.5,1.4,1.3,1.4C34.5,233.3,35.1,232.7,35.2,232
	z"/>
<path class="st2" d="M140.3,311.8c0.2-2.7-1.9-5-4.5-5.2c-2.7-0.2-5,1.9-5.2,4.5c-0.2,2.7,1.9,5,4.5,5.2
	C137.8,316.6,140.2,314.5,140.3,311.8z"/>
<path class="st3" d="M138.8,311.7c0.1-1.8-1.3-3.4-3.1-3.6c-1.8-0.1-3.4,1.3-3.6,3.1c-0.1,1.8,1.3,3.4,3.1,3.6
	C137.1,315,138.7,313.6,138.8,311.7z"/>
<path class="st2" d="M174.7,247.2c0-0.6-0.4-1.2-1.1-1.2c-0.6,0-1.2,0.4-1.2,1.1c0,0.6,0.4,1.2,1.1,1.2
	C174.1,248.3,174.6,247.8,174.7,247.2z"/>
<path class="st1" d="M36.5,232.1c0.1-1.5-1-2.8-2.5-2.9c-1.5-0.1-2.8,1-2.9,2.5c-0.1,1.5,1,2.8,2.5,2.9
	C35.1,234.7,36.4,233.6,36.5,232.1z"/>
<path class="st1" d="M139.6,311.8c0.1-2.3-1.6-4.3-3.9-4.4c-2.3-0.1-4.3,1.6-4.4,3.9c-0.1,2.3,1.6,4.3,3.9,4.4
	C137.5,315.8,139.5,314.1,139.6,311.8z"/>
<path class="st2" d="M141.6,311.9c0.2-3.4-2.3-6.3-5.7-6.5c-3.4-0.2-6.3,2.3-6.5,5.7c-0.2,3.4,2.3,6.3,5.7,6.5
	C138.5,317.9,141.4,315.3,141.6,311.9z"/>
<path class="st1" d="M139,311.8c0.1-1.9-1.3-3.6-3.3-3.7c-1.9-0.1-3.6,1.3-3.7,3.3c-0.1,1.9,1.3,3.6,3.3,3.7
	C137.2,315.2,138.9,313.7,139,311.8z"/>
<path class="st2" d="M181.2,278.8c0-0.8-0.5-1.4-1.3-1.5c-0.8,0-1.4,0.5-1.5,1.3c0,0.8,0.5,1.4,1.3,1.5
	C180.5,280.1,181.2,279.6,181.2,278.8z"/>
<path class="st4" d="M180.7,247.6c0.3-4-2.7-7.4-6.7-7.6c-4-0.3-7.4,2.7-7.6,6.7c-0.3,4,2.7,7.4,6.7,7.6
	C177,254.5,180.4,251.5,180.7,247.6z"/>
<path class="st4" d="M141,311.9c0.2-3-2.1-5.6-5.1-5.8c-3-0.2-5.6,2.1-5.8,5.1c-0.2,3,2.1,5.6,5.1,5.8
	C138.1,317.2,140.8,314.9,141,311.9z"/>
<path class="st1" d="M211.1,288c0.1-2.3-1.6-4.3-3.9-4.4c-2.3-0.1-4.3,1.6-4.4,3.9c-0.1,2.3,1.6,4.3,3.9,4.4
	C209,292,211,290.3,211.1,288z"/>
<path class="st4" d="M138.5,311.7c0.1-1.7-1.2-3.1-2.8-3.2c-1.7-0.1-3.1,1.2-3.2,2.8c-0.1,1.7,1.2,3.1,2.8,3.2
	C136.9,314.7,138.4,313.4,138.5,311.7z"/>
<path class="st2" d="M210.1,287.9c0.1-1.7-1.2-3.2-2.9-3.3c-1.7-0.1-3.2,1.2-3.3,2.9c-0.1,1.7,1.2,3.2,2.9,3.3
	C208.5,291,210,289.7,210.1,287.9z"/>
<path class="st4" d="M185.5,279.1c0.2-3.1-2.1-5.7-5.2-5.9c-3.1-0.2-5.7,2.1-5.9,5.2c-0.2,3.1,2.1,5.7,5.2,5.9
	C182.6,284.5,185.3,282.2,185.5,279.1z"/>
<path class="st3" d="M47.1,78.3c0-0.8-0.5-1.4-1.3-1.5c-0.8,0-1.4,0.5-1.5,1.3c0,0.8,0.5,1.4,1.3,1.5C46.4,79.7,47.1,79.1,47.1,78.3
	z"/>
<path class="st2" d="M55.1,190.4c0.1-0.9-0.6-1.7-1.5-1.8c-0.9-0.1-1.7,0.6-1.8,1.5c-0.1,0.9,0.6,1.7,1.5,1.8
	C54.2,192,55,191.3,55.1,190.4z"/>
<path class="st3" d="M55,190.4c0.1-0.9-0.6-1.6-1.5-1.7c-0.9-0.1-1.6,0.6-1.7,1.5c-0.1,0.9,0.6,1.6,1.5,1.7
	C54.2,191.9,54.9,191.2,55,190.4z"/>
<path class="st4" d="M49.7,78.5c0.1-2.2-1.5-4-3.6-4.2c-2.2-0.1-4,1.5-4.2,3.6c-0.1,2.2,1.5,4,3.6,4.2
	C47.7,82.3,49.5,80.6,49.7,78.5z"/>
<path class="st1" d="M16.8,236.9c0.1-1.8-1.2-3.4-3-3.5c-1.8-0.1-3.4,1.2-3.5,3c-0.1,1.8,1.2,3.4,3,3.5
	C15.1,240,16.7,238.7,16.8,236.9z"/>
<path class="st1" d="M14.6,236.7c0-0.6-0.4-1.2-1.1-1.2c-0.6,0-1.2,0.4-1.2,1.1s0.4,1.2,1.1,1.2C14.1,237.8,14.6,237.3,14.6,236.7z"
	/>
<path class="st3" d="M311.9,172.7c0.1-1.3-0.9-2.5-2.3-2.6c-1.3-0.1-2.5,0.9-2.6,2.3c-0.1,1.3,0.9,2.5,2.3,2.6
	C310.6,175,311.8,174,311.9,172.7z"/>
<path class="st1" d="M217.6,125.4c0.1-2.1-1.5-4-3.6-4.1c-2.1-0.1-4,1.5-4.1,3.6c-0.1,2.1,1.5,4,3.6,4.1
	C215.6,129.1,217.5,127.5,217.6,125.4z"/>
<path class="st1" d="M175.3,247.2c0.1-1-0.7-1.8-1.6-1.9c-1-0.1-1.8,0.7-1.9,1.6c-0.1,1,0.7,1.8,1.6,1.9
	C174.4,248.9,175.2,248.2,175.3,247.2z"/>
<path class="st3" d="M311.5,172.6c0.1-1.1-0.8-2.1-1.9-2.2c-1.1-0.1-2.1,0.8-2.2,1.9c-0.1,1.1,0.8,2.1,1.9,2.2
	C310.4,174.6,311.4,173.8,311.5,172.6z"/>
<path class="st4" d="M177.3,247.3c0.1-2.1-1.5-3.9-3.6-4.1c-2.1-0.1-3.9,1.5-4.1,3.6c-0.1,2.1,1.5,3.9,3.6,4.1
	C175.4,251,177.2,249.4,177.3,247.3z"/>
<path class="st2" d="M312.3,172.7c0.1-1.6-1.1-2.9-2.7-3c-1.6-0.1-2.9,1.1-3,2.7c-0.1,1.6,1.1,2.9,2.7,3
	C310.8,175.5,312.2,174.3,312.3,172.7z"/>
<path class="st2" d="M325.2,138.2c0.2-2.6-1.8-4.8-4.4-5c-2.6-0.2-4.8,1.8-5,4.4c-0.2,2.6,1.8,4.8,4.4,5
	C322.8,142.8,325.1,140.8,325.2,138.2z"/>
<path class="st4" d="M216.1,125.3c0.1-1.3-0.9-2.4-2.2-2.5c-1.3-0.1-2.4,0.9-2.5,2.2c-0.1,1.3,0.9,2.4,2.2,2.5
	C214.9,127.6,216,126.6,216.1,125.3z"/>
<path class="st1" d="M323.2,138.1c0.1-1.4-1-2.7-2.5-2.8c-1.4-0.1-2.7,1-2.8,2.5c-0.1,1.4,1,2.7,2.5,2.8
	C321.8,140.6,323.1,139.5,323.2,138.1z"/>
<path class="st2" d="M287.3,248.4c0-0.7-0.5-1.3-1.2-1.3c-0.7,0-1.3,0.5-1.3,1.2c0,0.7,0.5,1.3,1.2,1.3
	C286.7,249.6,287.3,249.1,287.3,248.4z"/>
<path class="st2" d="M210.4,288c0.1-1.9-1.3-3.6-3.2-3.7c-1.9-0.1-3.6,1.3-3.7,3.2c-0.1,1.9,1.3,3.6,3.2,3.7
	C208.7,291.3,210.3,289.9,210.4,288z"/>
<path class="st1" d="M245.9,277.8c0.1-1.8-1.3-3.4-3.1-3.5c-1.8-0.1-3.4,1.3-3.5,3.1c-0.1,1.8,1.3,3.4,3.1,3.5
	C244.2,281,245.8,279.6,245.9,277.8z"/>
<path class="st1" d="M291.2,291.7c0.3-4.3-3-8-7.3-8.3c-4.3-0.3-8,3-8.3,7.3c-0.3,4.3,3,8,7.3,8.3
	C287.2,299.2,290.9,296,291.2,291.7z"/>
<path class="st2" d="M262.4,228.1c0.1-2.2-1.5-4.1-3.7-4.2c-2.2-0.1-4.1,1.5-4.2,3.7c-0.1,2.2,1.5,4.1,3.7,4.2
	C260.4,231.9,262.3,230.3,262.4,228.1z"/>
<path class="st1" d="M54.2,13.3c0.2-2.5-1.7-4.7-4.3-4.8c-2.5-0.2-4.7,1.7-4.8,4.3c-0.2,2.5,1.7,4.7,4.3,4.8
	C51.8,17.7,54,15.8,54.2,13.3z"/>
<path class="st1" d="M50.7,13.1c0-0.6-0.4-1.1-1-1.2c-0.6,0-1.1,0.4-1.2,1c0,0.6,0.4,1.1,1,1.2C50.2,14.2,50.7,13.7,50.7,13.1z"/>
<path class="st2" d="M51.5,13.1c0.1-1-0.7-1.9-1.7-2c-1-0.1-1.9,0.7-2,1.7c-0.1,1,0.7,1.9,1.7,2C50.5,14.9,51.4,14.2,51.5,13.1z"/>
<path class="st1" d="M57.3,13.5c0.3-4.2-2.9-7.9-7.1-8.1s-7.9,2.9-8.1,7.1s2.9,7.9,7.1,8.1C53.4,20.9,57,17.7,57.3,13.5z"/>
<path class="st1" d="M47.4,78.3c0.1-0.9-0.6-1.7-1.5-1.7c-0.9-0.1-1.7,0.6-1.7,1.5c-0.1,0.9,0.6,1.7,1.5,1.7
	C46.6,79.9,47.3,79.2,47.4,78.3z"/>
<path class="st3" d="M53.1,13.2c0.1-1.9-1.3-3.6-3.2-3.7c-1.9-0.1-3.6,1.3-3.7,3.2s1.3,3.6,3.2,3.7C51.3,16.6,53,15.2,53.1,13.2z"/>
<path class="st3" d="M116,52.4c0.1-0.9-0.6-1.7-1.5-1.8c-0.9-0.1-1.7,0.6-1.8,1.5s0.6,1.7,1.5,1.8C115.1,54,115.9,53.3,116,52.4z"/>
<path class="st1" d="M47,78.3c0-0.7-0.5-1.2-1.1-1.3c-0.7,0-1.2,0.5-1.3,1.1c0,0.7,0.5,1.2,1.1,1.3C46.3,79.5,46.9,79,47,78.3z"/>
<path class="st2" d="M53.3,13.3c0.1-2-1.4-3.8-3.5-3.9s-3.8,1.4-3.9,3.5c-0.1,2,1.4,3.8,3.5,3.9C51.4,16.9,53.2,15.3,53.3,13.3z"/>
<path class="st2" d="M51.7,13.2c0.1-1.1-0.8-2.1-1.9-2.2s-2.1,0.8-2.2,1.9c-0.1,1.1,0.8,2.1,1.9,2.2S51.6,14.3,51.7,13.2z"/>
<path class="st2" d="M115.6,52.4c0-0.7-0.5-1.3-1.2-1.4c-0.7,0-1.3,0.5-1.4,1.2c0,0.7,0.5,1.3,1.2,1.4
	C115,53.7,115.6,53.1,115.6,52.4z"/>
<path class="st1" d="M254.9,270.6c0.1-1-0.7-1.8-1.7-1.9c-1-0.1-1.8,0.7-1.9,1.7c-0.1,1,0.7,1.8,1.7,1.9
	C254,272.4,254.8,271.6,254.9,270.6z"/>
<path class="st4" d="M216,288.3c0.3-5-3.5-9.3-8.5-9.6c-5-0.3-9.3,3.5-9.6,8.5c-0.3,5,3.5,9.3,8.5,9.6
	C211.4,297.1,215.7,293.3,216,288.3z"/>
<path class="st3" d="M155.9,284.7c0.1-1.4-1-2.6-2.3-2.7c-1.4-0.1-2.6,1-2.7,2.3c-0.1,1.4,1,2.6,2.3,2.7
	C154.6,287.2,155.8,286.1,155.9,284.7z"/>
<path class="st1" d="M254.5,270.6c0.1-0.8-0.5-1.4-1.3-1.5c-0.8-0.1-1.4,0.5-1.5,1.3c-0.1,0.8,0.5,1.4,1.3,1.5
	C253.8,271.9,254.5,271.4,254.5,270.6z"/>
<path class="st1" d="M236.8,196.6c0.1-1.7-1.1-3.1-2.8-3.2c-1.7-0.1-3.1,1.1-3.2,2.8c-0.1,1.7,1.1,3.1,2.8,3.2
	C235.3,199.5,236.7,198.2,236.8,196.6z"/>
<path class="st2" d="M209.8,287.9c0.1-1.6-1.1-2.9-2.6-3c-1.6-0.1-2.9,1.1-3,2.6c-0.1,1.6,1.1,2.9,2.6,3
	C208.3,290.7,209.7,289.5,209.8,287.9z"/>
<path class="st4" d="M253.8,270.5c0-0.4-0.2-0.7-0.6-0.7c-0.4,0-0.7,0.2-0.7,0.6c0,0.4,0.2,0.7,0.6,0.7
	C253.4,271.2,253.7,270.9,253.8,270.5z"/>
<path class="st1" d="M254.5,270.6c0-0.8-0.5-1.4-1.3-1.5c-0.8,0-1.4,0.5-1.5,1.3c0,0.8,0.5,1.4,1.3,1.5
	C253.8,271.9,254.4,271.3,254.5,270.6z"/>
<path class="st2" d="M88.1,239.6c0.2-3.1-2.2-5.8-5.3-6c-3.1-0.2-5.8,2.2-6,5.3c-0.2,3.1,2.2,5.8,5.3,6
	C85.2,245.1,87.9,242.7,88.1,239.6z"/>
<path class="st2" d="M266.8,154.1c0.1-1.3-0.9-2.3-2.1-2.4c-1.3-0.1-2.3,0.9-2.4,2.1c-0.1,1.3,0.9,2.3,2.1,2.4
	C265.7,156.3,266.8,155.4,266.8,154.1z"/>
</svg>
